<svg id="Capa_1" data-name="Capa 1" xmlns="http://www.w3.org/2000/svg" viewBox="0 0 2261.02 1992.64"><defs><style>.cls-1{fill:none;}.cls-2{fill:#b7a59c;}.cls-3{fill:#4f3025;}.cls-4{fill:#73321f;}.cls-5{fill:#9c513f;}.cls-6{fill:#3e201d;}.cls-7{fill:#fafafa;}.cls-8{fill:#f7efec;}.cls-9{fill:#733c2e;}.cls-10{fill:#f6a872;}.cls-11{fill:#8d5241;}.cls-12{fill:#e68a71;}.cls-13{fill:#261312;}.cls-14{fill:#b5b4b0;}.cls-15{fill:#cbc7c5;}.cls-16{fill:#9f7a62;}.cls-17{fill:#886153;}.cls-18{fill:#eecba8;}.cls-19{fill:#868f4f;}</style></defs><title>DJV MAR 751-18 [Converted]</title><path class="cls-1" d="M1171,69.3v290c-26.29-6.51-54.22-4.82-80.56,8.16-17.06-6.61-39.79-.8-59.61,9.51H1003V314.45H955.29V91.52H333.37V69.3Z" transform="translate(0 0.01)"/><path class="cls-1" d="M1710.36,542.16H1289.15c22-3.37,45.13-28.07,51.08-46.35,6.42-19.77,5.06-38.61-10.68-53.24a39.93,39.93,0,0,0,12.14-31.77H1459V540.33h105.35V410.8h65V540.33H1709C1709.38,540.94,1709.85,541.55,1710.36,542.16Z" transform="translate(0 0.01)"/><path class="cls-1" d="M2000.4,410.8V542.16H1878.32l-8.67-45.22a1,1,0,0,1,.24-.38c5.72-10.22,11.81-20.48,17.71-31,1.46-1.12,2.91-2.24,4.5-3.32,11.34-7.92,22.45-17.11,29.15-29.48,3.89-7.22,3.56-14.76,5.16-22Z" transform="translate(0 0.01)"/><path class="cls-1" d="M2173,1386.08c-1.93-4-4-8.1-6.14-12.18C2169.58,1379,2171.64,1383,2173,1386.08Z" transform="translate(0 0.01)"/><rect class="cls-1" x="85.03" y="410.82" width="42.51" height="131.36"/><path class="cls-2" d="M0,0V91.52H85V377H0v33.78H85V542.18H0V576H85V886.09c-10.35,11.72-18.65,24.18-22.58,34.12C49,954,32.87,987.79,20.55,1022.37,13,1043.51,6.86,1065.58,0,1087.14v316.19c19.08,13.54,40.92,24.84,55.26,34.3,6.37,4.22,16,12.38,25.44,18.09,0,41.85-.47,83.7-.47,125.5,0,21-8.76,46.4,3,65.66a165,165,0,0,1-3,19.21,403.18,403.18,0,0,0-9,62.24c-1,14.39-1.64,28.73-2.06,43.11H0v221.2H2258.3V0ZM127.54,410.8H233.45c-2.62,10.4-3.65,21.09-13.21,27.7-8.72,6-20,6.56-21.66,19.07-1.07,8.15,4.5,12.51,7,19.12-.85-2.2-12.8,7.87-13.73,9.56-2.25,3.94-2.67,9.47-3.85,13.83a116.9,116.9,0,0,0-3.23,41.28c.05.28.05.52.09.8H127.54ZM249.9,792a256.91,256.91,0,0,0-28.59,7.26c-26.1,8.77-50.14,22.64-73.71,36.84-6.8,4.12-13.59,8.25-20.06,12.75V576h65.89a110.43,110.43,0,0,0,5.9,11.62c6.52,11.11,14.44,21.7,21.61,32.43,5.39,8,14.57,18,13.82,28.35-.89,11.72-8.71,16.17-17.48,21.42-4.87,3-5.43,1.55-5.15,7.31.51,10.87,16.54,25.26,26.76,26.67-4.55,10.17,13.4,17.29,21,18.79l3.24.56Zm22.4-415H127.54V91.52H272.3Zm683,216.23a37.45,37.45,0,0,1-4,7.36c-16.92,25-35.62,64.72-12.84,93,3.47,4.31,9.65,8.2,16.82,11.15v79.11a162.51,162.51,0,0,0-25,38.89c-14.62,31.36-23.9,67.86-30.13,101.79-3.47,18.61-6.66,37.49-8.82,56.33-2.34,20-5.9,40.16-7,60.13,0,.28,6.14.84,11.53,1.22,0,0,0,0,0,0-4.35,5-2.62,16.5-3.51,22.59-.28,2.25-.7,4.45-1.13,6.7a253,253,0,0,0-50.33,21.89c-14.38,8.15-30.55,19.35-35.75,35.8l-.14.57c-6.75,6-12.19,10.77-14.2,12.18-35.9,25.49-70.72,52.35-106,78.59-3.24-9.8-6.56-19.54-10.17-29.1,9.23-6.33,18.32-12.84,27.08-19.54,1.83-1.36,3.52-2.86,5.25-4.27q-15.53-40.43-34.25-79.43c-26.15-54.37-41.48-115.48-72.13-167.4-10.78-18.28-26-33.09-41.61-47.57-22.87-21.09-48.55-33.36-77.23-45-1.46-.57-3.61-1.69-6.19-3-4.31-2.25-17.72-7.88-29.57-12.05a138.91,138.91,0,0,0-18-8.67c-4.5-1.78-9-3.42-13.54-4.92-3.66-18.37-6.09-30.6-6.09-30.6l-3.52-19.87c.52.09,1,.19,1.55.23,7.78,1.27,15.6,2.11,23.43,2.63,5.16.33,11.81,1.31,16.73-.7,10.08-4.22,13.08-19,14.9-28.4.33-1.78.71-3.52,1.08-5.3a131.89,131.89,0,0,0,14.2,0c2.91-10.5,2.77-23.85.52-34.44-.42-.1-1-.24-1.64-.43.7-.14,1.5-.28,2.29-.37,7.41-.75,17.16-.28,23.86-4,7-3.94,2.11-15.14.65-21.23-4.5-18.51-8.43-37.12-12.79-55.63-2-8.34-2.49-17-3.05-25.49H955.29Zm-296.6-51.06V410.81h47.57V542.18Zm296.6-227.73h-249V377H658.69V166.92H541.44V377H473.3C456.48,358.36,428,341.3,401.83,348.8c-23.24,6.61-42.83,25.45-68.46,16.82V91.52H955.29Z" transform="translate(0 0.01)"/><rect class="cls-3" x="541.43" y="410.82" width="117.26" height="131.36"/><rect class="cls-3" x="541.43" y="166.91" width="117.26" height="210.13"/><polygon class="cls-3" points="955.31 314.48 706.26 314.48 706.26 377.04 1002.95 377.04 1002.95 314.48 955.31 314.48"/><path class="cls-3" d="M993.54,464.69c-6.8,15.19-30,12.52-40.59,25.73-13.68,17-9.23,34.31-3.37,51.74H706.26V410.8H990.49C981.16,430,1001.64,446.65,993.54,464.69Z" transform="translate(0 0.01)"/><rect class="cls-3" x="2130.68" y="314.48" width="127.62" height="62.56"/><rect class="cls-3" x="2000.4" y="314.45" width="69.26" height="62.56"/><rect class="cls-3" x="2130.68" y="410.82" width="127.62" height="131.36"/><rect class="cls-3" x="2000.43" y="410.82" width="69.22" height="131.36"/><rect class="cls-3" x="1459.03" y="200.43" width="105.35" height="176.58"/><rect class="cls-3" x="1459.04" y="410.82" width="105.37" height="129.54"/><path class="cls-3" d="M1709,540.33h-79.58V410.8h54.37a252.32,252.32,0,0,0-1.08,46C1684.78,486.25,1692,517.7,1709,540.33Z" transform="translate(0 0.01)"/><path class="cls-3" d="M1693.59,249.54c-11.58,13.12-21.28,31.59-19.41,49.58,1.46,13.78,8.68,19.31,17.06,29,4.13,4.73,6.24,10.54,8.16,16.49a282.66,282.66,0,0,0-9.75,32.43h-60.27V200.43h105.4v23.1C1718.8,227.28,1703.71,238.11,1693.59,249.54Z" transform="translate(0 0.01)"/><path class="cls-4" d="M1326.13,377c8.76,9.19,14.76,21.42,15.56,33.79h342.06a288.19,288.19,0,0,1,5.9-33.79Zm384.23,165.15H1289.15a28,28,0,0,1-5.62.42A170.37,170.37,0,0,1,1262,576h493.76l1-5.53A75.3,75.3,0,0,1,1710.36,542.16ZM2130.69,69.3h127.65V35.52H0V69.3H272.3V359.77A77.19,77.19,0,0,1,291.56,355c14.72-1.46,28,5.81,41.38,10.49l.43.14V69.3H1171v290a141.69,141.69,0,0,1,27.6,10.08,58.83,58.83,0,0,1,29.48-12.7,25.55,25.55,0,0,1,3.94.37V69.3h837.64V377H1947.35c-3.42,8.3-9.6,15.28-15.56,22.36a26.06,26.06,0,0,0-5.38,11.43h143.26V542.16H1878.32l6.52,33.79h373.5V542.16H2130.69V410.8h127.65V377H2130.69ZM473.3,377c.28.28.56.56.8.84a112.53,112.53,0,0,1,20,32.95H990.49a32.06,32.06,0,0,1,4.5-6.75c8-9.28,21.09-19.4,35.85-27Zm9.47,165.15c1.36,7.92,2.39,15.93,3.09,24,.28,3.28.52,6.56.7,9.84H958.15c-.42-11.25-4.78-22.54-8.57-33.79ZM0,377V410.8H233.45c.14-.61.28-1.26.47-1.87a119.3,119.3,0,0,1,8.53-22.87A63,63,0,0,1,248,377ZM0,542.16V576H193.43a106,106,0,0,1-8.58-33.79Z" transform="translate(0 0.01)"/><path class="cls-1" d="M894.37,1252.27c-2.52-10.22-4.82-20.46-6.74-30.72q-1.62-8.61-2.74-17.4c-9.18.34-18.38.14-27.46-.39-23,32.29-63.54,83.73-86.81,108.69-15.49,16.61-30.82,33.92-46.81,50.5H893.09C892.72,1341.43,892.51,1302,894.37,1252.27Z" transform="translate(0 0.01)"/><path class="cls-5" d="M912.16,1048.63c-1-1.84-1.89-3.71-2.74-5.63l-1.78-.11c-1.37-.08-2.8-.13-4.25-.19-.79,0-4-.24-7.54-.5l0,0c-4.37,5-2.63,16.49-3.5,22.59-.31,2.24-.7,4.47-1.12,6.7,6.11-1.86,12.27-3.43,18.44-4.66Q910.84,1057.77,912.16,1048.63Z" transform="translate(0 0.01)"/><path class="cls-5" d="M894.37,1252.27c.57-15.38,1.34-31.75,2.36-48.89q-5.9.55-11.84.77,1.13,8.77,2.74,17.4C889.55,1231.81,891.85,1242.05,894.37,1252.27Z" transform="translate(0 0.01)"/><path class="cls-6" d="M1019.32,594q-1.12-5-2.07-10.1a26.22,26.22,0,0,1-21.69-22.68,2.93,2.93,0,0,1,0-.41,2,2,0,0,1-.08-.42,111.46,111.46,0,0,1,.68-30.25c1-6.93,1.19-15.28,9.85-16.71,2.9-.48,5.73.26,8.57.86q.86-6.76,2.23-13.47c3.26-16,8.6-31.48,14.82-46.53,7-17,14.79-34.19,27-47.55.91,4.31,3,8.55,5.73,12.89,9.17,14.78,26.83,27.52,41.08,36.6,13.37,8.52,28.14,17.76,39.34,29,15,15,24,37.45,29.43,57.66q1.08,4,2,8c11.13,1.72,22.33,2.93,33.41,4.85,5.24.9,10.41,2,15.66,2.81,3.42.49,7.2,1,8.94,4.37s1.92,7.92,2.61,11.53c1.12,5.86,1.24,11.86,2.5,17.71.86,3.94-5.19,5.6-6,1.66-1.17-5.39-1.37-10.87-2.25-16.3-.32-2-.83-3.87-1.18-5.81-.3-1.59-.16-4.27-1.1-5.6-1.37-2-6.83-1.64-9.26-2.07-5.43-.94-10.8-2.19-16.26-3q-12.81-2-25.7-3.84,1.61,8.18,2.55,16.44c12.45-9.24,29.27-16.69,39.14-4.24,8.92,11.24-3.65,30.81-11.52,38.82-4,4.11-14.42,17.4-23.48,23.8-1.55,5.62-3.34,11.24-3.47,17-.13,5.28-.44,10.56-.73,15.83,15.49-24.72,37-44.06,58.62-64.09,17.14-15.86,34.29-36,44.94-58.17,23.5.5,50.26-26.91,56.72-46.79s5-38.61-10.68-53.21c38.61-38.43-23-109.19-63-69.74,8.43-8.32-35.14-16.51-38.53-16.11a58.67,58.67,0,0,0-29.47,12.67c-33.64-16.37-72.34-19.56-108.13-1.91-29.8-11.52-76.81,14.79-95.46,36.55-19,22.12,7.59,40.56-1.45,60.64-6.84,15.2-30,12.5-40.63,25.72-28.9,36,23.28,73.38-1.62,110.19-16.92,25-35.6,64.71-12.83,93,10.18,12.64,43.33,21.54,56.92,13.78-15.74-8.82-21.47-27.71-14.61-44.47,11.61-28.41,35.18-9.75,52.08-21.68-1.85-5.34-3.43-10.8-5.1-16.09C1024.53,614.88,1021.66,604.51,1019.32,594Z" transform="translate(0 0.01)"/><path class="cls-6" d="M1013.86,520.52c-.66-.12-1.31-.24-2-.38-2.62-.56-6.14-1.39-7.84,1.37-1.31,2.13-1.15,5.15-1.46,7.55-.43,3.35-1,6.67-1.24,10a102.82,102.82,0,0,0,.32,20.9c1.36,8.69,6.84,15,14.42,17.2A225.21,225.21,0,0,1,1013.86,520.52Z" transform="translate(0 0.01)"/><path class="cls-7" d="M907.64,1042.89l1.78.11c.85,1.92,1.77,3.79,2.74,5.63,15.48-107,43-218.42,91.61-298.45a109.63,109.63,0,0,0-11.58,4.92c-28.48,14.25-48.63,39.16-61.92,67.62-14.64,31.38-23.88,67.86-30.16,101.79-3.44,18.64-6.62,37.48-8.8,56.33-2.31,20-5.91,40.19-6.95,60.13,0,.3,6.14.83,11.49,1.23,3.55.26,6.75.46,7.54.5C904.84,1042.76,906.27,1042.81,907.64,1042.89Z" transform="translate(0 0.01)"/><path class="cls-6" d="M1247.94,758.75l19.43,12.73C1260.57,766.85,1253.87,762.6,1247.94,758.75Z" transform="translate(0 0.01)"/><path class="cls-7" d="M941.88,981.76l198.89,33.06s58.56-207.42,107.17-256.07c-16-10.39-31.84-20.36-48.2-30.08-4.11-2.44-8.1-5-12-7.48a51,51,0,0,0,2.75,4.34c6.49,5.87,12.82,12,19.14,18,10.17,9.74,17.1,13,4.07,24-20.94,17.69-40.89,35.65-63.57,51.16-45.25,30.93-94.94,55.75-146.47,74.37-.19-2.34-.33-4.74-.44-7.19-2.13-49.18,11.19-117.84,48.85-155.5-6.27,2.38-12.42,4.93-18.38,7.75-6.2,2.93-12.61,5.61-18.84,8.59C1004.24,768.22,946.82,888.86,941.88,981.76Z" transform="translate(0 0.01)"/><path class="cls-5" d="M1209.58,743.54c-6.32-6-12.65-12.14-19.14-18a51,51,0,0,1-2.75-4.34c-6.77-12-8.6-26.19-8.38-40.65.09-5.24.37-10.46.66-15.69s.6-10.55.73-15.83c.13-5.78,1.92-11.4,3.47-17,9.06-6.4,19.44-19.69,23.48-23.8,7.87-8,20.44-27.58,11.52-38.82-9.87-12.45-26.69-5-39.14,4.24q-.94-8.26-2.55-16.44-10.86-1.54-21.73-2.93c-.5,8.12-3.38,16.76-6.31,24.11-5.66,14.24-17.28,25.74-33.39,25.62-8.49-.06-18.62-1.55-25.89-6.17-6.52-4.15-9.2-11.17-10.72-18.42a86.86,86.86,0,0,1-.89-25.79,2.83,2.83,0,0,1-1.48-1.29l-.38-.65c-.06-.09-.23-.29-.3-.38l-.75-.77-.54-.47-.15-.1c-.42-.29-.86-.56-1.3-.81s-1-.49-1.43-.73l-.12-.06-.13-.05-.78-.29a23.25,23.25,0,0,0-3.39-.92l-.82-.14-.43-.05c-.55-.06-1.11-.09-1.66-.11s-1.08,0-1.62,0l-.79.07h-.09l-.11,0c-.49.11-1,.21-1.46.35l-.69.23-.1,0-.13.07-1.1.66-.21.18-.46.48a2.45,2.45,0,0,1-.67.53,74.21,74.21,0,0,1-3.78,11.81,7.78,7.78,0,0,1,7.06,1.7,6.93,6.93,0,0,1,2,4.81,7.38,7.38,0,0,1-2,4.8c-1,1.24-2,2.4-3.09,3.58-.48.53-1,1.07-1.43,1.62l-.49.59,0,0c-.44.65-.87,1.3-1.25,2l-.29.59a1.21,1.21,0,0,1-.05.14c-.11.34-.2.7-.28,1,0,.12-.06.28-.11.49v.64a4.09,4.09,0,0,1,.2.62l.15.25.71.72.48.31.82.45.14.06h0l.94.3a18.92,18.92,0,0,0,2,.45c3.74.68,5.5,5,4.74,8.36a7,7,0,0,1-3.12,4.06,7.37,7.37,0,0,1-5.23.68c-8-1.45-14.69-7.28-15.37-15.6a16.69,16.69,0,0,1,.66-5.93,31.1,31.1,0,0,1-20.09,6.28,30.71,30.71,0,0,1-3.5-.38q.94,5.07,2.07,10.1c2.34,10.49,5.21,20.86,8.45,31.11,1.67,5.29,3.25,10.75,5.1,16.09a106.24,106.24,0,0,0,5,12.18c3.16,6.34,6.05,12,10.57,17.46,3,3.56,6,7.49,9.84,10.12,5.39,3.69,12.91,2.33,18.87,1.08,3.22-.68,6.32-1.52,9.36-2.47-.19,1-.38,2.11-.55,3.17-2.34,14.28-11,23.6-20,35-.64.8-1.3,1.6-2,2.38A100.55,100.55,0,0,0,1052,730.39c-37.66,37.66-51,106.32-48.85,155.5.11,2.45.25,4.85.44,7.19,51.53-18.62,101.22-43.44,146.47-74.37,22.68-15.51,42.63-33.47,63.57-51.16C1226.68,756.54,1219.75,753.28,1209.58,743.54Z" transform="translate(0 0.01)"/><path class="cls-5" d="M1149.31,549.85c-1-1.83-4.57-2.47-6.29-3-3.68-1.2-7.43-2.19-11.2-3.06-7.88-1.82-15.86-3.28-23.8-4.79-4.06-.76-8.11-1.48-12.18-2.13-1.69-.26-6.22-1.87-7.72-1,0,0-.48,2.18-.61,3-.16,1-.29,1.92-.5,2.86-.86,4-1.72,7.92-2.19,12a78.86,78.86,0,0,0,.67,24.1c1.65,7.9,4.46,14,12.49,16.91,7,2.53,15.87,4,23.25,2.68,13.82-2.52,20.83-15.45,24.63-27.73a98.51,98.51,0,0,0,2.79-10.94C1149.09,556.38,1150.53,552.08,1149.31,549.85Z" transform="translate(0 0.01)"/><path class="cls-5" d="M1052.41,527.2c-2.12-1.45-5.52-1.8-8-2.36a157.36,157.36,0,0,0-22.54-3.37c-2.72-.23-5.39-.49-8-1a225.21,225.21,0,0,0,2.23,56.68,22.83,22.83,0,0,0,9.3.66c12.86-1.63,20.93-12.7,24.4-24.36a85.92,85.92,0,0,0,4-22C1053.8,529.81,1053.93,528.23,1052.41,527.2Z" transform="translate(0 0.01)"/><path class="cls-5" d="M1053.73,583.29h0v0Z" transform="translate(0 0.01)"/><path class="cls-5" d="M1053.65,582.94h0c0-.11.06-.21.08-.3h0C1053.7,582.73,1053.68,582.84,1053.65,582.94Z" transform="translate(0 0.01)"/><path class="cls-5" d="M1053.73,582.54v.09c0-.16.07-.32.11-.48C1054,581.51,1053.75,582,1053.73,582.54Z" transform="translate(0 0.01)"/><path class="cls-5" d="M1053.73,583.29v0a1.28,1.28,0,0,0,0,.18l.1.2,0,.1-.11-.34Z" transform="translate(0 0.01)"/><path class="cls-5" d="M1053.94,584l0,0a.74.74,0,0,1,0-.14l-.06-.09Z" transform="translate(0 0.01)"/><path class="cls-5" d="M1174.16,542.91c-5.45-20.21-14.46-42.63-29.43-57.66-11.2-11.24-26-20.48-39.34-29-14.25-9.08-31.91-21.82-41.08-36.6-2.7-4.34-4.82-8.58-5.73-12.89-12.19,13.36-19.95,30.54-27,47.55-6.22,15.05-11.56,30.55-14.82,46.53q-1.38,6.71-2.23,13.47a32.24,32.24,0,0,0,3.22.53c4.37.45,8.74.73,13.09,1.31,4.72.62,9.42,1.36,14.07,2.38,3.35.73,7,1.41,10.12,3,5.62,2.88,5.2,9,4.63,14.47q-.27,2.61-.66,5.25a24.53,24.53,0,0,1,20.68,4.46c.65-3.85,1.23-8.22,2.51-11.86,1.1-3.14,3.51-4.35,6.73-4.29,3.71.07,7.62,1.09,11.28,1.7,5,.82,9.91,1.76,14.85,2.73,9.93,1.95,20,3.67,29.62,6.8,4.53,1.47,8.81,3.14,10.44,7.13,6,.75,11.92,1.52,17.84,2.5l3.18.5Q1175.23,546.88,1174.16,542.91Z" transform="translate(0 0.01)"/><path class="cls-8" d="M1185.59,613.71l-1.15-.13-1.14.15-.34.09a4.84,4.84,0,0,0-1.26.59l-.82.65-.67.83-.57,1.21a5,5,0,0,0-.24,1.32l0,1,.19.94.08.19.09.54.42,1,.63.84.26.27.84.66,1,.44.23.07.92.12h.24l.91-.13,1-.38.14-.1a7.84,7.84,0,0,0,.72-.32l1.1-.81.85-1.05a6.42,6.42,0,0,0,.59-1.28,5.8,5.8,0,0,0,.24-1.36,5.56,5.56,0,0,0-.11-1.35v-.1l-.11-.83-.56-1.07-.56-.56-1.07-.57-.09,0-.06,0-.29-.22-.9-.39-.23-.07h0Z" transform="translate(0 0.01)"/><path class="cls-6" d="M1094,515.44c9.85,2.35,21.29,5.73,29.68,9.48a131,131,0,0,1,13.34,7.35c4.61,2.75,9.4,5.47,12.8,9.65,2.14,2.62,6.65,2.22,8.87,0,2.6-2.6,2.14-6.24,0-8.87-3.83-4.7-9.48-8.08-14.6-11.16A130.6,130.6,0,0,0,1130,514.1a188.74,188.74,0,0,0-32.67-10.75C1089.5,501.48,1086.16,513.56,1094,515.44Z" transform="translate(0 0.01)"/><path class="cls-6" d="M1026,511.05c1.94-.3,3.88-.6,5.82-.88l.14,0,1.38-.15c1-.11,2-.19,3-.25a95.64,95.64,0,0,1,14.75.49c3.27.32,6.41-3.1,6.27-6.27-.17-3.66-2.77-5.92-6.27-6.26a92.54,92.54,0,0,0-15.07-.47c-4.47.28-8.89,1-13.31,1.73a6.28,6.28,0,0,0-3.75,2.87,6.44,6.44,0,0,0-.63,4.84C1019.44,510.21,1022.52,511.6,1026,511.05Z" transform="translate(0 0.01)"/><path class="cls-8" d="M1111.69,612.29l-45.8.3c3,10.22,12.22,15,22.67,15.13C1099.61,627.83,1107.43,622.05,1111.69,612.29Z" transform="translate(0 0.01)"/><path class="cls-9" d="M1053.73,582.64c0-.21.09-.37.11-.49,0,.16-.07.32-.11.48Z" transform="translate(0 0.01)"/><path class="cls-9" d="M1040.84,578a16.69,16.69,0,0,0-.66,5.93c.68,8.32,7.41,14.15,15.37,15.6a7.37,7.37,0,0,0,5.23-.68,7,7,0,0,0,3.12-4.06c.76-3.33-1-7.68-4.74-8.36a18.92,18.92,0,0,1-2-.45l-.94-.3h0l-.14-.06-.82-.45-.48-.31-.71-.72-.15-.25a.74.74,0,0,0,0,.14l0,0-.07-.2,0-.1-.1-.2a1.28,1.28,0,0,1,0-.18v-.69c0,.09,0,.19-.08.3h0c0-.1,0-.21.08-.31v-.09c0-.53.24-1,.11-.39.08-.35.17-.71.28-1a1.21,1.21,0,0,0,.05-.14l.29-.59c.38-.69.81-1.34,1.25-2l0,0,.49-.59c.47-.55,1-1.09,1.43-1.62,1-1.18,2.11-2.34,3.09-3.58a7.38,7.38,0,0,0,2-4.8,6.93,6.93,0,0,0-2-4.81,7.78,7.78,0,0,0-7.06-1.7c-.16.38-.32.76-.49,1.14A39.38,39.38,0,0,1,1040.84,578Z" transform="translate(0 0.01)"/><path class="cls-9" d="M1053.76,583.47l.11.34.06.09a4.09,4.09,0,0,0-.2-.62h0Z" transform="translate(0 0.01)"/><path class="cls-6" d="M1045,538.82a5.83,5.83,0,0,0-4-4,5.73,5.73,0,0,0-5.61,1.48,12.78,12.78,0,0,0-3.07,6.84,26.64,26.64,0,0,0-.39,4.18l.09,1.2a16.78,16.78,0,0,0,.4,2.54,5.75,5.75,0,0,0,9.63,2.54l.24-.24a10.53,10.53,0,0,0,1.08-1.41,11.91,11.91,0,0,0,1-2.1,10.24,10.24,0,0,0,.51-1.74,5.9,5.9,0,0,0,.54-2.42c.07-1,.15-1.91.15-2.87a11.33,11.33,0,0,0-.07-1.3A14.26,14.26,0,0,0,1045,538.82Z" transform="translate(0 0.01)"/><path class="cls-6" d="M1114.06,558a21.92,21.92,0,0,0-.46-3.43l-.21-.75a12.45,12.45,0,0,0-.86-2,10.25,10.25,0,0,0-1.1-1.43l-.17-.17a8.32,8.32,0,0,0-1.39-1,5.33,5.33,0,0,0-1.55-.66,10,10,0,0,0-1.73-.24h-.1l-1.7.23-.09,0-1.59.66-.07.05-1.35,1-.19.19a12.31,12.31,0,0,0-2.42,4.29,24.58,24.58,0,0,0-.94,3.17,32.54,32.54,0,0,0-.7,4.51,13.55,13.55,0,0,0,.25,3.59l.18.67a8,8,0,0,0,1.35,2.55,5.66,5.66,0,0,0,2,1.86l.09.05,1.55.65,1,.16,1,.11a11.21,11.21,0,0,0,1.73-.22l.12,0,.21-.06a11.37,11.37,0,0,0,1.68-.73l.22-.14.18-.13a6.55,6.55,0,0,0,1.12-.86l.16-.14.44-.44a.1.1,0,0,1,0,0,6.86,6.86,0,0,0,.48-.59,9.51,9.51,0,0,0,1.21-1.83,15.33,15.33,0,0,0,1.17-3.06,24.3,24.3,0,0,0,.37-2.52l0-1,0-.61C1114.09,559.07,1114.09,558.5,1114.06,558Z" transform="translate(0 0.01)"/><path class="cls-8" d="M1142,1363h20.22q-2.92-18.83-5-37.34Q1149.55,1344.29,1142,1363Z" transform="translate(0 0.01)"/><path class="cls-6" d="M912.16,1048.63q-1.32,9.13-2.52,18.23l2.51-.49c6.74-1.25,54.48-6,51.07,8.77-.93,4-9.16,7.37-12.25,9-12.73,6.63-35.55,10.66-43.08,23.89,6.41,4.6,22.13,1.86,29.67.62A66.82,66.82,0,0,0,969.78,1094c8.58-7.15,14.89-17.4,24-23.79,7.85-5.51,17-11.09,27-10.77,17.28.55,5.12,20.76,3.25,29.84,24,4.16-2.61,33-11,42.43,18.66,7-27.36,38.09-32.13,40.79-9.75,5.54-20.18,9.93-30,15.33-16.76,9.28-35.26,13.82-54.16,15.6-1,17.14-1.79,33.51-2.36,48.89-1.86,49.76-1.65,89.16-1.28,110.68h180.34c17-88.76,36.64-179.15,62.4-265.33,4.3-14.39,8.41-28.8,12.5-43.2a11.13,11.13,0,0,1-1.6-1.34,4.91,4.91,0,0,1-1.2-2.42c-.71-3.39,1-8.15,1.7-11.34,7.32-36.18,23.23-71.57,36-106.07,9.83-26.53,21.78-53,36.62-77.18,5.83-9.48,12-18.79,18.58-27.75,16.61-36.49,29-56.76,29-56.81h0l-.05,0-19.43-12.73c-48.61,48.65-107.17,256.07-107.17,256.07L941.88,981.76c4.94-92.9,62.36-213.54,72.92-235,1.08-2.18,1.67-3.34,1.67-3.34l-11.85,5.38-.85,1.41C955.18,830.21,927.64,941.65,912.16,1048.63Z" transform="translate(0 0.01)"/><path class="cls-5" d="M1217.73,1173.83c11.18-29.44,23.37-58.55,35.5-87.64l-2.39-.51a337.36,337.36,0,0,1-40-11.92c-13.16-4.75-26.3-9.76-39.84-13.36-6.13-1.63-16.91-2-22.63-6-4.09,14.4-8.2,28.81-12.5,43.2-25.76,86.18-45.41,176.57-62.4,265.33H1142q7.59-18.66,15.23-37.34C1177.81,1275.15,1198.46,1224.59,1217.73,1173.83Z" transform="translate(0 0.01)"/><path class="cls-7" d="M1219.85,856.07c-14.84,24.13-26.79,50.65-36.62,77.18-12.77,34.5-28.68,69.89-36,106.07-.65,3.19-2.41,8-1.7,11.34a4.91,4.91,0,0,0,1.2,2.42,11.13,11.13,0,0,0,1.6,1.34c5.72,4,16.5,4.35,22.63,6,13.54,3.6,26.68,8.61,39.84,13.36a337.36,337.36,0,0,0,40,11.92l2.39.51c-12.13,29.09-24.32,58.2-35.5,87.64-19.27,50.76-39.92,101.32-60.54,151.78q2.07,18.51,5,37.34h111.64c-.72-4.49-1.46-9.15-1.89-13.86-4.11-45-8.67-90-14.76-134.82-3.84-28.29-8.19-56.07-3.75-83.26q.39-2.38.87-4.77c2.59-12.76,5.41-25.53,8.35-38.31,5.66,1,11.12,2.19,16.24,4.45,13.53-40.09,22-82.59,33.45-123.42,10.27-36.58,20.27-79.93,18-118.06-1.62-26.69-15.42-53.1-41.29-62.94a219.66,219.66,0,0,0-21.57-16.45s-12.38,20.32-29,56.81C1231.82,837.28,1225.68,846.59,1219.85,856.07Z" transform="translate(0 0.01)"/><path class="cls-10" d="M1219.44,564.05c2.43.43,7.89.11,9.26,2.07.94,1.33.8,4,1.1,5.6.35,1.94.86,3.85,1.18,5.81.88,5.43,1.08,10.91,2.25,16.3.85,3.94,6.9,2.28,6-1.66-1.26-5.85-1.38-11.85-2.5-17.71-.69-3.61-.91-8.24-2.61-11.53s-5.52-3.88-8.94-4.37c-5.25-.77-10.42-1.91-15.66-2.81-11.08-1.92-22.28-3.13-33.41-4.85l-3.18-.5c-5.92-1-11.88-1.75-17.84-2.5-1.63-4-5.91-5.66-10.44-7.13-9.65-3.13-19.69-4.85-29.62-6.8-4.94-1-9.88-1.91-14.85-2.73-3.66-.61-7.57-1.63-11.28-1.7-3.22-.06-5.63,1.15-6.73,4.29-1.28,3.64-1.86,8-2.51,11.86a24.53,24.53,0,0,0-20.68-4.46q.39-2.64.66-5.25c.57-5.47,1-11.59-4.63-14.47-3.09-1.57-6.77-2.25-10.12-3-4.65-1-9.35-1.76-14.07-2.38-4.35-.58-8.72-.86-13.09-1.31a32.24,32.24,0,0,1-3.22-.53c-2.84-.6-5.67-1.34-8.57-.86-8.66,1.43-8.82,9.78-9.85,16.71a111.46,111.46,0,0,0-.68,30.25,2,2,0,0,0,.08.42,2.93,2.93,0,0,0,0,.41,26.22,26.22,0,0,0,21.69,22.68,30.71,30.71,0,0,0,3.5.38,31.1,31.1,0,0,0,20.09-6.28,39.38,39.38,0,0,0,12.35-15.63c.17-.38.33-.76.49-1.14a74.21,74.21,0,0,0,3.78-11.81,2.45,2.45,0,0,0,.67-.53l.46-.48.21-.18,1.1-.66.13-.07.1,0,.69-.23c.48-.14,1-.24,1.46-.35l.11,0h.09l.79-.07q.81,0,1.62,0c.55,0,1.11.05,1.66.11l.43.05.82.14a23.25,23.25,0,0,1,3.39.92l.78.29.13.05.12.06c.48.24,1,.46,1.43.73s.88.52,1.3.81l.15.1.54.47.75.77c.07.09.24.29.3.38l.38.65a2.83,2.83,0,0,0,1.48,1.29,86.86,86.86,0,0,0,.89,25.79c1.52,7.25,4.2,14.27,10.72,18.42,7.27,4.62,17.4,6.11,25.89,6.17,16.11.12,27.73-11.38,33.39-25.62,2.93-7.35,5.81-16,6.31-24.11q10.88,1.38,21.73,2.93,12.88,1.85,25.7,3.84C1208.64,561.86,1214,563.11,1219.44,564.05Zm-194,13.81a22.83,22.83,0,0,1-9.3-.66c-7.58-2.2-13.06-8.51-14.42-17.2a102.82,102.82,0,0,1-.32-20.9c.28-3.37.81-6.69,1.24-10,.31-2.4.15-5.42,1.46-7.55,1.7-2.76,5.22-1.93,7.84-1.37.66.14,1.31.26,2,.38,2.66.46,5.33.72,8,1a157.36,157.36,0,0,1,22.54,3.37c2.44.56,5.84.91,8,2.36,1.52,1,1.39,2.61,1.34,4.34a85.92,85.92,0,0,1-4,22C1046.32,565.16,1038.25,576.23,1025.39,577.86Zm123.26-19.22a98.51,98.51,0,0,1-2.79,10.94c-3.8,12.28-10.81,25.21-24.63,27.73-7.38,1.34-16.27-.15-23.25-2.68-8-2.93-10.84-9-12.49-16.91a78.86,78.86,0,0,1-.67-24.1c.47-4.07,1.33-8,2.19-12,.21-.94.34-1.9.5-2.86.13-.78.62-3,.61-3,1.5-.84,6,.77,7.72,1,4.07.65,8.12,1.37,12.18,2.13,7.94,1.51,15.92,3,23.8,4.79,3.77.87,7.52,1.86,11.2,3.06,1.72.56,5.31,1.2,6.29,3C1150.53,552.08,1149.09,556.38,1148.65,558.64Z" transform="translate(0 0.01)"/><path class="cls-10" d="M1432.85,1045.14c-15.46,6.34-29.34,16.85-30.86,35-.44,5.25,3.34,10.25,3.27,14.71-.07,4-3.85,8.19-5.47,11.85-2.8,6.34-5.16,12.33-4.19,19.41.82,6.08,4.69,7,6.62,11.51,4.56,10.65-2.54,21.36,4.6,31.76a48.38,48.38,0,0,0,22.85,17.9c0-38,.83-76,2.12-113.88C1432.11,1064,1432.42,1054.56,1432.85,1045.14Z" transform="translate(0 0.01)"/><path class="cls-10" d="M1584.35,1032.53c-1.87,16.75,1.22,33.41,4.32,50q3.6-32.22,7.66-61.73c-2.57-1.29-5.14-2.62-7.68-4A54.31,54.31,0,0,0,1584.35,1032.53Z" transform="translate(0 0.01)"/><path class="cls-7" d="M1557.6,989a31.33,31.33,0,0,1,2.28,5.71q6.9-.68,13.84-1.21c8.75-.66,17.64-.79,26.61-.69,32.54-217.91,80.53-319.37,96.15-347.93-1.46.72-2.85,1.44-4.14,2.11-2.29,1.19-4.24,2.2-5.49,2.7-25.49,10.33-48.31,21.25-68.61,40-13.93,12.86-27.4,26-37,42.26-27.23,46.13-40.84,100.4-64,148.7q-16.62,34.62-30.45,70.56c1.55,1.26,3,2.59,4.65,3.8,7.59,5.81,15.41,11.43,23.39,16.88C1531.23,971.51,1550,974.23,1557.6,989Z" transform="translate(0 0.01)"/><path class="cls-6" d="M1596.33,1020.76q1.61-11.73,3.27-23.06c-4.08,6.18-8,12.37-10.95,19.09C1591.19,1018.14,1593.76,1019.47,1596.33,1020.76Z" transform="translate(0 0.01)"/><path class="cls-7" d="M1930.71,1242.32c6.09,53.27,12.16,96.15,15.84,120.63h98.55c2.3-12-1.61-37.07-1.61-44.33,0-36.34-.37-72.73-.42-109.12-15.37,5.1-30.84,9.85-46,14.84C1980.82,1229.7,1955.72,1236.36,1930.71,1242.32Z" transform="translate(0 0.01)"/><path class="cls-7" d="M1915.1,835.76c1.05,14.19,2.79,28.3,4.94,42a462,462,0,0,0,32,111.64c3.44,7.95-8.27,14.85-11.73,6.85a473.42,473.42,0,0,1-22.94-65.68q-3.23-12-5.76-24.17c-1.66,76.75,2.62,158.89,8.85,233.08,27.18-14.64,54.35-29.23,81-44.77,4.85-2.83,9.91-5.8,15.1-8.78-8.11-19.33-15-39.12-21.89-59-3.3-9.55-9.31-25.44-14.79-43.1,33.59-8.16,66.76-18.17,99.4-29,9.3-3.09,26.79-4.66,38.48-10.25,5.08-2.44,9.07-5.63,10.8-10,5.67-14.44-9-39.74-13.3-53.27-6.32-19.68-11.88-39.88-18.78-59.24-10.94-30.7-25.22-60.75-37.2-90.75-6.76-16.9-18.67-34-34.84-43.2-11.15-13.27-25.9-22.52-40.81-31.51q-7.71-4.65-15.64-9.18l.06,0C1937.42,685.24,1921.67,754.38,1915.1,835.76Z" transform="translate(0 0.01)"/><path class="cls-7" d="M1650.85,916,1871,944.21c8.43-186.27,63.24-291.29,73.53-309.48a401.39,401.39,0,0,0-52.8-22.77l1.86,9.7c-24,30.25-178.59,154-176.49,146.9,1.61-5.45,21.18-102.82,30.31-148.37-9.12,4.82-18.12,10-27.19,15.25C1686.82,710.05,1650.85,916,1650.85,916Z" transform="translate(0 0.01)"/><path class="cls-10" d="M1717.36,443l.46.4h0Z" transform="translate(0 0.01)"/><path class="cls-10" d="M1717.89,443.48l-.06,0,.2.17C1718.75,444.23,1718.29,443.75,1717.89,443.48Z" transform="translate(0 0.01)"/><path class="cls-10" d="M1714.58,442.31l-.41.08A1.82,1.82,0,0,0,1714.58,442.31Z" transform="translate(0 0.01)"/><path class="cls-10" d="M1709.45,444.5l.19-.11,0,0A1.64,1.64,0,0,1,1709.45,444.5Z" transform="translate(0 0.01)"/><path class="cls-10" d="M1710.32,443.94a5,5,0,0,0-.65.42Z" transform="translate(0 0.01)"/><path class="cls-10" d="M1869.65,496.94l.22-.39c5.74-10.19,11.81-20.49,17.71-30.95-1.34,1.06-2.65,2.14-3.95,3.21.76-.92,1.46-1.77,2.08-2.5,7.26-8.57,18.35-29,8.62-39.57-13.4-14.54-35.26,2.46-46.38,14.55-2.49-10.55-3.13-21.51-.37-32.1,3.21-12.32,9-23.2,9.62-36.18.49-10.53-1-23.18-9.27-30.66a23.73,23.73,0,0,0-14.57-5.77c-6.76-.39-12.78,4-19.56,1.5-6.16-2.26-10.23-7.25-10.36-13.81-5.42,19.88,20.71,38.26,34.61,21.19-3.4,11.07-2.5,21.79-12.15,29.8-6.65,5.53-17.92,8.13-26.32,9.63a97.63,97.63,0,0,1-12.31,1.15c-10.45.5-20.83-.81-31.28-1.13-16.84-.5-38.94-8.23-49.09-22.74-3.68-5.26-5.5-11.48-7.49-17.6-13.11,35.42-19.35,75.64-16.76,112.24,3.47,48.88,21,103.48,74.08,113.62L1752,597s-1.83,9.12-4.64,23.15c-9.13,45.55-28.7,142.92-30.31,148.37-2.1,7.12,152.47-116.65,176.49-146.9l-1.86-9.7Z" transform="translate(0 0.01)"/><path class="cls-11" d="M1756,384.91c10.45.32,20.83,1.63,31.28,1.13a97.63,97.63,0,0,0,12.31-1.15c8.4-1.5,19.67-4.1,26.32-9.63,9.65-8,8.75-18.73,12.15-29.8-13.9,17.07-40-1.31-34.61-21.19.13,6.56,4.2,11.55,10.36,13.81,6.78,2.48,12.8-1.89,19.56-1.5a23.73,23.73,0,0,1,14.57,5.77c8.32,7.48,9.76,20.13,9.27,30.66-.59,13-6.41,23.86-9.62,36.18-2.76,10.59-2.12,21.55.37,32.1,11.12-12.09,33-29.09,46.38-14.55,9.73,10.55-1.36,31-8.62,39.57-.62.73-1.32,1.58-2.08,2.5,1.3-1.07,2.61-2.15,3.95-3.21s3-2.27,4.52-3.36c11.36-7.91,22.46-17.09,29.15-29.48,6-11.2,1.94-23.08,10.52-33.4,8.81-10.6,18.32-20.8,18.26-35.69,0-11.14-6.4-23.62-17.87-26.28,2.24-5.9,7.19-9.74,6.21-17-1.51-11.11-11.5-11.58-19.21-16.92-9-6.23-9.5-16.5-12.19-26.27a108,108,0,0,0-7.55-20.32,49.68,49.68,0,0,0-10.2-14c-8-7.4-22.76-12.55-33.46-13.62-13.06-1.31-24.84,5.18-36.73,9.3-23,8-40.44-8.87-61.22-14.81-23.54-6.73-49.28,8.94-64.2,25.8-11.61,13.12-21.28,31.55-19.4,49.58,1.43,13.78,8.65,19.29,17,28.95,4.12,4.73,6.21,10.56,8.15,16.48,2,6.12,3.81,12.34,7.49,17.6C1717.05,376.68,1739.15,384.41,1756,384.91Z" transform="translate(0 0.01)"/><path class="cls-11" d="M1771.55,420.47a15.15,15.15,0,0,0,8.85,3.89c5.78,1,11.29,3.17,16.73,5.36,4.58,1.86,9.24,3.54,13.82,5.4a43,43,0,0,1,4,2c.62.35,1.2.73,1.78,1.12l.36.34c5.19,4.85,14.14,5.53,19.21,0,4.84-5.28,5.55-14,0-19.22-7.41-6.92-16.87-9.88-26.11-13.49-4.16-1.63-8.24-3.41-12.44-4.92a70.34,70.34,0,0,0-16.6-3.69c-3.25-.34-7.39,1.76-9.61,4a13.58,13.58,0,0,0,0,19.21Z" transform="translate(0 0.01)"/><path class="cls-11" d="M1704.46,415.58c3.12-.46,6.22-1.07,9.33-1.57a39,39,0,0,1,6.48-.17,25.41,25.41,0,0,1,3.69,1.06c3.15,1.15,7.67.26,10.47-1.38a13.84,13.84,0,0,0,6.24-8.12c.79-3.47.62-7.37-1.37-10.46a15.3,15.3,0,0,0-8.12-6.25c-11.2-4.1-22.64-1-33.94.69-3.13.46-6.6,3.65-8.12,6.24a13.59,13.59,0,0,0,4.87,18.59l3.25,1.37A13.61,13.61,0,0,0,1704.46,415.58Z" transform="translate(0 0.01)"/><path class="cls-12" d="M1709.64,444.39c.86-.52.9-.57.68-.45l-.65.42Z" transform="translate(0 0.01)"/><path class="cls-12" d="M1717.82,443.44l.21.18-.2-.17Z" transform="translate(0 0.01)"/><path class="cls-12" d="M1767.53,465a6.91,6.91,0,0,0,9.29-2.43c.54-.91,1.12-1.78,1.71-2.66a1,1,0,0,1,.08-.11l1-1.15a24.78,24.78,0,0,1,2-2c.18-.16.69-.54.79-.63l.44-.3c.55-.36,1.76-1.36,2.4-1.34l-.48.19.71-.26c.48-.16,1-.3,1.45-.42l1.11-.24h.13a20.66,20.66,0,0,1,2.65-.11s.08.13.59.25,1,.25,1.49.41l.55.18c.32.16.63.31.94.49a14.43,14.43,0,0,1,1.36.82l.63.45.72.63,1,1,.61.7c0,.09.52.73.61.87a15.34,15.34,0,0,1,.94,1.68c0,.06.29.75.37,1,.15.51.26,1,.38,1.52,0,0,0,.08,0,.11v.16c0,.53,0,1.05,0,1.57a6.84,6.84,0,0,0,6.79,6.8,6.93,6.93,0,0,0,6.79-6.8c.48-11.72-9.3-23-20.79-24.87-12.22-1.95-22.59,5-28.63,15.24C1763.29,458.76,1764.29,463.28,1767.53,465Z" transform="translate(0 0.01)"/><path class="cls-12" d="M1771,539.26a29.3,29.3,0,0,0,16,3.15,27.85,27.85,0,0,0,15.74-6.15c4.13-3.39,6.76-8.11,8.55-13.06,1.21-3.35-1.36-7.58-4.75-8.36a7,7,0,0,0-8.35,4.75,8.88,8.88,0,0,0-.36.92l-.27.57a22.32,22.32,0,0,1-1.36,2.37c-.05.07-.11.19-.18.32l-.66.78a24.35,24.35,0,0,1-1.86,1.8h0l-.12.07-1,.63-1,.57-.65.31c-.46.21-.29.14.51-.22-.44.47-2,.67-2.62.81-.42.1-.84.18-1.27.27l-.11,0h-.2c-.9,0-1.8.11-2.7.09-.54,0-1.07,0-1.6-.06l-.78-.08c-.52,0-.35,0,.52.08a7.91,7.91,0,0,1-2.5-.55c-.48-.14-.95-.31-1.43-.47l-.08,0-.11-.07c-.72-.4-1.42-.79-2.12-1.23l-.1-.06-.07-.07-.89-.85-.45-.49c.41.44-.33-.38-.52-.68s-.54-.89-.78-1.35-.76-1.82-.19-.36c-1.28-3.3-4.61-5.95-8.35-4.74-3.21,1-6.13,4.81-4.75,8.35C1762.16,531.75,1765.65,536.47,1771,539.26Z" transform="translate(0 0.01)"/><path class="cls-12" d="M1756.87,510.92c-1.07-3.92-4.71-5.26-8.35-4.75-4.15.58-13.85,1.94-16.88-2-1.31-1.72-.93-4.57-.65-6.57.55-3.91,1.4-7.81,2.07-11.7,1.46-8.54,3.17-17.13,5.23-25.54,1.75-7.21,4.48-14.26,4.65-21.77.17-7.93-11-8.67-13.2-2.23a20.71,20.71,0,0,0-5.21-4.71c-5.73-3.64-12.71-3.37-18.73-.7a23.55,23.55,0,0,0-8.39,6.59,7.28,7.28,0,0,0-2,4.8,6.93,6.93,0,0,0,2,4.81c2.49,2.28,7.2,2.93,9.61,0a20.85,20.85,0,0,1,1.73-1.91l.84-.78.05,0-.19.11a1.64,1.64,0,0,0,.22-.14,5,5,0,0,1,.65-.42,9.93,9.93,0,0,1,.91-.58l.7-.37c.53-.18,1-.35,1.6-.48l.38-.07a13.83,13.83,0,0,1,1.44,0l.59.14.71.21c.4.21.79.42,1.17.66l-.46-.4.47.41.06,0c.4.27.86.75.14.14l.12.1c.46.44.86.92,1.28,1.39-1.64-1.84-.16-.13.2.5l.43.85c.21.61.42,1.22.57,1.85.11.44.2.88.28,1.33,0,0,0,.06,0,.08a7.25,7.25,0,0,0,2,4.67,7.13,7.13,0,0,0,2.53,1.59q-.95,3.76-1.73,7.57c-2.09,10.22-4.18,20.42-5.84,30.72-1.36,8.44-.32,17.19,7.52,22.15s18.06,4.07,26.75,2.85C1755.76,518.76,1757.75,514.12,1756.87,510.92Zm-42.7-68.53.41-.08A1.82,1.82,0,0,1,1714.17,442.39Z" transform="translate(0 0.01)"/><path class="cls-10" d="M1979.94,983.91c5.48,17.66,11.49,33.55,14.79,43.1,6.85,19.84,13.78,39.63,21.89,59-5.19,3-10.25,6-15.1,8.78-26.7,15.54-53.87,30.13-81,44.77-22.91,12.33-45.81,24.7-68.42,37.69-1,.59-3.22,1.61-6.19,2.94-9.63-4.1-20.92-5.16-30.95-5.46-22.28-.65-45.93,1.72-67.24,8.39-5.81,1.81-45.27,17.92-36.45,28.09,2.37,2.74,10.24,2,13.34,2,12.75-.08,32.35-6.4,43.75.87-3.12,6.26-16.6,10.64-23,12.81a59.44,59.44,0,0,1-31.41,1.85c-9.71-2.05-18.92-7.48-28.73-8.71-8.45-1.07-18-1.64-25.67,2.75-13.35,7.62,4.59,18.43,9.85,24.79-17.11,13.22,15.77,24.87,26.29,28.73-11.73,13.28,37.31,18.54,42.18,18.69,10,.29,20-.59,29.89-.41,30.12.56,58.37-12.78,83.4-28.34,3.05-1.9,8.4-5.63,14.28-10.11,15.9-2.62,40.58-7.84,65.35-13.74,25-6,50.11-12.62,66.37-18,15.15-5,30.62-9.74,46-14.84,28-9.31,55.76-19.77,80.64-35,21.59-13.24,28.43-34.57,24.76-57.22-.82-8.92-3.08-17.93-3.95-23.38-2.17-13.58-4-27.2-6.28-40.78-4.53-27.31-8.63-55.38-15.58-82.15-2.1-8.06-3.09-17.3-4.84-26.27-11.69,5.59-29.18,7.16-38.48,10.25C2046.7,965.74,2013.53,975.75,1979.94,983.91Z" transform="translate(0 0.01)"/><path class="cls-13" d="M1940.32,996.29c3.46,8,15.17,1.1,11.73-6.85a462,462,0,0,1-32-111.64c-2.15-13.74-3.89-27.85-4.94-42-1.84,22.75-2.95,46.45-3.48,70.68q2.55,12.15,5.76,24.17A473.42,473.42,0,0,0,1940.32,996.29Z" transform="translate(0 0.01)"/><path class="cls-6" d="M1946.55,1363c-3.68-24.48-9.75-67.36-15.84-120.63-24.77,5.9-49.45,11.12-65.35,13.74-5.88,4.48-11.23,8.21-14.28,10.11-25,15.56-53.28,28.9-83.4,28.34-9.92-.18-19.94.7-29.89.41-4.87-.15-53.91-5.41-42.18-18.69-10.52-3.86-43.4-15.51-26.29-28.73-5.26-6.36-23.2-17.17-9.85-24.79,7.7-4.39,17.22-3.82,25.67-2.75,9.81,1.23,19,6.66,28.73,8.71a59.44,59.44,0,0,0,31.41-1.85c6.43-2.17,19.91-6.55,23-12.81-11.4-7.27-31-1-43.75-.87-3.1,0-11,.77-13.34-2-8.82-10.17,30.64-26.28,36.45-28.09,21.31-6.67,45-9,67.24-8.39,10,.3,21.32,1.36,30.95,5.46,3-1.33,5.17-2.35,6.19-2.94,22.61-13,45.51-25.36,68.42-37.69-6.23-74.19-10.51-156.33-8.85-233.08.53-24.23,1.64-47.93,3.48-70.68,6.57-81.38,22.32-150.52,53-188.22l-.06,0-21.87-15.62s-.59,1-1.66,2.85c-10.29,18.19-65.1,123.21-73.53,309.48L1650.85,916s36-206,69.36-280.6q1.9-4.25,3.79-7.91l-22.41,8.6s-1.85,2.79-5.11,8.75c-15.62,28.56-63.61,130-96.15,347.93l2.49,0-3.22,4.85q-1.66,11.32-3.27,23.06-4,29.54-7.66,61.73c1.35,7.24,2.71,14.45,3.65,21.65,6.79,51.71,16.13,103.47,21.49,155.31,1,9.55,5.26,25.44,2.18,34.67-5.62,16.87-24.24,24.66-44.61,28.39q-.74,19.88-1.29,40.44Z" transform="translate(0 0.01)"/><path class="cls-14" d="M1559.88,994.71a31.33,31.33,0,0,0-2.28-5.71c-7.56-14.77-26.37-17.49-42.82-17.12-5.11.12-10,.53-14.23,1-14.16,1.48-28.6,4.89-41.29,11.45-6.33,3.28-12.35,7.47-16.88,13-1.1,1.35-8.54,10.2-7.63,17.81v.05c0-.21,0-.42,0-.62C1476.46,1007.35,1517.64,998.9,1559.88,994.71Z" transform="translate(0 0.01)"/><path class="cls-15" d="M1616,1294.12c3.08-9.23-1.19-25.12-2.18-34.67-5.36-51.84-14.7-103.6-21.49-155.31-.94-7.2-2.3-14.41-3.65-21.65-3.1-16.55-6.19-33.21-4.32-50a54.31,54.31,0,0,1,4.3-15.74c2.9-6.72,6.87-12.91,10.95-19.09l3.22-4.85-2.49,0c-9-.1-17.86,0-26.61.69q-6.95.53-13.84,1.21c-42.24,4.19-83.42,12.64-125.07,19.86,0,.2,0,.41,0,.62-.88,10-1.46,20-1.91,30-.43,9.42-.74,18.84-1.06,28.24-1.29,37.92-2.15,75.92-2.12,113.88v1.48c0,31-1.65,62.19-1.57,92.9.06,24.57,5.17,33.06,29.31,39,19.66,4.86,40.8,6.44,61,5.71,12.88-.47,33.69-.35,53-3.87C1591.75,1318.78,1610.37,1311,1616,1294.12Zm-151.36.83c-.15,8.07-12.69,8.07-12.54,0,.37-20.35-.18-40.68-.38-61s.58-40.39.47-60.59c-.21-40.76-1.93-81.55-3.87-122.26-.38-8.08,12.16-8,12.54,0,1.94,40.71,3.66,81.5,3.87,122.26.11,20.2-.67,40.39-.47,60.59S1465,1274.6,1464.63,1295Zm67.72,0c-.35,8-12.89,8.06-12.54,0,.44-10.32-1.29-20.46-2.72-30.64-1.46-10.39-2.24-20.83-3.1-31.29-1.79-21.74-5.87-43.1-7.9-64.78-2.06-22-4.88-43.86-7.34-65.8-2.26-20-6.57-39.88-7.76-60-.47-8.07,12.07-8,12.54,0,1.19,20.11,5.5,40,7.75,60,2.47,22,5.28,43.81,7.35,65.8,2,21.67,6.11,43,7.9,64.78.88,10.72,1.7,21.41,3.24,32.06C1531.2,1275,1532.77,1285,1532.35,1295Zm55.77-8.76c-4.65-6.87-4.32-15.48-4.71-23.43-.51-10.37-2.82-20.69-4.29-31-3.24-22.52-6.73-45-10.73-67.4-4-22.17-8.19-44.29-12.06-66.47-1.87-10.73-3.56-21.46-6-32.08-2.28-9.93-4.58-19.92-4.62-30.17,0-8.08,12.5-8.06,12.54,0,0,10.56,2.82,20.69,5.1,30.92,2.25,10,3.69,20.16,5.46,30.25,3.77,21.43,7.84,42.8,11.67,64.22,3.87,21.63,7.26,43.35,10.4,65.11,1.42,9.84,3.24,19.63,4.43,29.49.91,7.51-.77,17.68,3.64,24.19C1603.49,1286.6,1592.62,1292.87,1588.12,1286.22Z" transform="translate(0 0.01)"/><path class="cls-14" d="M1599,1279.89c-4.41-6.51-2.73-16.68-3.64-24.19-1.19-9.86-3-19.65-4.43-29.49-3.14-21.76-6.53-43.48-10.4-65.11-3.83-21.42-7.9-42.79-11.67-64.22-1.77-10.09-3.21-20.25-5.46-30.25-2.28-10.23-5.06-20.36-5.1-30.92,0-8.06-12.57-8.08-12.54,0,0,10.25,2.34,20.24,4.62,30.17,2.44,10.62,4.13,21.35,6,32.08,3.87,22.18,8.09,44.3,12.06,66.47,4,22.4,7.49,44.88,10.73,67.4,1.47,10.27,3.78,20.59,4.29,31,.39,8,.06,16.56,4.71,23.43C1592.62,1292.87,1603.49,1286.6,1599,1279.89Z" transform="translate(0 0.01)"/><path class="cls-14" d="M1526.53,1233.05c-1.79-21.74-5.87-43.11-7.9-64.78-2.07-22-4.88-43.85-7.35-65.8-2.25-20-6.56-39.89-7.75-60-.47-8-13-8.07-12.54,0,1.19,20.12,5.5,40,7.76,60,2.46,21.94,5.28,43.81,7.34,65.8,2,21.68,6.11,43,7.9,64.78.86,10.46,1.64,20.9,3.1,31.29,1.43,10.18,3.16,20.32,2.72,30.64-.35,8.06,12.19,8,12.54,0,.42-10-1.15-20-2.58-29.87C1528.23,1254.46,1527.41,1243.77,1526.53,1233.05Z" transform="translate(0 0.01)"/><path class="cls-14" d="M1464.72,1173.34c-.21-40.76-1.93-81.55-3.87-122.26-.38-8-12.92-8.08-12.54,0,1.94,40.71,3.66,81.5,3.87,122.26.11,20.2-.66,40.39-.47,60.59s.75,40.67.38,61c-.15,8.07,12.39,8.07,12.54,0,.37-20.35-.18-40.68-.38-61S1464.83,1193.54,1464.72,1173.34Z" transform="translate(0 0.01)"/><path class="cls-16" d="M2088.33,1572.49l-.22,0q0,8.74-.05,17.5-.54,182.63.42,365.26c0,7.51-11.6,7.49-11.64,0q-.28-50.68-.43-101.36-.42-139.89.05-279.78c-39.44,7.13-74.13,29.66-111.36,43.62-40.82,15.31-86.19,31-130.74,38.14q.2,149.7-.51,299.38c0,7.51-11.68,7.5-11.64,0q.24-50.68.38-101.36.26-98.19.13-196.36-10.5,1.31-20.87,1.87c-43.87,2.31-83.89-9-125.83-19-27.09-6.44-55.58-18.37-80.75-33.25q.39,174-.42,348.11c0,7.51-11.68,7.5-11.64,0q.24-50.68.37-101.36.35-127,0-254-6.48-4.25-12.53-8.72c-29.3-21.71-61.78-57.89-102.79-45.21-44.16,13.65-85.82,31.36-126.84,49.57q1.4,179.88-1.23,359.74c-.11,7.5-11.75,7.5-11.64,0q.76-50.68,1.18-101.36,1-126.6.08-253.21c-75.51,33.74-149.48,68.06-233.68,80.66q-5.7.54-11.17.6-.12,136.66.6,273.31c.05,7.51-11.6,7.49-11.64,0q-.27-50.68-.43-101.36-.26-86.19-.17-172.36c-88.5-7.32-134.91-108.56-210.85-145.62-10.44-4.84-20.88-2.68-31.32,2q.09,26,.16,52.09.49,182.63-.38,365.26c0,7.51-11.68,7.5-11.64,0q.24-50.68.38-101.36.42-155-.14-310c-7.33,4.14-14.65,8.68-22,12.08-64.9,47.86-139.86,93.39-215.28,103.23,2.22,37.59-2.66,76-3.7,113.19q-.29,10.21-.7,20.44-.36,81.23-1.57,162.42c-.1,6.46-8.74,7.35-11.07,2.7q-1.77,17.32-3.6,34.65H2258.32V1622.72C2201.41,1605.84,2150.23,1566.61,2088.33,1572.49Z" transform="translate(0 0.01)"/><path class="cls-17" d="M579.92,1556.44c.15,28.67,8,62.47,4.07,90.57a26.35,26.35,0,0,0-2.55,1.13c.37,3.68.65,7.38.87,11.09,75.42-9.84,150.38-55.37,215.28-103.23,7.32-3.4,14.64-7.94,22-12.08q.54,155,.14,310-.13,50.67-.38,101.36c0,7.5,11.61,7.51,11.64,0q.88-182.62.38-365.26-.06-26.05-.16-52.09c10.44-4.67,20.88-6.83,31.32-2,75.94,37.06,122.35,138.3,210.85,145.62q-.07,86.18.17,172.36.17,50.67.43,101.36c0,7.49,11.69,7.51,11.64,0q-.73-136.65-.6-273.31,5.48-.06,11.17-.6c84.2-12.6,158.17-46.92,233.68-80.66q1,126.6-.08,253.21-.42,50.67-1.18,101.36c-.11,7.5,11.53,7.5,11.64,0q2.7-179.85,1.23-359.74c41-18.21,82.68-35.92,126.84-49.57,41-12.68,73.49,23.5,102.79,45.21q6,4.47,12.53,8.72.3,127,0,254-.12,50.67-.37,101.36c0,7.5,11.61,7.51,11.64,0q.84-174,.42-348.11c25.17,14.88,53.66,26.81,80.75,33.25,41.94,10,82,21.32,125.83,19q10.37-.56,20.87-1.87.12,98.18-.13,196.36-.13,50.67-.38,101.36c0,7.5,11.61,7.51,11.64,0q.72-149.68.51-299.38c44.55-7.09,89.92-22.83,130.74-38.14,37.23-14,71.92-36.49,111.36-43.62q-.47,139.89-.05,279.78.15,50.67.43,101.36c0,7.49,11.68,7.51,11.64,0q-1-182.62-.42-365.26,0-8.76.05-17.5l.22,0c61.9-5.88,113.08,33.35,170,50.23V1455.1H580.66C580.21,1488.86,579.74,1522.62,579.92,1556.44Z" transform="translate(0 0.01)"/><path class="cls-6" d="M604,1424.38h-23q-.18,15.36-.39,30.72H2258.32v-30.72H649C633.81,1430.85,618.4,1430.21,604,1424.38Z" transform="translate(0 0.01)"/><path class="cls-18" d="M2045.1,1363H723.81c-19.73,20.48-40.48,39.85-63.83,55.45a67.15,67.15,0,0,1-11,6H2258.32V1363Z" transform="translate(0 0.01)"/><path class="cls-18" d="M581.19,1410.18q-.06,7.1-.14,14.2h23A83.75,83.75,0,0,1,581.19,1410.18Z" transform="translate(0 0.01)"/><path class="cls-17" d="M576.34,1955.28q1.21-81.19,1.57-162.42C575.69,1848,570.84,1903,565.27,1958,567.6,1962.63,576.24,1961.74,576.34,1955.28Z" transform="translate(0 0.01)"/><path class="cls-3" d="M577.91,1792.86q.42-10.21.7-20.44c1-37.23,5.92-75.6,3.7-113.19-.22-3.71-.5-7.41-.87-11.09A26.35,26.35,0,0,1,584,1647c4-28.1-3.92-61.9-4.07-90.57-.18-33.82.29-67.58.74-101.34q.21-15.36.39-30.72.08-7.1.14-14.2a83.75,83.75,0,0,0,22.83,14.2c14.38,5.83,29.79,6.47,45,0a67.15,67.15,0,0,0,11-6c23.35-15.6,44.1-35,63.83-55.45,16-16.58,31.32-33.89,46.81-50.5,23.27-25,63.78-76.4,86.81-108.69,9.08.53,18.28.73,27.46.39q5.94-.23,11.84-.77c18.9-1.78,37.4-6.32,54.16-15.6,9.78-5.4,20.21-9.79,30-15.33,4.77-2.7,50.79-33.76,32.13-40.79,8.44-9.38,35-38.27,11-42.43,1.87-9.08,14-29.29-3.25-29.84-10-.32-19.15,5.26-27,10.77-9.11,6.39-15.42,16.64-24,23.79a66.82,66.82,0,0,1-32.22,14.68c-7.54,1.24-23.26,4-29.67-.62,7.53-13.23,30.35-17.26,43.08-23.89,3.09-1.61,11.32-5,12.25-9,3.41-14.76-44.33-10-51.07-8.77l-2.51.49c-6.17,1.23-12.33,2.8-18.44,4.66a251.71,251.71,0,0,0-50.37,21.9c-14.36,8.14-30.54,19.36-35.74,35.82l-.15.53c-6.72,6-12.17,10.79-14.17,12.21-35.91,25.5-70.71,52.35-106,78.58-3.21-9.79-6.56-19.53-10.17-29.12,9.25-6.3,18.32-12.81,27.11-19.53,1.8-1.37,3.49-2.86,5.24-4.28q-15.56-40.38-34.28-79.43c-26.13-54.36-41.45-115.46-72.1-167.38-10.8-18.29-26-33.1-41.65-47.57-22.85-21.09-48.54-33.39-77.22-45-1.42-.57-3.6-1.71-6.19-3-4.29-2.22-17.69-7.84-29.54-12a146.45,146.45,0,0,0-18-8.71q-6.79-2.64-13.54-4.91c-3.68-18.34-6.13-30.6-6.13-30.6l-3.5-19.86,1.56.25c7.75,1.27,15.57,2.1,23.4,2.61,5.2.34,11.82,1.33,16.74-.71,10.09-4.2,13.1-19,14.92-28.38.34-1.77.7-3.54,1.06-5.32a124.57,124.57,0,0,0,14.2,0c2.9-10.5,2.77-23.85.5-34.42l-1.61-.45c.71-.14,1.48-.26,2.31-.34,7.4-.76,17.12-.32,23.82-4.06,7-3.91,2.12-15.15.66-21.23-4.46-18.5-8.41-37.12-12.78-55.62-2.72-11.56-2.67-23.57-3.73-35.31a316.65,316.65,0,0,0-5.43-36.4q-2.67-12.84-6.38-25.46A48.89,48.89,0,0,0,491.38,488c21.08-33.6,7.6-82-17.28-110.15-16.79-19-45.77-36.62-72.26-29-23.39,6.69-43.09,25.65-68.91,16.68-13.39-4.66-26.65-12-41.34-10.48-12.06,1.21-28.69,7-37.67,15.33a56.09,56.09,0,0,0-11.48,15.75,120.34,120.34,0,0,0-8.5,22.88c-3,11-3.6,22.54-13.72,29.56-8.69,6-19.93,6.54-21.63,19.06-1.11,8.16,4.47,12.49,7,19.12-.84-2.2-12.79,7.89-13.74,9.58-2.24,3.94-2.69,9.45-3.84,13.81a117.43,117.43,0,0,0-3.25,41.3,107.3,107.3,0,0,0,14.59,46.2c6.51,11.1,14.41,21.7,21.61,32.42,5.36,8,14.57,18,13.81,28.35-.86,11.7-8.7,16.16-17.46,21.43-4.9,3-5.44,1.52-5.17,7.3.51,10.89,16.52,25.26,26.76,26.64-4.53,10.17,13.41,17.34,21,18.81,1.08.22,2.16.39,3.26.55L249.9,792a246.85,246.85,0,0,0-28.56,7.26c-26.11,8.77-50.15,22.61-73.76,36.85-13.22,8-26.33,16.11-37.43,26.52C89.23,878.16,69.31,903,62.42,920.2,48.93,954,32.86,987.8,20.55,1022.35,13,1043.53,6.86,1065.59,0,1087.14v316.2c19.12,13.55,40.92,24.81,55.29,34.31,6.37,4.21,16,12.38,25.45,18.06,0,41.85-.48,83.71-.48,125.51,0,21-8.77,46.42,2.94,65.67a157.56,157.56,0,0,1-3,19.19,399.44,399.44,0,0,0-8.93,62.26c-2.45,35.34-2.88,70.59-2.88,106.08v158.21H561.67q1.83-17.33,3.6-34.65C570.84,1903,575.69,1848,577.91,1792.86Z" transform="translate(0 0.01)"/><path class="cls-3" d="M272.3,359.77V377H248a41.83,41.83,0,0,1,5.9-6.7C258.57,366,265.23,362.39,272.3,359.77Z" transform="translate(0 0.01)"/><path class="cls-19" d="M2138.85,1039.33c.7,4.31,1.41,8.62,2.11,12.89,2.25,13.59,4.12,27.18,6.28,40.77.89,5.44,3.14,14.48,4,23.38,3.66,22.64-3.18,44-24.79,57.22-18,11-37.49,19.55-57.5,26.9,34.35,61.3,68.51,116.93,89,152.08-27.32-45.18-66.45-90.45-112.15-127.52.1,30.88.38,61.81.38,92.65,0,7.26,3.94,32.29,1.64,44.33H2261V667.61c-17.48,16.12-32.33,46.44-44.05,70.57-82.34,169.88-39.83,316.1,5.3,486.82" transform="translate(0 0.01)"/></svg>