<svg xmlns="http://www.w3.org/2000/svg" viewBox="0 0 344.23 71.02"><defs><style>.cls-1{fill:#43c1c6;}</style></defs><g id="Layer_2" data-name="Layer 2"><g id="Delete"><path class="cls-1" d="M212,27.16c-1,1.46-1.1,3-1.51,4.45-1.16,4.06-2.22,8.15-3.36,12.22A6.27,6.27,0,0,1,194.9,44c-1.39-4.86-2.68-9.75-4-14.63a3.53,3.53,0,0,0-1-2.12,4.09,4.09,0,0,0-.34,2.48c0,13.06,0,26.11,0,39.16,0,1.76-.5,2.25-2.22,2.17-3.18-.13-6.38-.09-9.57,0-1.4,0-1.93-.31-1.93-1.83q.08-33.63,0-67.26c0-1.44.38-1.92,1.86-1.89,4.37.09,8.75.08,13.12,0,1.37,0,1.87.45,2.22,1.78,2.36,8.76,4.83,17.49,7.27,26.23.1.38,0,.86.55,1.09.71-.08.67-.72.8-1.21,2.4-8.68,4.82-17.36,7.16-26,.36-1.34.88-1.9,2.38-1.85,4.3.12,8.61.09,12.91,0,1.36,0,1.78.39,1.78,1.76q-.06,33.74,0,67.48c0,1.38-.45,1.78-1.79,1.74-3.26-.08-6.53-.12-9.78,0-1.66.06-1.92-.59-1.92-2q.08-19.68,0-39.36A3.2,3.2,0,0,0,212,27.16Z"/><path class="cls-1" d="M310.81,27a3.6,3.6,0,0,0-.66,2.85c0,13,0,26,0,38.94,0,1.76-.52,2.25-2.23,2.18-3.19-.12-6.38-.08-9.58,0-1.28,0-1.65-.4-1.65-1.67q0-33.84,0-67.67c0-1.32.47-1.65,1.7-1.63,4.51.05,9,.06,13.53,0a1.88,1.88,0,0,1,2.12,1.43q7.49,20,15.06,39.87a5.36,5.36,0,0,0,1.19,2.35c.8-.78.47-1.66.47-2.45,0-13,.06-26,0-38.94,0-1.89.54-2.36,2.34-2.27a89.06,89.06,0,0,0,8.95,0c1.76-.09,2.18.48,2.18,2.2-.07,17.63,0,35.26,0,52.89,0,4.72-.05,9.44,0,14.16,0,1.38-.43,1.77-1.78,1.74-4.37-.07-8.74-.09-13.11,0a2.27,2.27,0,0,1-2.54-1.79q-7.26-19.37-14.62-38.7C311.76,29.46,311.33,28.39,310.81,27Z"/><path class="cls-1" d="M118.32,35.51c0-11.1,0-22.21,0-33.31,0-1.75.48-2.2,2.2-2.19q21.45.11,42.9,0c1.79,0,2.22.55,2.15,2.24-.13,3.11-.13,6.25,0,9.36.07,1.71-.4,2.24-2.17,2.23-9.79-.09-19.57,0-29.36-.09-1.94,0-2.47.53-2.39,2.43.14,3.6.1,7.22,0,10.82,0,1.43.48,1.76,1.8,1.75,6.38-.05,12.77,0,19.15-.06,1.77,0,2.27.53,2.2,2.24-.13,3-.13,6.11,0,9.16.08,1.71-.42,2.27-2.19,2.24-6.24-.1-12.49,0-18.74-.07-1.7,0-2.29.41-2.22,2.18.13,3.53.13,7.08,0,10.62-.06,1.71.42,2.23,2.18,2.21,9.79-.08,19.57,0,29.36-.09,2,0,2.47.56,2.39,2.44-.15,3.19-.1,6.39,0,9.58,0,1.31-.31,1.81-1.72,1.81q-21.87-.08-43.73,0c-1.58,0-1.78-.64-1.77-2C118.34,57.87,118.32,46.69,118.32,35.51Z"/><path class="cls-1" d="M261.27.05c7.7,0,15.41,0,23.11,0,1.57,0,2,.44,2,2-.12,3.26-.14,6.53,0,9.79.07,1.73-.58,2.07-2.15,2-4.71-.09-9.44,0-14.15-.06-1.5,0-2.06.3-2.05,1.93q.11,19.79,0,39.56c0,1.54.38,2,2,2,4.86-.1,9.72,0,14.58-.07,1.35,0,1.81.38,1.77,1.77-.09,3.47-.08,6.94,0,10.41,0,1.32-.47,1.62-1.7,1.62Q261.34,71,238,71c-1.43,0-1.73-.54-1.7-1.83.07-3.4.08-6.8,0-10.2,0-1.37.39-1.8,1.76-1.78,4.93.07,9.86,0,14.79.06,1.32,0,1.8-.32,1.79-1.73q-.07-20,0-40c0-1.56-.6-1.81-2-1.79-4.72.07-9.44,0-14.16.06-1.65,0-2.34-.3-2.25-2.13.15-3.19.12-6.39,0-9.58C236.23.49,236.7,0,238.37,0,246,.1,253.64.05,261.27.05Z"/><path class="cls-1" d="M45.06,36.29c-.52-.48-.84-.78-.13-1.45,4.71-4.46,5.48-10.16,5.1-16.26A19.56,19.56,0,0,0,30.48.05C21,0,11.6.1,2.16,0,.4,0,0,.52,0,2.22c.08,11.1,0,22.21,0,33.31S0,57.88,0,69.05c0,1.09-.11,2,1.54,2,10.2-.08,20.41,0,30.61-.09A17.12,17.12,0,0,0,42.49,67C51.54,60.06,52.85,43.45,45.06,36.29ZM14.84,13.78c2.77.05,5.55,0,8.32,0v0c2.78,0,5.55-.08,8.32,0,3.86.14,6.27,2.56,6.53,6.42A20.27,20.27,0,0,1,38,23c-.26,3.92-2.45,6.17-6.37,6.24-5.61.1-11.23,0-16.85.05-1.09,0-1.44-.34-1.43-1.43q.08-6.34,0-12.69C13.34,14,13.82,13.77,14.84,13.78Zm15,43.44c-4.93,0-9.85,0-14.77,0-1.22,0-1.72-.28-1.7-1.61.08-4.16.06-8.32,0-12.48,0-1.11.37-1.44,1.44-1.41,2.85,0,5.69,0,8.53,0,2.57,0,5.13,0,7.7,0,4.52,0,6.77,2.22,7,6.69C38.36,54.56,35.93,57.18,29.81,57.22Z"/><path class="cls-1" d="M109.9,68.52q-4.35-18.48-8.67-37c-1.67-7.08-3.3-14.16-5-21.22A13.83,13.83,0,0,0,82.69.05c-6.63,0-11.83,4.3-13.45,11.12-1.94,8.15-3.83,16.31-5.75,24.46C60.88,46.75,58.28,57.87,55.62,69c-.38,1.57,0,2.09,1.62,2,3.33-.11,6.66-.09,10,0a1.68,1.68,0,0,0,2-1.58C70,66,70.92,62.58,71.58,59.12c.27-1.4.89-1.6,2.09-1.59,6,0,12.07.07,18.11,0,1.47,0,2.08.42,2.38,1.84.73,3.45,1.65,6.86,2.4,10.31.22,1,.65,1.37,1.67,1.33,1.73-.06,3.46,0,5.2,0H108C110.49,71,110.47,71,109.9,68.52ZM89,43.91c-2.08-.06-4.16,0-6.24,0s-4,0-6,0c-1.18,0-1.44-.43-1.19-1.5q3.33-13.95,6.61-27.9c.09-.41.19-.95.62-1,.7-.06.58.64.68,1.07,2.22,9.29,4.41,18.59,6.66,27.87C90.39,43.6,90.18,44,89,43.91Z"/></g></g></svg>