<svg xmlns="http://www.w3.org/2000/svg" viewBox="0 0 178.88 178.88"><defs><style>.cls-1{fill:#eaf6f7;}.cls-2{fill:#2ea8e0;}.cls-3{fill:#241f20;}</style></defs><g id="Layer_2" data-name="Layer 2"><g id="Delete"><circle class="cls-1" cx="89.44" cy="89.44" r="89.44" transform="translate(-37.05 89.44) rotate(-45)"/><path class="cls-2" d="M96.86,112.08V42.59a1.75,1.75,0,0,0-1.75-1.75h0a1.75,1.75,0,0,0-1.75,1.75v69.56a11.2,11.2,0,1,0,3.54-.07Z"/><path class="cls-3" d="M84.59,57.64v48.47a20,20,0,0,0-8.23,22c2.28,8.34,10.2,14,18.68,14.27s16.26-5.63,19-13.62c2.93-8.44-.81-17.76-8-22.62V44c0-2.78.27-5.73-.24-8.48-1.55-8.35-14-9.48-19-3.83-2.59,3-2.24,6.71-2.24,10.32Zm3,49.26V43.42c0-3.11-.52-6.75,1.27-9.45,2-3.09,7.78-3.41,10.86-1.84,2.37,1.21,3.29,3.69,3.29,6.18v68.62a1.38,1.38,0,0,0,.47,1.09,1.39,1.39,0,0,0,.27.21,16.89,16.89,0,0,1,3.07,26.5c-7.5,7.4-20,5.38-25.63-3.19a16.86,16.86,0,0,1-1.54-14.77,16.6,16.6,0,0,1,4.17-6.27C84.82,109.53,87.6,108.46,87.6,106.9Z"/><path class="cls-3" d="M109.15,55.25h6.68a1.25,1.25,0,0,0,0-2.49h-6.68A1.25,1.25,0,0,0,109.15,55.25Z"/><path class="cls-3" d="M109.15,70.08h6.68a1.25,1.25,0,0,0,0-2.49h-6.68A1.25,1.25,0,0,0,109.15,70.08Z"/><path class="cls-3" d="M109.15,86.24h6.68a1.25,1.25,0,0,0,0-2.49h-6.68A1.25,1.25,0,0,0,109.15,86.24Z"/><path class="cls-3" d="M45.41,42.18l7-1.6a.83.83,0,0,0,.29-.11l9,5.62L52.7,51.94l-.14,0-7-1.46c-1.51-.31-2.15,2-.64,2.32l4.94,1L46.1,56.27c-1.29.85-.09,2.93,1.21,2.08l4-2.6c-.34,1.6-.67,3.2-1,4.8s2,2.15,2.31.63q.72-3.43,1.43-6.87a1.17,1.17,0,0,0,0-.37l8.5-5.57v9.92a1,1,0,0,0-.16.14l-5,5a1.2,1.2,0,0,0,1.7,1.7l3.51-3.51v4.58a1.21,1.21,0,0,0,2.41,0V61.58l3.51,3.51a1.2,1.2,0,0,0,1.7-1.7l-5-5a1.33,1.33,0,0,0-.24-.19V48.16l8.7,5.45a1.15,1.15,0,0,0,0,.26c.53,2.32,1.07,4.64,1.6,7,.34,1.5,2.66.86,2.31-.64s-.73-3.2-1.1-4.8l3.92,2.46c1.32.82,2.52-1.26,1.21-2.08l-3.92-2.45,4.89-1.13c1.51-.35.87-2.66-.64-2.31L75.1,51.45a1.14,1.14,0,0,0-.26.09l-8.76-5.49,8.73-5.72.09,0,6.87,1.43c1.51.32,2.15-2,.64-2.31l-4.78-1,3.42-2.24c1.29-.84.09-2.92-1.21-2.07l-3.66,2.4c.35-1.66.69-3.31,1-5s-2-2.16-2.32-.64c-.48,2.32-1,4.65-1.45,7a1.52,1.52,0,0,0,0,.42l-8.49,5.57V33.42l.12-.11,5-5a1.2,1.2,0,0,0-1.7-1.7L64.94,30V25.9a1.21,1.21,0,0,0-2.41,0v4.3L58.9,26.57a1.2,1.2,0,0,0-1.7,1.7l5,5a1.79,1.79,0,0,0,.28.22v10.3l-8.71-5.46a1.52,1.52,0,0,0,0-.21c-.52-2.28-1-4.56-1.57-6.84-.35-1.51-2.66-.87-2.32.63L51,36.58l-3.55-2.22c-1.32-.82-2.52,1.26-1.21,2.08l3.62,2.26-5.06,1.17C43.26,40.21,43.9,42.53,45.41,42.18Z"/></g></g></svg>