<svg xmlns="http://www.w3.org/2000/svg" xmlns:xlink="http://www.w3.org/1999/xlink" viewBox="0 0 565.95 488.39"><defs><style>.cls-1{fill:#5a63ad;}.cls-11,.cls-14,.cls-17,.cls-2,.cls-21,.cls-23,.cls-24{fill:none;}.cls-14,.cls-2{stroke:#2f374a;}.cls-11,.cls-17,.cls-2,.cls-23{stroke-miterlimit:10;}.cls-2,.cls-21{stroke-width:1.19px;}.cls-3{fill:#77d0ee;}.cls-4{fill:#e2e2e2;}.cls-5{fill:#fcda88;}.cls-6{fill:#2f374a;}.cls-7{fill:#89cfbf;}.cls-8{fill:#fff;}.cls-9{fill:#f2c567;}.cls-10{fill:#7072b5;}.cls-11{stroke:#7072b5;stroke-width:4.47px;}.cls-12{clip-path:url(#clip-path);}.cls-13{fill:#8f90c7;}.cls-14,.cls-21,.cls-24{stroke-linecap:round;stroke-linejoin:round;}.cls-14{stroke-width:2.51px;}.cls-15{fill:#f5ccb6;}.cls-16{fill:#f1af96;}.cls-17{stroke:#fff;stroke-width:1.24px;}.cls-18{fill:#3b3a3a;}.cls-19{fill:#717172;}.cls-20{fill:#323232;}.cls-21{stroke:#232020;}.cls-22{fill:#010101;}.cls-23,.cls-24{stroke:#010101;}.cls-23{stroke-width:1.02px;}.cls-24{stroke-width:2.04px;}</style><clipPath id="clip-path"><path class="cls-1" d="M89.75,422.31a6.44,6.44,0,0,1-6-8.37c5.09-17.76,26.43-60.75,65.47-72,58.66-16.85,89.35,10.52,95.36,22.81,5.54,11.31,15.63,37.82-2,57.54Z"/></clipPath></defs><g id="Layer_2" data-name="Layer 2"><g id="Delete"><line class="cls-2" x1="538.87" y1="487.79" y2="487.79"/><path class="cls-3" d="M513.23,410.85c69.86-115.25,2-207.63-54.21-242.95-46.38-29.12-112.73-67.49-185.15,12a161.79,161.79,0,0,1-111.26,52.22l-1.9.09c-39.89,1.7-65.48,18.26-89.79,43.21C45.24,301.79,38.3,358.54,52.3,392.18,65.72,424.43,99.09,467,167.8,486.86H439.94C468.87,468.24,493.86,442.82,513.23,410.85Z"/><path class="cls-4" d="M44.5,113.8H184.19s-.67-6.75-16.19-12.15-26.66,8.44-44.2,0S96.94,81.12,74.34,87.86A47.13,47.13,0,0,0,44.5,113.8Z"/><circle class="cls-5" cx="475.52" cy="26.89" r="26.89" transform="translate(15.15 148.97) rotate(-18.09)"/><path class="cls-4" d="M424.92,63.73H566s-.66-5.61-15.88-10.1-26.15,7-43.35,0-26.34-17.08-48.51-11.47A61.33,61.33,0,0,0,424.92,63.73Z"/><path class="cls-4" d="M487.64,239.83l63.26-.12s-15.63-21-36.27-21S487.64,239.83,487.64,239.83Z"/><circle class="cls-6" cx="482.14" cy="430.2" r="57.59" transform="translate(-162.98 466.92) rotate(-45)"/><circle class="cls-7" cx="482.14" cy="430.2" r="42.66" transform="translate(-162.98 466.92) rotate(-45)"/><circle class="cls-8" cx="482.14" cy="430.2" r="24.19"/><path class="cls-1" d="M545.24,409.15C531.94,360.74,477,365.37,477,365.37l-35.7,0-27.34,43.81-9.33,29.54h36.67l16.19-29.54Z"/><rect class="cls-5" x="40.55" y="217.7" width="99.99" height="101.11"/><rect class="cls-5" x="32.72" y="217.7" width="115.64" height="23.17"/><rect class="cls-9" x="40.55" y="240.87" width="99.99" height="6.32"/><rect class="cls-10" x="50.75" y="217.7" width="6.71" height="101.11"/><rect class="cls-10" x="123.56" y="217.7" width="6.71" height="101.11"/><line class="cls-11" x1="168.99" y1="318.81" x2="28.3" y2="318.81"/><line class="cls-11" x1="86.37" y1="318.81" x2="142.33" y2="377.42"/><path class="cls-6" d="M407.56,222.61l-4.92-34.5a4.3,4.3,0,0,0-3.89-3.7l-9.61-.86.24-2.65,9.61.86a7,7,0,0,1,6.29,6l4.92,34.5Z"/><path class="cls-1" d="M384.65,164.12v31.65s6.71-1,6.71-17.59S384.65,164.12,384.65,164.12Z"/><path class="cls-5" d="M154.61,329.26s-.34-.33-.88-1C138,310,151.48,289.54,175.64,289.54H281.79c20.3,0,34.71,12.91,26.35,31.41a42.91,42.91,0,0,1-5,8.31Z"/><polygon class="cls-1" points="275.03 415.67 374.57 415.67 414.84 355.65 427.43 379.47 388 441.58 306.83 449.56 275.03 415.67"/><path class="cls-10" d="M477,365.37s-4.61-25.13-28.6-54.39c-16.09-19.61-29.32-38.92-39.74-49.55h10.7V217.7H402.11a12,12,0,0,0-10.63,6.39,49.24,49.24,0,0,0-4.65,33.08L415.38,369.8a19.44,19.44,0,0,1-2.07,13.47l-22,39.24a21.52,21.52,0,0,1-18.78,11H315.71c-10.83,0-25.14-8-26.53-18.77L285.87,389c-2-15.41,7.52-31,17.17-43.16l.1-.11V329.26H154.61l-35.44,40.28L236.4,414.6,263,444a48.23,48.23,0,0,0,35.42,18.29c.63,0,1.26,0,1.89,0h83.4A21.38,21.38,0,0,0,402.57,451l33.15-58.44a32.72,32.72,0,0,1,16.47-14.91Z"/><path class="cls-5" d="M419.32,261.37h0V217.7h0a11.21,11.21,0,0,1,11.21,11.21v21.25A11.21,11.21,0,0,1,419.32,261.37Z"/><path class="cls-6" d="M395.89,231.15l-9-31.51a9.46,9.46,0,0,0-9.08-6.89h-8.26v-2.47h8.26A11.93,11.93,0,0,1,389.25,199l9,31.52Z"/><path class="cls-10" d="M372.8,190.22c0,10.72-2.91,19.41-6.5,19.41s-6.51-8.69-6.51-19.41,2.91-19.4,6.51-19.4S372.8,179.51,372.8,190.22Z"/><circle class="cls-6" cx="167.8" cy="430.2" r="57.59" transform="translate(-289.15 496.74) rotate(-76.98)"/><circle class="cls-7" cx="167.8" cy="430.2" r="42.66" transform="translate(-289.23 496.21) rotate(-76.91)"/><circle class="cls-8" cx="167.8" cy="430.2" r="24.19"/><path class="cls-1" d="M89.75,422.31a6.44,6.44,0,0,1-6-8.37c5.09-17.76,26.43-60.75,65.47-72,58.66-16.85,89.35,10.52,95.36,22.81,5.54,11.31,15.63,37.82-2,57.54Z"/><g class="cls-12"><rect class="cls-13" x="74.91" y="411.13" width="197.14" height="16.43"/></g><line class="cls-14" x1="111.77" y1="399.03" x2="143.53" y2="399.03"/><line class="cls-14" x1="118.35" y1="392.18" x2="143.53" y2="392.18"/><line class="cls-14" x1="127.65" y1="385.32" x2="143.53" y2="385.32"/><path class="cls-15" d="M324.81,105.53s13.2,8.28,9.63,21.08S321.7,163,312.7,159.11a59.76,59.76,0,0,1-14.78-9l-5.46-19.58Z"/><polygon class="cls-15" points="306.18 152.61 288.55 172.21 275.88 147.35 297.76 130.34 306.18 152.61"/><path class="cls-16" d="M304.3,154.69s-5.78-5.16-7.39-7.34l1.26,14.1Z"/><path class="cls-6" d="M300.94,127.73l5.1,3.44.36-4.45S327.88,126,324.87,109c.67,3.77-17.8-12.23-27.43-8.67-6.42,2.37-15,10.41-16,17.18-.72,5.28,2.53,11.55,5.56,21.12Z"/><path class="cls-15" d="M328.31,136.78,330.56,147a1.14,1.14,0,0,1-1.53,1.31l-5.39-2.07Z"/><path class="cls-6" d="M323.79,136.39a1.74,1.74,0,0,0,.62,2.36,1.76,1.76,0,1,0-.62-2.36Z"/><path class="cls-6" d="M326.29,125.2s-5.14-.8-5.4,2.09c0,0-.14,2,4.36,2.52s6.28.33,6.82-1.49S328.71,125.31,326.29,125.2Z"/><path class="cls-8" d="M307.1,136.61l26,9L325.48,155a13.1,13.1,0,0,1-17.88,2.28c-1.05-.76-2.15-1.62-3.3-2.59Z"/><polyline class="cls-17" points="302.85 126.37 308.92 140.02 291.65 132.6"/><path class="cls-18" d="M279.62,129.32s13.8,11.08,24.33,5l9.82-12.77,29.62,7.62s-.76-1.28-2.56-9.6-5.35-24.68-33.52-26.7C279.4,90.86,277.8,123.29,279.62,129.32Z"/><path class="cls-19" d="M313.77,121.53l28.13,2.66L354.49,131a1.33,1.33,0,0,1-1.05,2.45Z"/><path class="cls-20" d="M277.27,147.35S260,149,241.88,174.05C230.55,189.7,205.26,254,205.26,254s11.56,25.6,49.31,35.57c0,0,28.19-54,35.36-118.77C290.65,164.27,277.27,147.35,277.27,147.35Z"/><path class="cls-15" d="M293.54,212.26l6.8,21.49c2.33,8.76,4.35,14.51-4.15,17.67h0a17.59,17.59,0,0,1-22.93-11.21l-6.39-19.55Z"/><path class="cls-20" d="M300.28,210.56l-10.34-38.35s-13.73-11-25.33-6.15h0a20.62,20.62,0,0,0-12,24.57l9,32.12Z"/><polyline class="cls-21" points="266.87 220.66 260.22 222.75 251.27 190.63"/><path class="cls-15" d="M294.69,225.7l78.47,7.92L370,245.88l-79.41,6.66c-12.47-1.77-19.26-11.55-15.17-23.45h0C278.57,219.9,285.09,224.2,294.69,225.7Z"/><path class="cls-22" d="M366.72,233.46l24.51-11.4a6,6,0,0,1,7,1.45l7.24,9.16a6.74,6.74,0,0,1,1.19,7.15l-1.14,2.66a6.7,6.7,0,0,1-2.45,3l-3.37,2.25a4.7,4.7,0,0,1-5.86-.51l-2.45-2.35-10.6,3.73s-7.92,3.87-17.1-2.67Z"/><path class="cls-6" d="M386.67,235.63l-6.4,3.88a8.52,8.52,0,0,0-.23,12.64h0a8.51,8.51,0,0,0,12.09-.46l5.95-4.35a8.19,8.19,0,0,0-.55-11.61h0A8.18,8.18,0,0,0,386.67,235.63Z"/><polygon class="cls-22" points="368.88 233.16 357.18 232.01 360.51 246.68 367.83 245.97 368.88 233.16"/><path class="cls-6" d="M204.63,255.59s-30.56,50,35.27,56.35l107.5.13c10.62,0,17.43-13.81,16.23-24.37h0a17.85,17.85,0,0,0-16.46-15.78Z"/><polygon class="cls-15" points="319.72 367.18 315.98 400.18 341.41 398.96 346.17 362.13 319.72 367.18"/><path class="cls-8" d="M342.07,393.88l35,18.12a6.3,6.3,0,0,1,3.3,7.06h0l-69.65-1,5.48-24.43Z"/><path class="cls-22" d="M310.72,418l-.16,4.91,64.12.32a5.94,5.94,0,0,0,5.69-4.21h0Z"/><path class="cls-23" d="M320.42,405.44a6.19,6.19,0,1,0,6.08-6.29A6.18,6.18,0,0,0,320.42,405.44Z"/><line class="cls-24" x1="352.53" y1="398.73" x2="347.05" y2="403.58"/><line class="cls-24" x1="357.66" y1="401.21" x2="352.15" y2="406.09"/><line class="cls-24" x1="363.07" y1="403.99" x2="357.31" y2="409.09"/><polygon class="cls-6" points="323.43 280.04 312.93 379.62 350.33 379.65 363.76 290.21 323.43 280.04"/><path d="M97.24,266.1a.47.47,0,0,0,0-.26.43.43,0,0,0-.26-.22.39.39,0,0,0-.33.05.48.48,0,0,0-.21.29.51.51,0,0,0,0,.36.47.47,0,0,0,.13.15l-.69.37s-.05-.08-.07-.13a1.34,1.34,0,0,1-.1-1,1.46,1.46,0,0,1,.2-.44,1.23,1.23,0,0,1,.35-.33,1.11,1.11,0,0,1,.88-.12h0a1.11,1.11,0,0,1,.69.59.94.94,0,0,1,.1.28Z"/><path d="M93.1,262.86l2.48,1.57.58.37v-.74l.08-3.16.07-3.16v-.25l-.2-.13-2.48-1.57-2.48-1.57-.58-.37v.74l-.08,3.16-.07,3.16v.25l.2.13Zm-1.81-5.11,0-2.41,1.9,1.2L95.52,258l-.07,2.9,0,2.42-1.9-1.2-2.28-1.45Z"/><path d="M98.06,257v.25l0,3.16,0,3.16v.74l.59-.37,2.54-1.56,2.53-1.56.21-.12v-.25l0-3.16,0-3.16v-.74l-.59.37-2.54,1.56-2.53,1.56Zm.74,3.41,0-2.91,2.33-1.43,1.94-1.2,0,2.42,0,2.91-2.33,1.43-1.94,1.2Z"/><path d="M88.8,269.78l.19.13.2-.13,2.53-1.59,2.52-1.58.59-.38-.58-.37-2.46-1.6-2.47-1.6-.19-.12-.21.12-2.52,1.59-2.52,1.59-.59.37.58.37,2.46,1.6Zm-2-4.78,2.32-1.46L91.37,265l1.89,1.22-1.93,1.22L89,268.91l-2.27-1.47-1.88-1.23Z"/><polygon points="96.98 256.52 97.61 255.39 98.23 254.26 97.65 253.13 97.06 251.99 96.44 253.12 95.82 254.25 96.4 255.38 96.98 256.52"/><polygon points="86.93 261.29 88.13 261.28 89.33 261.28 88.75 260.14 88.18 259 86.98 259.01 85.78 259.01 86.36 260.15 86.93 261.29"/><path d="M109,261.37q-.06-1.25-.21-2.46s0,0,0,0a24.35,24.35,0,0,0-1.28-6.49l-.06-.17a15.36,15.36,0,0,1-.95,5.36c-.13.34-.27.69-.43,1a16.88,16.88,0,0,1-.81,1.6c0,.07-.08.13-.13.19a15.64,15.64,0,0,1-1.29,1.76l-.38.44a19.61,19.61,0,0,1-2.53,2.3,29.69,29.69,0,0,1-2.84,1.88,52.13,52.13,0,0,1-5.22,2.64l-1.27.55h0l0,0,0,0-1,.41,0,0-.06,0-.75.32,0,0-.06,0-1,.41,0,0,0,0-1.33.56c-.72.32-1.45.64-2.16,1A43.65,43.65,0,0,0,81,274.88c-.35.21-.71.42-1.06.65l-.39.32a20.4,20.4,0,0,0-5.63,7.75q-.33.76-.6,1.56h0A25,25,0,0,0,72,293.24a25.53,25.53,0,0,0,.15,2.79,23.1,23.1,0,0,0,.39,2.4,24.5,24.5,0,0,0,1,3.48A21.36,21.36,0,0,0,77,308.09v-.19h0a40.76,40.76,0,0,1,1-9c.1-.44.2-.88.32-1.31a35,35,0,0,1,9.39-16.47,27.24,27.24,0,0,1,7.7-5.24,19.46,19.46,0,0,1,1.91-.76l.64-.22c.53-.17,1.06-.32,1.6-.46-.44.21-.88.44-1.31.67s-1.09.62-1.63,1a29.19,29.19,0,0,0-6.31,5.49,36.31,36.31,0,0,0-7.84,16.12c0,.23-.09.45-.13.67-.09.44-.17.89-.24,1.33,0,.14,0,.28-.07.42s.21.21.61.1a23.87,23.87,0,0,0,7.75-3.54c1.22-.84,2.37-1.73,3.48-2.66l.39-.34.09,0h0l4.94-4.15a32.77,32.77,0,0,0,5-6.93,37.74,37.74,0,0,0,3.41-8.59c.15-.57.28-1.14.4-1.72a40.35,40.35,0,0,0,.91-8.61C109.1,262.84,109.08,262.1,109,261.37Z"/></g></g></svg>