<svg xmlns="http://www.w3.org/2000/svg" viewBox="0 0 209.35 80.52"><defs><style>.cls-1{fill:#19b35e;}.cls-2{fill:#1ab35e;}</style></defs><g id="Layer_2" data-name="Layer 2"><g id="Delete"><path class="cls-1" d="M31.47,80.52l-2.33-.25a32,32,0,0,1-16-6.45A32.46,32.46,0,0,1,.6,53,35.21,35.21,0,0,1,1,38.11,32.77,32.77,0,0,1,12.79,20.33a36.25,36.25,0,0,1,16.59-7.4,45.52,45.52,0,0,1,10.43-.41,45.55,45.55,0,0,1,7.63,1,27.54,27.54,0,0,1,4.44,1.39c.16.07.34.09.34.37,0,1.85,0,3.71,0,5.63l-.86-.48a25.3,25.3,0,0,0-8.85-2.72,47.53,47.53,0,0,0-8.26-.38A30.32,30.32,0,0,0,19.05,22,29.13,29.13,0,0,0,7.12,36.17a26.21,26.21,0,0,0-1.81,9.47,30.45,30.45,0,0,0,1.4,10.48c3.48,10.13,10.49,16.39,21,18.7a30.32,30.32,0,0,0,9.07.39,32.83,32.83,0,0,0,9.28-2,21.56,21.56,0,0,0,7-4.28.87.87,0,0,0,.31-.71q0-10.17,0-20.34c0-.38-.08-.48-.47-.48-6.83,0-13.66,0-20.49,0-.41,0-.5-.12-.49-.51,0-1.43,0-2.87,0-4.31,0-.32.08-.41.41-.41q12.92,0,25.85,0c.3,0,.39.08.39.39q0,13.65,0,27.31a1,1,0,0,1-.25.63,23.41,23.41,0,0,1-5.62,4.78A33.21,33.21,0,0,1,39.87,80a38.48,38.48,0,0,1-4.42.45c-.08,0-.17,0-.23.07Z"/><path class="cls-1" d="M209.35,55a6.5,6.5,0,0,0-.23,1.52c-1.48,9.16-6.46,15.75-14.71,19.87a23.67,23.67,0,0,1-12.12,2.41,25.4,25.4,0,0,1-15.16-5.87,20,20,0,0,1-6.44-9.27.58.58,0,0,1,.12-.66c1.07-1.27,2.12-2.55,3.17-3.82l.26-.29c.2.61.36,1.2.58,1.76a19.47,19.47,0,0,0,14.24,12.44,20.44,20.44,0,0,0,24.42-14.91,19.29,19.29,0,0,0,.62-4.78c0-2.06.08-4.12,0-6.18a19.78,19.78,0,0,0-4-10.77,20.44,20.44,0,0,0-12.12-7.94A19.75,19.75,0,0,0,173,31.09a35,35,0,0,0-6.11,5,151.29,151.29,0,0,0-14.37,16.4l-.28.34c-.13-.1-.07-.22-.07-.33q0-3.49,0-7a.81.81,0,0,1,.17-.56,120.86,120.86,0,0,1,10.11-11.69,48.92,48.92,0,0,1,9.37-7.35,23.19,23.19,0,0,1,9.38-3c13.06-1.41,25.22,8,27.71,20.77a22.35,22.35,0,0,1,.37,2.71c0,.08,0,.18.09.22Z"/><path class="cls-1" d="M131,72c0,1.7,0,3.34,0,5,0,.26-.19.3-.35.37a15.85,15.85,0,0,1-4.77,1.29C112.92,80.25,101.09,71.39,98,59.37a23.45,23.45,0,0,1-.76-5.59c0-2,0-3.92,0-5.88a24.8,24.8,0,0,1,5.85-15.54,25.08,25.08,0,0,1,15.58-9.13,24.76,24.76,0,0,1,21,5.9,25.37,25.37,0,0,1,8.75,15.8,21.06,21.06,0,0,1,.27,3.46q0,15,0,30c0,.42-.11.53-.53.52-1.41,0-2.82,0-4.23,0-.38,0-.48-.08-.48-.47q0-14.89,0-29.8a20.09,20.09,0,0,0-3.84-12.14,19.87,19.87,0,0,0-13.2-8.18,20.69,20.69,0,0,0-23,14.05,18.7,18.7,0,0,0-1,5.6c0,1.91,0,3.83,0,5.75a19.8,19.8,0,0,0,4.9,12.6,20.4,20.4,0,0,0,11.42,6.89,20.17,20.17,0,0,0,11.67-1Z"/><path class="cls-1" d="M52.17,30.75a.27.27,0,0,1-.29-.1,19.54,19.54,0,0,0-9.2-3.88,38,38,0,0,0-7.9-.5,21.53,21.53,0,0,0-17.14,9.1,17,17,0,0,0-3.27,10.1,22.61,22.61,0,0,0,.79,7.19C17.54,60,22.48,64.5,30.09,66a24.46,24.46,0,0,0,6.73.1,27.22,27.22,0,0,0,7.4-1.67.55.55,0,0,0,.43-.62c0-2.3,0-4.59,0-6.89,0-.44-.13-.51-.53-.51-3.92,0-7.85,0-11.77,0-.37,0-.46-.09-.45-.45,0-1.45,0-2.91,0-4.36,0-.3.08-.39.39-.39H49.16c.32,0,.37.11.37.4q0,7.45,0,14.9a.74.74,0,0,1-.3.62,15.62,15.62,0,0,1-6,3.06,31.24,31.24,0,0,1-13.75,1,23.44,23.44,0,0,1-17.15-12A23.89,23.89,0,0,1,9.13,47.25,26.18,26.18,0,0,1,10.06,39,24.44,24.44,0,0,1,20,25.81a26.33,26.33,0,0,1,13.51-4.63A37.17,37.17,0,0,1,48.3,23a27.23,27.23,0,0,1,3.59,1.56c.14.07.28.13.28.34Z"/><path class="cls-1" d="M171.46,50.08a18.7,18.7,0,0,0,2.83,8.49,12.73,12.73,0,0,0,6.11,5.37,9.93,9.93,0,0,0,8.27-.55,10.93,10.93,0,0,0,6.36-10c.07-1.75,0-3.51,0-5.27a11.3,11.3,0,0,0-9.89-11,11.66,11.66,0,0,0-9.64,3.27,141.46,141.46,0,0,0-11,11.87Q158.29,59.44,152.5,67l-.22.27a.55.55,0,0,1-.07-.4c0-2.41,0-4.82,0-7.23a1.05,1.05,0,0,1,.24-.71c3.74-4.94,7.8-9.61,12-14.2,2.15-2.39,4.34-4.73,6.65-7A22.39,22.39,0,0,1,179,32.69a14.2,14.2,0,0,1,10.86.45,16.77,16.77,0,0,1,9.91,11.31,13.31,13.31,0,0,1,.51,3.66c0,1.8.05,3.6,0,5.4A16.21,16.21,0,0,1,194,66.11a16,16,0,0,1-9.86,3.67A15.25,15.25,0,0,1,173.57,66a19.09,19.09,0,0,1-6.23-10.43.58.58,0,0,1,.08-.56c1.32-1.61,2.62-3.23,3.93-4.84C171.36,50.13,171.4,50.12,171.46,50.08Z"/><path class="cls-1" d="M130.81,62v1.84c0,1.05,0,2.09,0,3.14a.66.66,0,0,1-.33.64,11.21,11.21,0,0,1-4.58,1.79,16.82,16.82,0,0,1-19.12-12.2,16,16,0,0,1-.56-4.12c0-1.86-.06-3.72,0-5.58a16.08,16.08,0,0,1,4.26-10.1A16.61,16.61,0,0,1,139.05,44a17.39,17.39,0,0,1,.58,4.65q0,14.91,0,29.8c0,.36-.09.46-.45.45-1.46,0-2.91,0-4.36,0-.38,0-.48-.08-.48-.47q0-14.85,0-29.71a11.3,11.3,0,0,0-2.41-7.29,11.53,11.53,0,0,0-20.11,4.05,9.69,9.69,0,0,0-.38,2.44c0,2.12-.11,4.24,0,6.36a11.19,11.19,0,0,0,8.78,10,12.74,12.74,0,0,0,10.3-2.11Z"/><path class="cls-2" d="M64.46,62.44V48.63a26.54,26.54,0,0,1,2.72-12.16,23.89,23.89,0,0,1,16.72-13,27.12,27.12,0,0,1,14.91.7,15.55,15.55,0,0,1,4,2c.26.19.26.29,0,.51a32.9,32.9,0,0,0-3.15,3.42.3.3,0,0,1-.44.09,19.62,19.62,0,0,0-11.9-2,19.7,19.7,0,0,0-10.88,4.54,19,19,0,0,0-6.29,10.77,25.92,25.92,0,0,0-.51,5.49q0,14.73,0,29.45c0,.39-.1.5-.5.49-1.42,0-2.85,0-4.27,0-.36,0-.46-.09-.46-.45C64.47,73.1,64.46,67.77,64.46,62.44Z"/><path class="cls-1" d="M78.69,62.83c0,5.17,0,10.34,0,15.5,0,.43-.11.54-.53.53-1.42,0-2.85,0-4.27,0-.31,0-.42,0-.42-.39,0-10.23-.08-20.45,0-30.66A16,16,0,0,1,86.38,32.17a18,18,0,0,1,9.91.66c1.21.43,1.19.47.57,1.55a23.59,23.59,0,0,0-1.55,3.2c-.13.33-.25.33-.57.23-4.4-1.44-8.57-1.13-12.27,1.87a10.37,10.37,0,0,0-3.66,6.91,15,15,0,0,0-.12,2.22Z"/><path class="cls-2" d="M157.56,32.89v-.42q0-16,0-32c0-.38.07-.52.49-.51,1.45,0,2.9,0,4.36,0,.29,0,.39.07.39.38q0,13.41,0,26.82a.56.56,0,0,1-.19.5,39.27,39.27,0,0,0-4.71,4.94C157.8,32.73,157.75,32.86,157.56,32.89Z"/><path class="cls-2" d="M166.62,25.36v-.53q0-12.16,0-24.33c0-.4.1-.51.49-.5q2.16,0,4.32,0c.36,0,.42.11.42.44q0,10.47,0,20.94a.61.61,0,0,1-.39.63,30.42,30.42,0,0,0-4.24,2.88Z"/></g></g></svg>