<svg xmlns="http://www.w3.org/2000/svg" viewBox="0 0 2812.65 3462.62"><defs><style>.cls-1{font-size:613.06px;fill:#231f20;font-family:HelveticaNeue-Bold, Helvetica Neue;font-weight:700;letter-spacing:0.1em;}</style></defs><title>Asset 20</title><g id="Layer_2" data-name="Layer 2"><g id="Layer_1-2" data-name="Layer 1"><path d="M1767.85,627.89a19.48,19.48,0,0,0-2.83-11.31,22.68,22.68,0,0,0-14-9.85,25.67,25.67,0,0,0-17.82,2.08,22.08,22.08,0,0,0-11.21,12.8,19.29,19.29,0,0,0,2,16,21.24,21.24,0,0,0,6.92,6.78L1694,660.88a69.34,69.34,0,0,1-4.12-5.69,51.09,51.09,0,0,1-5.29-42.73,56.46,56.46,0,0,1,10.9-19.4,62.27,62.27,0,0,1,18.88-14.72,68.71,68.71,0,0,1,47.45-5.56v.05c15.37,3.74,29,12.77,37.31,26.27a52.62,52.62,0,0,1,5.5,12.31C1792.39,616.93,1780.09,622.41,1767.85,627.89Z"/><path d="M1544,483.64l133.81,70,31.45,16.45.9-33,3.82-140.6,3.81-140.61.3-11.26-10.72-5.61-133.8-70L1439.78,99l-31.45-16.45-.9,33.05-3.82,140.6-3.81,140.61-.31,11.27,10.72,5.6Zm-97.64-227.2,2.91-107.55,102.36,53.53,123.09,64.37-3.51,129.35-2.92,107.55L1566,450.16l-123.09-64.37Z"/><path d="M1811.75,222l-.19,11.26-2.3,140.61L1807,514.48l-.53,32.9,32.09-16.29,136.84-69.44L2112.2,392.2l10.93-5.55.18-11.26,2.31-140.61,2.28-140.61.54-32.89-32.09,16.28L1959.51,147l-136.83,69.45Zm40.18,151.66,2.12-129.33,125.9-63.9,104.75-53.16L2083,235l-2.12,129.33-125.9,63.91-104.75,53.15Z"/><path d="M1312,791.78l10.65,5.7,10.88-5.65,136.11-70.62,136.09-70.63L1637.6,634l-31.12-16.65-133-71.17-133-71.17-10.66-5.69L1318.9,475l-136.1,70.63-136.1,70.63-31.92,16.56,31.12,16.65,133,71.16Zm-108.42-212.9,125.24-65,122.36,65.46L1553,633.87l-104.18,54.07-125.23,65-122.37-65.46L1099.35,633Z"/><polygon points="1753.76 201.37 1787.43 151.1 1821.1 100.82 1789.62 50.41 1758.14 0 1724.47 50.28 1690.8 100.56 1722.28 150.97 1753.76 201.37"/><polygon points="1211.32 413.75 1275.93 413.6 1340.54 413.44 1309.61 362.75 1278.68 312.05 1214.08 312.21 1149.47 312.37 1180.39 363.06 1211.32 413.75"/><path d="M2404.49,417.37q-3.37-55.24-11.09-109.54c.19-.19,0-.38,0-.76a930.89,930.89,0,0,0-69.14-289c-1.13-2.63-2.07-5.26-3.38-7.71A581.32,581.32,0,0,1,2269.58,249c-6.95,15.4-14.65,30.62-23.11,45.27.38.2-27,48.3-44,71-2.26,3-4.32,5.83-6.58,8.64A731.25,731.25,0,0,1,2126,452.13c-6.77,6.76-13.72,13.15-20.67,19.54-41.9,37.95-87.93,71.58-136.59,102.39-48.86,30.64-100.34,58.07-153.32,84-91.32,44.34-185.83,82.11-281.65,117.23-22.74,8.27-45.47,16.35-68.21,24.44v.18c-.75.19-1.5.57-2.44.75a12.88,12.88,0,0,1-2.44.94c-17.29,6.2-34.76,12.22-52,18.23-1,.37-1.7.75-2.64,1.12-1.13.38-2.06.76-3.19,1.13-13.53,4.7-26.87,9.4-40.59,14.09a15.21,15.21,0,0,1-2.81.94l-2.82,1.13c-17.29,6-34.76,12-52.05,18a13.6,13.6,0,0,1-2.44.94,15.37,15.37,0,0,1-2.63.94c-23.86,8.26-47.72,16.72-71.4,25.17-39.08,14.09-78.16,28.18-116.87,42.84-75,28-149,57.88-220.39,92.63-19.35,9.39-38.52,19-57.5,29.13-7,4.69-13.9,9.2-20.85,14.09a942.57,942.57,0,0,0-304,345.16Q491,1441,476.36,1476.51v.18a940.57,940.57,0,0,0-63.13,483.82,903.47,903.47,0,0,0,20.67,106.9A938.46,938.46,0,0,0,677.41,2497.5c-.19-2.82-.19-5.64-.19-8.46v-.38A1508.26,1508.26,0,0,1,731,2087.9c5.27-19.73,10.9-39.08,17.1-58.25,92.63-292.73,271.69-547.14,507.12-733.34a1513.57,1513.57,0,0,1,415.61-233.54c33.63-12.59,68-23.86,102.78-33.82,11.45-3.38,22.92-6.58,34.38-9.4,28.56-7.7,57.3-14.47,86.62-20.48-23.87,9.21-47.54,19.17-70.84,29.5-29.87,13.34-59,27.62-87.74,42.84a1516.19,1516.19,0,0,0-340.64,244.64c-201.8,192.39-350.8,439.47-422.95,717.55-2.63,10-5.07,19.91-7.51,29.87-4.7,19.54-9,39.27-12.78,59-1.31,6.2-2.44,12.59-3.57,18.79,1.69,7.7,11.27,9.2,32.88,4.5,149.19-31.56,289-84,418.06-157.63,65.76-37.4,128.14-76.85,187.89-118.56,7-4.89,13.9-9.77,20.85-14.84,1.69-1,3.58-1.88,5.26-2.64.19,0,.19-.18.38-.18.19-.19.38-.38.56-.38a.19.19,0,0,1,.19-.19L1881,1666.64a1524.36,1524.36,0,0,0,272.06-308.32,1511.14,1511.14,0,0,0,183.76-382.73c8.08-25.18,15.41-50.54,22-76.29A1516.2,1516.2,0,0,0,2407.68,516C2407.68,482.94,2406.56,450.06,2404.49,417.37Z"/><text class="cls-1" transform="translate(0 3167.74)">Khaoxin</text></g></g></svg>