<svg xmlns="http://www.w3.org/2000/svg" viewBox="0 0 158.56 189.68"><defs><style>.cls-1{font-size:42.57px;fill:#218ccc;font-family:VNF-Dax;}.cls-2{fill:#231f20;}.cls-3{fill-rule:evenodd;}</style></defs><title>Asset 6</title><g id="Layer_2" data-name="Layer 2"><g id="Layer_1-2" data-name="Layer 1"><text class="cls-1" transform="translate(0 179.89)">K<tspan class="cls-2" x="22.09" y="0">HAOXIN</tspan></text><path class="cls-3" d="M79.26,0c4.33,18.47,9.58,19.43,18.55,33.31,2.33,3.6,4,7.44,4,11.84a21.31,21.31,0,0,1-6.62,15.72,22.44,22.44,0,0,1-31.73,0,21.32,21.32,0,0,1-6.63-15.72c0-4.42,1.66-8.29,4-11.91C69.79,19.39,75,18.41,79.26,0ZM66.43,39.39a2.28,2.28,0,0,1,2.48,2.07,21.86,21.86,0,0,0,2.21,8.23,14.57,14.57,0,0,0,5.68,5.87,2.28,2.28,0,0,1-2.3,3.93,19,19,0,0,1-7.42-7.68,26.48,26.48,0,0,1-2.71-9.94,2.28,2.28,0,0,1,2.06-2.48Z"/><path class="cls-3" d="M110.39,59.74c4.33,18.48,9.58,19.43,18.55,33.31,2.33,3.61,4,7.44,4,11.84a21.32,21.32,0,0,1-6.62,15.73,22.46,22.46,0,0,1-31.73,0,21.33,21.33,0,0,1-6.63-15.73c0-4.42,1.66-8.28,4-11.91,9-13.85,14.22-14.82,18.46-33.24ZM97.56,99.14A2.27,2.27,0,0,1,100,101.2a22,22,0,0,0,2.21,8.23,14.65,14.65,0,0,0,5.68,5.88,2.27,2.27,0,1,1-2.3,3.92,19,19,0,0,1-7.42-7.67,26.72,26.72,0,0,1-2.71-10,2.28,2.28,0,0,1,2.06-2.47Z"/><path class="cls-3" d="M48.13,59.74c4.32,18.48,9.58,19.43,18.55,33.31,2.33,3.61,4,7.44,4,11.84A21.36,21.36,0,0,1,64,120.62a21.84,21.84,0,0,1-15.88,6.56,21.8,21.8,0,0,1-15.85-6.56,21.33,21.33,0,0,1-6.63-15.73c0-4.42,1.65-8.28,4-11.91,9-13.85,14.22-14.82,18.46-33.24ZM35.3,99.14a2.26,2.26,0,0,1,2.47,2.06A22.05,22.05,0,0,0,40,109.43a14.59,14.59,0,0,0,5.68,5.88,2.27,2.27,0,0,1-2.3,3.92A19,19,0,0,1,36,111.56a26.53,26.53,0,0,1-2.71-10,2.27,2.27,0,0,1,2.06-2.47Z"/></g></g></svg>