<svg xmlns="http://www.w3.org/2000/svg" viewBox="0 0 170.76 189.68"><defs><style>.cls-1{font-size:42.57px;fill:#218ccc;font-family:VNF-Dax;}.cls-2{fill:#231f20;}.cls-3,.cls-6{fill-rule:evenodd;}.cls-4,.cls-6{fill:#208ccc;}.cls-5{fill:none;}.cls-7{font-size:12px;fill:#fff;font-family:UDDigiKyokashoNP-B, UD Digi Kyokasho NP-B;letter-spacing:-0.1em;}</style></defs><title>Asset 5</title><g id="Layer_2" data-name="Layer 2"><g id="Layer_1-2" data-name="Layer 1"><text class="cls-1" transform="translate(0 179.89)">K<tspan class="cls-2" x="22.09" y="0">HAOXIN</tspan></text><path class="cls-3" d="M79.26,0c4.33,18.47,9.58,19.43,18.55,33.31,2.33,3.6,4,7.44,4,11.84a21.31,21.31,0,0,1-6.62,15.72,22.44,22.44,0,0,1-31.73,0,21.32,21.32,0,0,1-6.63-15.72c0-4.42,1.66-8.29,4-11.91C69.79,19.39,75,18.41,79.26,0ZM66.43,39.39a2.28,2.28,0,0,1,2.48,2.07,21.86,21.86,0,0,0,2.21,8.23,14.57,14.57,0,0,0,5.68,5.87,2.28,2.28,0,0,1-2.3,3.93,19,19,0,0,1-7.42-7.68,26.48,26.48,0,0,1-2.71-9.94,2.28,2.28,0,0,1,2.06-2.48Z"/><path class="cls-3" d="M110.39,59.74c4.33,18.48,9.58,19.43,18.55,33.31,2.33,3.61,4,7.44,4,11.84a21.32,21.32,0,0,1-6.62,15.73,22.46,22.46,0,0,1-31.73,0,21.33,21.33,0,0,1-6.63-15.73c0-4.42,1.66-8.28,4-11.91,9-13.85,14.22-14.82,18.46-33.24ZM97.56,99.14A2.27,2.27,0,0,1,100,101.2a22,22,0,0,0,2.21,8.23,14.65,14.65,0,0,0,5.68,5.88,2.27,2.27,0,1,1-2.3,3.92,19,19,0,0,1-7.42-7.67,26.72,26.72,0,0,1-2.71-10,2.28,2.28,0,0,1,2.06-2.47Z"/><path class="cls-3" d="M48.13,59.74c4.32,18.48,9.58,19.43,18.55,33.31,2.33,3.61,4,7.44,4,11.84A21.36,21.36,0,0,1,64,120.62a21.84,21.84,0,0,1-15.88,6.56,21.8,21.8,0,0,1-15.85-6.56,21.33,21.33,0,0,1-6.63-15.73c0-4.42,1.65-8.28,4-11.91,9-13.85,14.22-14.82,18.46-33.24ZM35.3,99.14a2.26,2.26,0,0,1,2.47,2.06A22.05,22.05,0,0,0,40,109.43a14.59,14.59,0,0,0,5.68,5.88,2.27,2.27,0,0,1-2.3,3.92A19,19,0,0,1,36,111.56a26.53,26.53,0,0,1-2.71-10,2.27,2.27,0,0,1,2.06-2.47Z"/><rect class="cls-4" x="147.53" y="109.98" width="17.15" height="29.99"/><polygon class="cls-5" points="164.68 103.91 141.46 103.91 141.46 146.05 170.76 146.05 170.76 109.98 158.61 109.98 158.61 133.9 153.6 133.9 153.6 116.05 164.68 116.05 164.68 103.91"/><path class="cls-6" d="M164.68,106.1c-.15,0-.25,0-.23-.12S164.7,106,164.68,106.1Z"/><path class="cls-6" d="M164.39,105.17c-.15.07.18.37-.18.36.06-.1-.21-.24.06-.24-.07-.16-.12,0-.29,0C164,105.09,164.13,105.16,164.39,105.17Z"/><path class="cls-6" d="M164.33,111.81c0,.16,0,.31-.24.32C164.13,112,164.15,111.84,164.33,111.81Z"/><path class="cls-6" d="M164,107.72c0,.14-.31.21-.41.16A.28.28,0,0,1,164,107.72Z"/><path class="cls-6" d="M164,109.38a.38.38,0,0,1-.41.08A.47.47,0,0,1,164,109.38Z"/><path class="cls-6" d="M164,109.5c-.14.09,0,.2,0,.32-.2,0-.3.15-.53.16.06-.1.09-.23.29-.24,0-.17-.32.06-.29-.16C163.78,109.62,163.84,109.51,164,109.5Z"/><path class="cls-6" d="M164,107.6c-.19,0-.34-.07-.3-.25C163.74,107.47,164,107.45,164,107.6Z"/><path class="cls-6" d="M163.92,108.33a.24.24,0,0,1-.18-.25s.11,0,.12-.08C164.06,108.07,163.91,108.2,163.92,108.33Z"/><path class="cls-6" d="M163.21,112.78a.25.25,0,0,1-.23.2C163,112.85,163.08,112.8,163.21,112.78Z"/><path class="cls-6" d="M163.1,104.52c.05.15-.2.19-.3.12S162.93,104.51,163.1,104.52Z"/><path class="cls-6" d="M162.86,105.45c-.18,0-.23-.06-.35-.08S162.89,105.32,162.86,105.45Z"/><path class="cls-6" d="M162.45,105.37c-.65.1-.62-.72-.53-1,.26.1.29.34.65.36C162.75,105,162.32,105.19,162.45,105.37Z"/><path class="cls-6" d="M161.46,112.86c0,.07,0,.17-.18.16,0-.17,0-.09-.18-.08a.14.14,0,0,0,.06-.12C161.3,112.8,161.29,112.89,161.46,112.86Z"/><path class="cls-6" d="M157.94,104c0,.06-.11.07-.12.13s-.13-.11-.12-.21C157.86,103.88,157.82,104,157.94,104Z"/><path class="cls-6" d="M156.94,104.28c0-.11-.11-.14-.18-.2C156.81,103.86,157.36,104.28,156.94,104.28Z"/><path class="cls-6" d="M152.72,104.68c-.09,0-.11.09-.1.16C152.15,104.87,152.26,104.64,152.72,104.68Z"/><path class="cls-6" d="M142.07,105.36c.24.73-.24.73,0,0Z"/><path class="cls-6" d="M142.11,116.93c.13.08.22.3,0,.29A.48.48,0,0,0,142.11,116.93Z"/><path class="cls-6" d="M141.91,117.34c.12,0,.12.18.12.35a.17.17,0,0,0-.12-.06C142,117.52,141.88,117.53,141.91,117.34Z"/><path class="cls-6" d="M142,117.93c.14,0,.17.34,0,.29Z"/><path class="cls-6" d="M142.19,118.28c.08.08.18.31.12.41s-.08-.07-.16-.06A.61.61,0,0,1,142.19,118.28Z"/><path class="cls-6" d="M142.19,120c.05.09.12.14.12.29C142.16,120.32,142.12,120.08,142.19,120Z"/><path class="cls-6" d="M142.92,121.92c.14,0,.17.27.12.35S142.94,122.06,142.92,121.92Z"/><path class="cls-6" d="M152.43,123c.16.14,0,.15.24.06,0,.22-.1.17-.08.35-.12,0-.08,0-.2,0C152.43,123.22,152.39,123.16,152.43,123Z"/><path class="cls-6" d="M152.55,123.85c.09,0,0,.33,0,.47-.14,0,0-.33-.2-.29C152.37,123.86,152.54,124,152.55,123.85Z"/><path class="cls-6" d="M152.51,126.08c.08,0,.11.16.12.29C152.46,126.39,152.47,126.23,152.51,126.08Z"/><path class="cls-6" d="M143.24,126.67c.22.14.08-.12.25-.24.15,0-.18.33,0,.29,0,.08-.08.1-.09.18s-.06-.1-.12-.12,0,.39-.24.35C143.13,126.9,143.24,127,143.24,126.67Z"/><path class="cls-6" d="M143.53,126.9c.12.08,0,.29,0,.47-.09-.06-.09-.23-.09-.41A.07.07,0,0,0,143.53,126.9Z"/><path class="cls-6" d="M143.28,127.31c.09,0,.09.15.08.29S143.22,127.39,143.28,127.31Z"/><path class="cls-6" d="M143.81,128.07c.15,0,.25.67.08.76,0-.14.11-.34-.12-.41C143.74,128.25,143.84,128.25,143.81,128.07Z"/><path class="cls-6" d="M152.75,128.72c-.08.22.09.44-.12.47C152.68,129,152.61,128.73,152.75,128.72Z"/><path class="cls-6" d="M152.19,128.89a1.52,1.52,0,0,1,.12.36C152.18,129.19,152.14,129.06,152.19,128.89Z"/><path class="cls-6" d="M144.05,131c.13,0,.18.35.12.47A1.47,1.47,0,0,1,144.05,131Z"/><path class="cls-6" d="M143.57,131.24c0-.07.07-.05.12-.06,0,.23.09.44-.08.53A.84.84,0,0,0,143.57,131.24Z"/><path class="cls-6" d="M152.91,131.83c0,.14,0,.38-.16.41C152.73,132,152.79,131.86,152.91,131.83Z"/><path class="cls-6" d="M152.87,132.71a.76.76,0,0,1-.12.52c-.17-.06.12-.37-.08-.35C152.66,132.7,152.8,132.76,152.87,132.71Z"/><path class="cls-6" d="M144.62,133.58h.12c0,.28,0,.22,0,.54-.06,0-.1.13-.16.18a2.23,2.23,0,0,0,.12.34c0,.12-.12,0-.12.18-.11-.08-.09-.64,0-.69A.75.75,0,0,1,144.62,133.58Z"/><path class="cls-6" d="M152.71,134c.08,0,.18,0,.16,0S152.67,134.05,152.71,134Z"/><path class="cls-6" d="M151.54,135.37c.1-.05-.06.12,0,.14l.24-.23c0,.15.09.2,0,.43h0l.08-.08.06-.07h0s-.09.15-.09.2c-.16.16-.22.13-.13,0a.63.63,0,0,0-.16.13c.11-.19,0-.16.16-.36,0-.14-.2,0-.4.11A1.1,1.1,0,0,0,151.54,135.37Z"/><path class="cls-6" d="M150.73,136.25c-.08.2,0,.22,0,.29s-.06,0-.12.06-.06.21,0,.26.21-.07.26,0a.86.86,0,0,1-.41.18c0-.07,0-.18,0-.25s.06-.21.16-.32-.05.06-.12.1S150.63,136.35,150.73,136.25Z"/><path class="cls-6" d="M144.42,141.49c.15,0,.17.44.08.82A3,3,0,0,1,144.42,141.49Z"/><path class="cls-6" d="M147.45,139c.13,0,.11-.11.2-.11,0,.24-.13.07-.16.31C147.44,139.22,147.46,139.07,147.45,139Z"/><path class="cls-6" d="M147.61,139.2c.22,0-.2.55-.28.37C147.52,139,147.46,139.7,147.61,139.2Z"/><path class="cls-6" d="M153.12,134.36a1.41,1.41,0,0,0-.17.18c0,.05-.07.06-.08.06Z"/><path class="cls-6" d="M149.67,138c0-.05-.07-.07-.09-.11a1.06,1.06,0,0,1,.1-.17v.09C149.75,137.86,149.77,137.91,149.67,138Z"/><path class="cls-6" d="M148.38,139.12c.33-.18.2,0,.54-.2-.22.14-.06.1-.17.24S148.38,139.21,148.38,139.12Z"/><path class="cls-6" d="M145.42,142.68c.27-.13.47,0,.91-.08-.07.1-.23.13-.39.17A2.09,2.09,0,0,0,145.42,142.68Z"/><path class="cls-6" d="M151.1,136.74c.15-.05-.1.17-.06.2s-.11,0-.16,0C151,136.85,151,136.82,151.1,136.74Z"/><path class="cls-6" d="M152.41,135.24c.06,0,.19-.11.15,0S152.45,135.25,152.41,135.24Z"/><path class="cls-6" d="M149,139.65a.54.54,0,0,1,.53-.12C149.33,139.58,149.14,139.6,149,139.65Z"/><path class="cls-6" d="M153.27,134.35c.07-.08.08-.06,0,.08S153.25,134.39,153.27,134.35Z"/><path class="cls-6" d="M149.2,140c0-.13.37-.29.57-.32-.06.07,0,.08.06.08-.2.13-.51.46-.71.37,0-.14.26-.07.35-.17S149.23,140,149.2,140Z"/><path class="cls-6" d="M147.37,142.68c-.1-.16.4-.08.67-.12C147.94,142.8,147.63,142.54,147.37,142.68Z"/><path class="cls-6" d="M152.85,135.2c.09-.15.12-.08.1,0S152.81,135.29,152.85,135.2Z"/><path class="cls-6" d="M150.33,139.69c.21-.23.47.08,0,0Z"/><path class="cls-6" d="M152.55,135.8c.09-.16.22-.27.22-.2A.5.5,0,0,1,152.55,135.8Z"/><path class="cls-6" d="M149.36,142.6c-.19-.1.44-.13.72-.12C150,142.66,149.42,142.56,149.36,142.6Z"/><path class="cls-6" d="M151.21,139.12a.27.27,0,0,1,.35,0C151.47,139.22,151.39,139.07,151.21,139.12Z"/><path class="cls-6" d="M153,135.56c0-.09.09,0,.05.08S153,135.58,153,135.56Z"/><path class="cls-6" d="M150.69,143.17a1.29,1.29,0,0,1,.83-.12C151.42,143.2,150.94,143.22,150.69,143.17Z"/><path class="cls-6" d="M152.08,139.24c0-.06.1-.1.14-.16s.11.07,0,.08.06,0,.1,0S152.12,139.3,152.08,139.24Z"/><path class="cls-6" d="M153.12,135.6c0-.13.14-.09.15-.08S153.15,135.68,153.12,135.6Z"/><path class="cls-6" d="M152.05,139.53c0-.16.23-.19.3-.12A.3.3,0,0,1,152.05,139.53Z"/><path class="cls-6" d="M152.94,136.29c0-.11.09-.12.15-.12C153.07,136.33,153,136.34,152.94,136.29Z"/><path class="cls-6" d="M153.22,135.44c0-.1.11.06.11-.16h.07c0,.1-.05.12-.07.2S153.28,135.42,153.22,135.44Z"/><path class="cls-6" d="M152.48,138.84s.06,0,.07-.08h.09c-.15.05.18.25-.11.28a.08.08,0,0,1,.07-.08A.18.18,0,0,0,152.48,138.84Z"/><path class="cls-6" d="M151.77,143.13c0-.18.62-.1,1-.12C152.62,143.14,152.19,143.13,151.77,143.13Z"/><path class="cls-6" d="M153.29,135.56c0-.09.09,0,.13,0C153.4,135.71,153.32,135.6,153.29,135.56Z"/><path class="cls-6" d="M153.45,135.4c0-.11.08,0,.08.08s0-.13.22,0c-.17.08-.18.11-.21.1A.21.21,0,0,1,153.45,135.4Z"/><path class="cls-6" d="M153.23,142.44c0-.08.19,0,.25-.16.21,0,.26.16.15.24,0-.09-.57,0-.48-.12S153.22,142.42,153.23,142.44Z"/><path class="cls-6" d="M154.33,135.48c0-.14.35-.11.59-.12A1.18,1.18,0,0,1,154.33,135.48Z"/><path class="cls-6" d="M154.39,142.77v-.13a3.24,3.24,0,0,1,1.12,0C155.27,142.8,154.78,142.72,154.39,142.77Z"/><path class="cls-6" d="M154.45,134.15h.23c0,.1-.09.12-.11.2C154.38,134.3,154.54,134.26,154.45,134.15Z"/><path class="cls-6" d="M155.09,139.16c.07.13,0,.11-.05.21,0-.1-.25-.08-.36-.13,0-.07.11,0,.18,0S154.91,139.12,155.09,139.16Z"/><path class="cls-6" d="M155.15,140.94c0-.06.06-.07.06-.12s.18.07.35,0c-.31.12.13.08-.17.21S155.34,140.91,155.15,140.94Z"/><path class="cls-6" d="M155.27,136.45c.18,0,.35-.16.41,0A.58.58,0,0,1,155.27,136.45Z"/><path class="cls-6" d="M155.33,139c0-.12.2-.05.12-.2.32,0,.2.09.58.08C156,139.08,155.52,138.79,155.33,139Z"/><path class="cls-6" d="M155.74,140.66c0,.14.19.23.06.41-.23-.08-.1-.36-.29-.33S155.63,140.6,155.74,140.66Z"/><path class="cls-6" d="M156.15,142.68v-.16h.24C156.3,142.57,156.32,142.69,156.15,142.68Z"/><path class="cls-6" d="M156.27,135.28c-.16-.05.23-.05.29-.08,0,.18.16-.06.12.12C156.49,135.34,156.47,135.25,156.27,135.28Z"/><path class="cls-6" d="M156.27,137.75c0-.1.1-.09.06-.21a.28.28,0,0,0,.29.09C156.57,137.71,156.45,137.75,156.27,137.75Z"/><path class="cls-6" d="M156.68,142.56a2.36,2.36,0,0,1,1.41-.08A3.11,3.11,0,0,1,156.68,142.56Z"/><path class="cls-6" d="M156.91,141.63a.69.69,0,0,0,.18-.24,1.62,1.62,0,0,0,.41,0C157.5,141.63,157.14,141.59,156.91,141.63Z"/><path class="cls-6" d="M157.15,142V142s0,0,.06,0,0,0,0,.08c.16,0,.12-.07.24,0S157.25,142,157.15,142Z"/><path class="cls-6" d="M157.21,139.65a1.58,1.58,0,0,1,.41,0c0,.11-.27.08-.3.2A.16.16,0,0,1,157.21,139.65Z"/><path class="cls-6" d="M157.5,140.22v.08c-.16,0-.12.06-.24,0v-.08C157.38,140.15,157.34,140.22,157.5,140.22Z"/><path class="cls-6" d="M158.09,141a.64.64,0,0,1,.35-.09C158.4,141.11,158.28,141,158.09,141Z"/><path class="cls-6" d="M158.09,139.45s0,0,0,0,.11,0,.18,0c-.1.08-.13.12-.06.24C158,139.73,158.18,139.45,158.09,139.45Z"/><path class="cls-6" d="M158.09,136.57c0-.06,0-.07,0-.12a.31.31,0,0,0,.28,0,.93.93,0,0,1,.24-.05c0,.1,0,.13,0,.2A1.91,1.91,0,0,0,158.09,136.57Z"/><path class="cls-6" d="M158.09,134c0-.09.26,0,.17-.12.06,0,.22,0,.18.12C158.25,134,158.21,134.11,158.09,134Z"/><path class="cls-6" d="M158.44,136.78c0-.11,0-.05.11,0s0-.05.06-.09.09,0,.08.13S158.64,136.76,158.44,136.78Z"/><path class="cls-6" d="M158.66,136.57s0-.19.05-.24,0,.14.07.12C158.8,136.58,158.74,136.58,158.66,136.57Z"/><path class="cls-6" d="M158.88,143.17c0-.13.25-.15.53-.16C159.28,143.08,159.11,143.26,158.88,143.17Z"/><path class="cls-6" d="M158.73,136.86c0-.08.07-.05,0-.16s0,.22.1.16S158.74,136.88,158.73,136.86Z"/><path class="cls-6" d="M158.71,135.2c0,.05,0,0,.09,0S158.72,135.38,158.71,135.2Z"/><path class="cls-6" d="M158.83,136.37c0-.09.1,0,.12,0s0,0,0,0,.06,0,.07.12S158.9,136.4,158.83,136.37Z"/><path class="cls-6" d="M158.62,134v-.08C158.66,134.1,158.62,134,158.62,134Z"/><path class="cls-6" d="M159.93,142.4c0-.07.06-.08.07,0s.06-.05.07-.08c.27,0,.32.14.2.2S160.15,142.37,159.93,142.4Z"/><path class="cls-6" d="M159,136.45s0-.07.08-.08a.08.08,0,0,0,0,.08C159.14,136.55,159,136.48,159,136.45Z"/><path class="cls-6" d="M158.87,135.6c0-.12,0,0,.07,0l0,.08s0,0-.05,0S158.89,135.61,158.87,135.6Z"/><path class="cls-6" d="M158.84,135.36c0-.15,0-.12,0-.16C158.94,135.38,158.85,135.3,158.84,135.36Z"/><path class="cls-6" d="M159,136a.41.41,0,0,0,0-.21c.16.17,0-.25.15-.12s0,.21,0,.33a.12.12,0,0,0,.12.08C159.21,136.16,159.06,136,159,136Z"/><path class="cls-6" d="M159.79,140.3c-.09-.15.3-.08.36,0S159.89,140.27,159.79,140.3Z"/><path class="cls-6" d="M159.14,136.65h.11c.05.13-.06.08,0,.21A.51.51,0,0,1,159.14,136.65Z"/><path class="cls-6" d="M158.64,134l0-.12c.06.17,0,0,0,.12S158.68,134.13,158.64,134Z"/><path class="cls-6" d="M160.12,137.22a.23.23,0,0,0,0-.12c.11,0,.24,0,.34,0s-.13.05,0,.2A.62.62,0,0,0,160.12,137.22Z"/><path class="cls-6" d="M162.37,142c.2-.25.87,0,1.15-.17l.1.17C163,141.92,163,142.07,162.37,142Z"/><path class="cls-6" d="M162.2,141.63a1,1,0,0,1,.77-.08C163,141.7,162.46,141.61,162.2,141.63Z"/><path class="cls-6" d="M160.48,137.54c0-.12.17,0,.33-.08l.13.21A2.23,2.23,0,0,1,160.48,137.54Z"/><path class="cls-6" d="M163.29,142.4a.91.91,0,0,1,.55,0A.7.7,0,0,1,163.29,142.4Z"/><path class="cls-6" d="M160.8,137.34c-.07-.2-.19-.14-.28-.2s0-.18.14-.16.14.08.2.2C160.69,137.13,161,137.37,160.8,137.34Z"/><path class="cls-6" d="M161.57,138.76c-.11,0,.22-.11.3,0S161.7,138.75,161.57,138.76Z"/><path class="cls-6" d="M163.27,141.55c-.12-.2.64.11.5-.12a1.16,1.16,0,0,0,.18,0s.05,0,.1,0A1.41,1.41,0,0,1,163.27,141.55Z"/><path class="cls-6" d="M159.26,134.91c-.11-.21,0-.18,0-.16C159.41,135,159.2,134.78,159.26,134.91Z"/><path class="cls-6" d="M163.9,142l-.08-.13c.69,0,1.12-.08,1.58,0C165,142,164.51,141.88,163.9,142Z"/><path class="cls-6" d="M160.47,136.74c-.12-.16.12,0,.16,0C160.72,136.85,160.54,136.72,160.47,136.74Z"/><path class="cls-6" d="M164.36,142.4c-.16-.16.41-.05.59-.08C165,142.43,164.61,142.49,164.36,142.4Z"/><path class="cls-6" d="M165.43,142.4c-.16-.16.38-.24.49,0Z"/><path class="cls-6" d="M159.32,134.79c-.08-.11,0-.09,0,0S159.37,134.82,159.32,134.79Z"/><path class="cls-6" d="M163.71,140c0-.09.36,0,.49,0S163.89,140,163.71,140Z"/><path class="cls-6" d="M160.41,136.05c0-.1,0-.09-.18-.25.25.27.17,0,.45.29C160.52,136,160.49,136,160.41,136.05Z"/><path class="cls-6" d="M166.22,142.56c-.1-.12.26-.13.43-.08S166.45,142.56,166.22,142.56Z"/><path class="cls-6" d="M165.89,141.83c-.12-.14.29-.14.6-.05,0,0,.06,0,.09,0v.12C166.33,141.89,166.15,141.82,165.89,141.83Z"/><path class="cls-6" d="M165.48,141.23c0-.07.15-.2.35,0C165.58,141.2,165.68,141.3,165.48,141.23Z"/><path class="cls-6" d="M160.77,136.21c-.09-.11,0-.1.06-.08a.24.24,0,0,0,0-.12c.13.15.09.16.06.18S160.76,136.14,160.77,136.21Z"/><path class="cls-6" d="M167.09,142.77c0-.08.09-.12.25-.14l0-.4.16.15a2.54,2.54,0,0,0,0,.39A1.26,1.26,0,0,1,167.09,142.77Z"/><path class="cls-6" d="M161.33,136.7l-.15-.17h.06s0,0,0-.05a.44.44,0,0,1,.1.19S161.34,136.68,161.33,136.7Z"/><path class="cls-6" d="M160.51,135.78c.07.08.23.19.21.23h0c-.08-.08-.17-.16-.17-.19Z"/><path class="cls-6" d="M165.81,140.72c0,.2,0,.29-.12.16s-.07-.22,0-.38C165.74,140.55,165.76,140.65,165.81,140.72Z"/><path class="cls-6" d="M167.39,142.13a1.6,1.6,0,0,1,0-1.18c0,.34.15,1,0,1.06A.12.12,0,0,0,167.39,142.13Z"/><path class="cls-6" d="M160.19,135.34s0,0,0-.06-.06-.09-.16-.18c.09,0,.06,0,0-.12.09.08.08,0,.2.14C160.1,135.12,160.15,135.19,160.19,135.34Z"/><path class="cls-6" d="M159.5,134.7c-.15-.13-.05-.08-.08-.12S159.54,134.7,159.5,134.7Z"/><path class="cls-6" d="M167.19,141.36c-.05-.18-.11-.53,0-.61A1.21,1.21,0,0,1,167.19,141.36Z"/><path class="cls-6" d="M166.87,140.84c0-.29.14-.17.2,0S167,140.94,166.87,140.84Z"/><path class="cls-6" d="M159.5,134.62c-.16-.15-.05-.12,0-.13S159.53,134.62,159.5,134.62Z"/><path class="cls-6" d="M159.78,134.82c-.07,0-.2-.21,0,0S159.68,134.74,159.78,134.82Z"/><path class="cls-6" d="M162.45,136.88c0-.08-.24-.63,0-.52-.08.24.48.44.29.61C162.62,136.82,162.42,136.61,162.45,136.88Z"/><path class="cls-6" d="M164.56,138c-.18-.51.14-.47.12-.86.25.27,0,.4,0,.85-.06,0-.07-.1-.12-.14S164.56,137.91,164.56,138Z"/><path class="cls-6" d="M165.53,138.32a.27.27,0,0,1,.16.31C165.62,138.7,165.53,138.5,165.53,138.32Z"/><path class="cls-6" d="M161.73,136c-.13-.14-.09-.27,0-.33C161.87,135.79,161.72,135.85,161.73,136Z"/><path class="cls-6" d="M160.8,135.36a.24.24,0,0,1-.09-.16C160.85,135.28,160.86,135.37,160.8,135.36Z"/><path class="cls-6" d="M167.11,139.08a4.67,4.67,0,0,1-.08-.78C167.23,138.19,167.1,138.75,167.11,139.08Z"/><path class="cls-6" d="M162.5,136.12c-.1.09-.21-.31,0-.15C162.55,136.08,162.39,136.05,162.5,136.12Z"/><path class="cls-6" d="M164.52,137.22c-.11,0,0-.24-.12-.3s.08-.06.16,0S164.57,137.17,164.52,137.22Z"/><path class="cls-6" d="M163.91,136.67c-.11,0-.08-.14-.16-.18s0-.4.12-.3C163.85,136.38,163.94,136.47,163.91,136.67Z"/><path class="cls-6" d="M164.6,135.29c-.08.34.15,1-.08,1-.08-.3.12-.48-.08-.77a5.18,5.18,0,0,0,.08,1.34c.08-.17.13.17.2.21.19-.46,0-.83,0-1.46,0-.16-.08-.06-.12-.15S164.65,135.33,164.6,135.29Zm0,1.41c-.15,0-.07-.33,0-.36S164.62,136.59,164.64,136.7Z"/><path class="cls-6" d="M163.83,136c-.09-.05,0-.25,0-.36C163.92,135.76,163.83,135.93,163.83,136Z"/><path class="cls-6" d="M160.67,134.56c.15.09,0,.1,0,.2C160.65,134.68,160.63,134.6,160.67,134.56Z"/><path class="cls-6" d="M159.46,134.24c-.14-.06,0-.14,0-.16s0,.08.16.19C159.52,134.23,159.42,134.2,159.46,134.24Z"/><path class="cls-6" d="M160.23,134.51c-.18-.13-.11-.21-.08-.28C160.27,134.32,160.23,134.41,160.23,134.51Z"/><path class="cls-6" d="M164.07,135.75v-.26C164.2,135.73,164.42,135.79,164.07,135.75Z"/><path class="cls-6" d="M167.27,136.42c-.08.05-.07.33-.2.26,0-.3-.18-.18-.12-.52,0,0,0,.17.08.19l.12-.22C167.24,136.13,167.19,136.39,167.27,136.42Z"/><path class="cls-6" d="M164.88,135.85c-.09-.13,0-.36-.08-.39C164.94,135.31,164.92,135.69,164.88,135.85Z"/><path class="cls-6" d="M163.79,135.51c-.07-.07,0-.23-.08-.32C163.89,135.15,163.84,135.46,163.79,135.51Z"/><path class="cls-6" d="M163.3,135.36a2,2,0,0,0-.16-.14.2.2,0,0,0-.08-.28c.06-.06.11-.13.2-.14A4.92,4.92,0,0,0,163.3,135.36Z"/><path class="cls-6" d="M167.55,136.59c-.1,0-.08-.32-.08-.54C167.53,136.19,167.62,136.46,167.55,136.59Z"/><path class="cls-6" d="M164.2,135.42c-.09-.15-.21,0-.21-.21C164.06,135.14,164.18,135.27,164.2,135.42Z"/><path class="cls-6" d="M162.66,134.92c-.13-.09,0-.16,0-.27C162.81,134.71,162.7,134.86,162.66,134.92Z"/><path class="cls-6" d="M165.33,135.53c-.14,0-.17-.34-.12-.41s.1.13,0,.13.07.07.12.09A.45.45,0,0,0,165.33,135.53Z"/><path class="cls-6" d="M166.58,135.68c-.07-.29-.2-.84,0-1.08A2,2,0,0,1,166.58,135.68Z"/><path class="cls-6" d="M160.88,134.39c-.14-.1,0-.22,0-.34C160.93,134.1,160.88,134.3,160.88,134.39Z"/><path class="cls-6" d="M161.48,134.21c0,.08.08.1,0,.14a.27.27,0,0,0-.12,0s.07-.06,0-.08,0,0,0,0Z"/><path class="cls-6" d="M161.69,134.2s0,0,0,0,0-.09.08-.09,0,.15.16.14-.22,0-.2,0A.13.13,0,0,1,161.69,134.2Z"/><path class="cls-6" d="M167.31,134.83c-.15,0-.1-.63,0-.5A2.41,2.41,0,0,0,167.31,134.83Z"/><path class="cls-6" d="M166.58,134.52c-.06,0-.07-.07-.12-.08s0-.33.12-.3Z"/><path class="cls-6" d="M161.52,134a.12.12,0,0,0,.08.06c0,.08-.16-.07-.12.08-.08,0,0-.08-.16-.06s.16-.08,0-.11c0-.08.13,0,.2,0S161.55,134,161.52,134Z"/><path class="cls-6" d="M167.51,134.34c-.13-.1,0-.48,0-.55S167.49,134.15,167.51,134.34Z"/><path class="cls-6" d="M166.58,134.06c-.07.05-.11-.07-.12-.19a.33.33,0,0,1,0-.26C166.66,133.58,166.55,133.85,166.58,134.06Z"/><path class="cls-6" d="M163.1,134H163c0-.08,0-.39.12-.38C163,133.72,163.08,133.91,163.1,134Z"/><path class="cls-6" d="M165.49,133.73a1.52,1.52,0,0,1-.36-.18S165.52,133.49,165.49,133.73Z"/><path class="cls-6" d="M166.58,133.44c-.07,0-.08-.07-.16-.06,0-.35,0-.67,0-.82C166.65,132.72,166.54,133,166.58,133.44Z"/><path class="cls-6" d="M159.3,133.32c-.08,0-.07-.41.08-.29S159.27,133.14,159.3,133.32Z"/><path class="cls-6" d="M167.8,133c-.18,0,0-.35.08-.3S167.77,132.85,167.8,133Z"/><path class="cls-6" d="M167.84,132.32h-.12c.09-.41-.11-.66,0-1C167.93,131.69,167.73,132,167.84,132.32Z"/><path class="cls-6" d="M166.54,132.32c-.11-.08,0-.19-.08-.47C166.62,131.82,166.51,132.18,166.54,132.32Z"/><path class="cls-6" d="M161.77,132c-.2-.12.1-.35-.08-.41.09-.19.14.17.16.29A.17.17,0,0,0,161.77,132Z"/><path class="cls-6" d="M159.78,131.44c-.05-.23,0-.89,0-1.05C159.89,130.48,159.82,131.23,159.78,131.44Z"/><path class="cls-6" d="M163.18,131.39c-.11-.21.1-.46.12-.65C163.48,131,163.24,131.13,163.18,131.39Z"/><path class="cls-6" d="M160.84,131.39c-.14,0-.29,0-.29-.18C160.68,131.23,160.83,131.2,160.84,131.39Z"/><path class="cls-6" d="M167.76,131.27c-.09-.05-.13-.33,0-.3A.62.62,0,0,1,167.76,131.27Z"/><path class="cls-6" d="M163.22,130.27a.58.58,0,0,1,0-.41c0,.09.12.14.12.29A.21.21,0,0,0,163.22,130.27Z"/><path class="cls-6" d="M162.13,130c-.11,0-.13-.08-.12-.24S162.14,129.82,162.13,130Z"/><path class="cls-6" d="M161.65,129.8c0-.16.15-.2.28-.23C162,129.81,161.74,129.72,161.65,129.8Z"/><path class="cls-6" d="M166.66,129.74c-.16,0-.11-.22-.12-.41C166.65,129.38,166.68,129.52,166.66,129.74Z"/><path class="cls-6" d="M162.45,129.74c-.08,0-.12-.36.05-.35A.68.68,0,0,1,162.45,129.74Z"/><path class="cls-6" d="M162.9,129.68c-.09-.08,0-.4,0-.58A.85.85,0,0,1,162.9,129.68Z"/><path class="cls-6" d="M160.8,129.45c-.07,0-.07-.06-.13-.06a6.63,6.63,0,0,0,.09-.82C160.91,128.73,160.8,129.18,160.8,129.45Z"/><path class="cls-6" d="M164.52,129.27c-.15-.05-.05-.47-.08-.7A1.36,1.36,0,0,1,164.52,129.27Z"/><path class="cls-6" d="M162.45,129.16a7.47,7.47,0,0,1-.08-.77C162.64,128.46,162.45,129,162.45,129.16Z"/><path class="cls-6" d="M166.62,128.86c-.06-.16-.15-.26-.08-.47C166.68,128.44,166.68,128.69,166.62,128.86Z"/><path class="cls-6" d="M161.28,128.51c-.17,0-.06-.18-.12-.35C161.31,128.13,161.28,128.33,161.28,128.51Z"/><path class="cls-6" d="M163.06,128.39c0-.27.12-.11.24-.11C163.26,128.45,163.18,128.47,163.06,128.39Z"/><path class="cls-6" d="M159.38,128.39c-.13,0-.14-.64.08-.52A.83.83,0,0,0,159.38,128.39Z"/><path class="cls-6" d="M162.45,128.34a2,2,0,0,1,0-.94A2.57,2.57,0,0,1,162.45,128.34Z"/><path class="cls-6" d="M160.84,128.28c-.09-.08-.12-.23-.21-.3s.13-.12.13-.29A1.55,1.55,0,0,1,160.84,128.28Z"/><path class="cls-6" d="M163.3,128.22c-.14.05,0-.26-.16-.24C163.29,127.13,163.24,127.68,163.3,128.22Z"/><path class="cls-6" d="M164.36,127.75c.13-.13.06-.2.12-.41.07.07,0,.3.08.41S164.46,127.76,164.36,127.75Z"/><path class="cls-6" d="M161.44,127.75c-.18,0-.08-.35-.08-.47s.07.1.12.12C161.51,127.58,161.41,127.57,161.44,127.75Z"/><path class="cls-6" d="M161.73,127.46c-.15.18,0-.33,0-.41C161.92,127.15,161.65,127.39,161.73,127.46Z"/><path class="cls-6" d="M163.26,127.34c-.14,0,0-.23-.08-.35C163.32,127.07,163.29,127.12,163.26,127.34Z"/><path class="cls-6" d="M167.31,127.28c0-.2-.15-.83.08-.94C167.27,126.64,167.43,126.86,167.31,127.28Z"/><path class="cls-6" d="M166,127.22c-.09,0,0-.25,0-.35S166,127.15,166,127.22Z"/><path class="cls-6" d="M166.58,126.64c-.13-.2-.16-.7,0-.83A3.26,3.26,0,0,1,166.58,126.64Z"/><path class="cls-6" d="M163.71,126.64c-.11,0-.17,0-.16-.18S163.71,126.48,163.71,126.64Z"/><path class="cls-6" d="M166,126.58c-.1-.07-.19-.65,0-.59Z"/><path class="cls-6" d="M164.44,126.11c-.2-.11,0-.53-.08-.71C164.53,125.43,164.4,125.9,164.44,126.11Z"/><path class="cls-6" d="M159.91,126.05c-.19,0,0-.43-.09-.47C160,125.46,159.84,125.9,159.91,126.05Z"/><path class="cls-6" d="M167.8,125.93c-.15.06-.06-.23-.08-.35S167.8,125.78,167.8,125.93Z"/><path class="cls-6" d="M162.78,125.93h-.12v-.35c.14.21,0-.33.2-.23C162.94,125.73,162.69,125.7,162.78,125.93Z"/><path class="cls-6" d="M164.15,125.7c-.16,0,0-.32-.08-.47A1.28,1.28,0,0,1,164.15,125.7Z"/><path class="cls-6" d="M159.34,125.29c.1,0,.09.21,0,.29S159.28,125.36,159.34,125.29Z"/><path class="cls-6" d="M167.31,125c-.06-.15-.14-.44,0-.47A1.65,1.65,0,0,0,167.31,125Z"/><path class="cls-6" d="M161,124.93c-.16-.06,0-.23,0-.46C161.06,124.5,161,124.81,161,124.93Z"/><path class="cls-6" d="M162.82,124.88c0-.06-.11-.62,0-.59A3.27,3.27,0,0,1,162.82,124.88Z"/><path class="cls-6" d="M159.7,124.88c-.11,0-.22,0-.2-.18S159.69,124.73,159.7,124.88Z"/><path class="cls-6" d="M165.94,124.64c-.15-.15,0-.37-.09-.58C166,124.16,165.93,124.41,165.94,124.64Z"/><path class="cls-6" d="M167.8,124.17c-.14.06-.07-.18-.08-.29C167.82,124,167.84,124,167.8,124.17Z"/><path class="cls-6" d="M166.22,124.17c-.1-.08-.07-.2,0-.35C166.29,123.82,166.27,124.1,166.22,124.17Z"/><path class="cls-6" d="M167.23,123.94a3.53,3.53,0,0,0,0-.65c.23.06,0,.39.16.59A.2.2,0,0,1,167.23,123.94Z"/><path class="cls-6" d="M166,123.94h-.13a1.45,1.45,0,0,1,0-.71C166,123.32,166.06,123.6,166,123.94Z"/><path class="cls-6" d="M167.76,123.82a3.63,3.63,0,0,1,0-1.23A5.16,5.16,0,0,1,167.76,123.82Z"/><path class="cls-6" d="M159.91,123.82c-.11-.12-.26-.18-.29-.41a1.41,1.41,0,0,0,.29.18Z"/><path class="cls-6" d="M167.59,123.7a.7.7,0,0,1,0-.47A.71.71,0,0,1,167.59,123.7Z"/><path class="cls-6" d="M163,123.59c-.07,0-.07-.37,0-.36S163,123.51,163,123.59Z"/><path class="cls-6" d="M161.2,123.41c-.21-.25-.07-1-.08-1.41C161.42,122.42,161.09,122.66,161.2,123.41Z"/><path class="cls-6" d="M165.81,123.18a.62.62,0,0,1,0-.3c.08,0,0,.2.13.18S165.91,123.19,165.81,123.18Z"/><path class="cls-6" d="M162.45,123.18c-.09-.06-.19-.11-.28-.18,0-.26.1,0,.2-.06a8.79,8.79,0,0,1,0-1.93A11.57,11.57,0,0,1,162.45,123.18Z"/><path class="cls-6" d="M168.12,122.94H168c0-.19-.06-.18-.12-.23S168.13,122.77,168.12,122.94Z"/><path class="cls-6" d="M165.89,122.82c-.11,0,0-.08,0-.23s-.09-.06-.08-.18.13.1.21.12S165.91,122.71,165.89,122.82Z"/><path class="cls-6" d="M165.45,122.76c-.12-.14-.07-.52-.08-.82C165.53,122.1,165.46,122.49,165.45,122.76Z"/><path class="cls-6" d="M159.58,122.71h-.16c0-.16.08-.15.16-.18Z"/><path class="cls-6" d="M167.76,122.06a.6.6,0,0,1-.08-.41C167.83,121.6,167.73,121.93,167.76,122.06Z"/><path class="cls-6" d="M160,121.77c-.08-.32-.07-.45-.13-.82.09,0,.14-.17.21-.06s0,.21-.12.17C160.11,121.24,160,121.57,160,121.77Z"/><path class="cls-6" d="M165.73,121.71v-.24C165.89,121.43,165.89,121.76,165.73,121.71Z"/><path class="cls-6" d="M159.26,121.47a.59.59,0,0,1,0-.35c.18,0,0,.17.08.24.17-.35,0-.18.24,0A.28.28,0,0,1,159.26,121.47Z"/><path class="cls-6" d="M161,121.42a4.76,4.76,0,0,1,0-.65c.25,0,.07.21.16.41C161.15,121.22,161.1,121.33,161,121.42Z"/><path class="cls-6" d="M165.77,121.3a4.6,4.6,0,0,1,0-.76c.15.17,0,.5.16.64C165.88,121.39,165.79,121.18,165.77,121.3Z"/><path class="cls-6" d="M165.45,121.12a1.07,1.07,0,0,1,0-.88A4.3,4.3,0,0,0,165.45,121.12Z"/><path class="cls-6" d="M160.55,120.89c-.05,0,0-.15,0-.24s.22,0,.2.18C160.65,120.83,160.56,120.8,160.55,120.89Z"/><path class="cls-6" d="M168.2,120.65c-.16-.12-.29,0-.32-.23,0,.07.24.07.12,0,.07-.21.07.17.2.06Z"/><path class="cls-6" d="M162.41,120.65c-.18,0,0-.24,0-.29C162.38,119.74,162.43,119.94,162.41,120.65Z"/><path class="cls-6" d="M160,120.48c-.13,0,0-.38-.25-.3.09-.17.26,0,.17-.35C160.15,120,159.89,120.14,160,120.48Z"/><path class="cls-6" d="M161.81,120.13c.12,0,.08,0,.2,0S161.79,120.4,161.81,120.13Z"/><path class="cls-6" d="M159.26,120.24c-.12-.09-.08-.29,0-.47C159.31,119.82,159.23,120.1,159.26,120.24Z"/><path class="cls-6" d="M162.05,119.83c-.16,0-.16-.28,0-.23Z"/><path class="cls-6" d="M161.32,119.66h.24C161.56,119.74,161.3,119.89,161.32,119.66Z"/><path class="cls-6" d="M167.63,119.48s0,.07,0,.12-.09-.06-.16-.06c-.05-.49,0-.53,0-1.06h.25a.62.62,0,0,1,0,.3c-.08-.07,0-.31-.21-.24C167.71,119.06,167.35,119.14,167.63,119.48Z"/><path class="cls-6" d="M159.34,119.48c-.09-.11,0-.47-.16-.47.11-.18.22.15.24.3A.38.38,0,0,0,159.34,119.48Z"/><path class="cls-6" d="M166.58,119.13a1,1,0,0,1,0-.47h.08a.32.32,0,0,1,0,.18C166.5,118.79,166.71,119,166.58,119.13Z"/><path class="cls-6" d="M166.22,118.89c-.09,0,0-.24,0-.35S166.27,118.82,166.22,118.89Z"/><path class="cls-6" d="M167,118.72a.55.55,0,0,1,0-.47A.71.71,0,0,1,167,118.72Z"/><path class="cls-6" d="M165.25,118.66h-.12c.06-.34,0-.79,0-1.06A3.78,3.78,0,0,1,165.25,118.66Z"/><path class="cls-6" d="M166.87,118.25c-.13-.09,0-.26,0-.41C167.08,117.83,166.94,118.18,166.87,118.25Z"/><path class="cls-6" d="M162.45,118c-.12.09-.12-.38,0-.29Z"/><path class="cls-6" d="M161.52,117.72c-.14,0,0-.14,0-.35C161.62,117.4,161.54,117.59,161.52,117.72Z"/><path class="cls-6" d="M167.72,117.66c-.08,0-.09-.18-.09-.35a.2.2,0,0,0,.17.06C167.83,117.56,167.73,117.55,167.72,117.66Z"/><path class="cls-6" d="M162.09,117.66h-.32C161.72,117.41,162.07,117.5,162.09,117.66Z"/><path class="cls-6" d="M167.55,117.49c-.18,0,0-.4-.24-.35,0-.06.05,0,.08-.06s0-.11,0-.18A.87.87,0,0,1,167.55,117.49Z"/><path class="cls-6" d="M161.65,116.49c0-.11.21,0,.28-.12A.16.16,0,0,1,161.65,116.49Z"/><path class="cls-6" d="M163.35,115.85c-.15.05-.08-.31,0-.36A.44.44,0,0,1,163.35,115.85Z"/><path class="cls-6" d="M167.76,115.14c-.13.09-.2-.34,0-.29,0,.09,0,.1,0,.17S167.75,115.07,167.76,115.14Z"/><path class="cls-6" d="M167.51,115.08s-.21-1.09,0-1.17C167.52,114.19,167.51,114.59,167.51,115.08Z"/><path class="cls-6" d="M166.7,114.91c-.15,0-.14-.27-.08-.35S166.7,114.75,166.7,114.91Z"/><path class="cls-6" d="M161.52,114.56c-.12-.22-.18-.23,0-.36C161.57,114.34,161.49,114.38,161.52,114.56Z"/><path class="cls-6" d="M166.7,114.38h-.12c0-.14-.05-.43,0-.47C166.84,114,166.62,114.19,166.7,114.38Z"/><path class="cls-6" d="M167.07,114c-.22-.09-.07-.72-.16-1C167.07,113.2,167,113.69,167.07,114Z"/><path class="cls-6" d="M168.08,113.91c-.09,0,0-.25,0-.35C168.27,113.59,168.05,113.69,168.08,113.91Z"/><path class="cls-6" d="M167.72,112.39c-.32-.26,0-.71-.13-1.18C167.79,111.51,167.56,112,167.72,112.39Z"/><path class="cls-6" d="M160.92,112.33c0-.19.08-.19.2-.18A.23.23,0,0,1,160.92,112.33Z"/><path class="cls-6" d="M159.78,112.15c0-.1-.12-.17,0-.29s.07.26.25.17A.19.19,0,0,1,159.78,112.15Z"/><path class="cls-6" d="M167.35,112c-.19,0,0-.38.12-.41v.3a.16.16,0,0,0-.12-.06Z"/><path class="cls-6" d="M161.32,111.68c.06-.18.18,0,.28,0C161.59,111.88,161.41,111.71,161.32,111.68Z"/><path class="cls-6" d="M160.47,110.86c-.09-.06-.25,0-.24-.23C160.29,110.73,160.48,110.65,160.47,110.86Z"/><path class="cls-6" d="M159.74,110.51a.16.16,0,0,0-.12-.06.66.66,0,0,0,0-.47h.16A.87.87,0,0,0,159.74,110.51Z"/><path class="cls-6" d="M162.75,109.74c-.05,0-.12,0-.12,0s.07,0,.12,0,.34,0,.52,0a1.13,1.13,0,0,0-.06-1.21c.3-.09,0-.14.24-.29-.26,0-.43.14-.7.17.07-.17,0-.42.35-.41.06-.16-.09-.18-.18-.24.32-.22.17-.66.24-1a.61.61,0,0,1-.18-.08c.09-.12,0-.21.12-.37a.81.81,0,0,0-.35,0c.08-.08-.07-.14.11-.2-.18-.13-.1-.29-.35-.41,0,.08-.19,0-.17.13s.14,0,.17,0-.23,0-.17.16a.3.3,0,0,1,.23.08c-.26,0-.15.14-.06.24-.4.17-.53-.06-.82-.16.1-.13.15-.13-.06-.2.34-.15-.17-.52.06-.73-.08,0-.22,0-.23-.12a.84.84,0,0,0-.53-.93c-.09.24-.14.41.12.56-.22.25.14.36,0,.65a1,1,0,0,1-.52-.16c0-.08.08-.08.11-.12s-.13,0-.23,0c0-.31-.26-.42-.24-.73-.46,0-.06-.44-.52-.49.18.27.09.84.35,1.06-.12,0,0,.19-.18.2-.82-.11-.46-1-1.17-1.34-.17.16.06.32.18.41-.14.16-.18.27-.06.4-.45.45-.62-.42-.88-.6,0,0-.1,0-.18,0,.1.13.05.2-.12.24.35,0-.12.26.18.4.1,0,.34,0,.35,0s-.21.12-.35.09,0,.17-.12.2-.27-.22-.47-.29c.08-.09.12,0,.18-.08-.3-.07-.19-.19-.23-.4-.21,0-.31-.11-.36,0,.31,0-.09.29,0,.44s.27,0,.36,0c-.1.14-.38,0-.59.09a.29.29,0,0,0-.24-.29c.15-.24-.2-.28-.23-.56a1.75,1.75,0,0,0-.41-.08c-.13.11.14.23.23.32-.16.06,0,.24.06.28-.14,0-.28,0-.29.08s.11,0,.29,0c-.06.13.09.1.12.16-.41,0,.08.16-.12.21-.44-.29-.72-.69-1.17-1,0,.21.15.29.06.56.08,0,.3,0,.29,0s-.11.11-.23.12c.05-.14-.19-.06-.24,0-.08-.23-.3-.07-.35,0s-.15-.16-.41-.12c0,.07.09.11,0,.12s-.15-.09-.21-.07l-.13,0h-.45s-.19-.09-.22,0c.28,0,.19.18.44.21-.51-.09-2,.09-1.54-.21-.33-.06-.36,0-.66,0-.11.13.41.21.16.25s-.11-.14-.35-.13c-.05.15-.3,0-.63.08-.11,0-.18-.1-.17-.2a21.12,21.12,0,0,0-2.33,0c0,.07.22.11.07.12a6.21,6.21,0,0,0-.79,0s.14-.07.15-.12a14,14,0,0,1-2.91,0,2.24,2.24,0,0,1-1.25,0c-.07.15-.53.15-.93.13a4.23,4.23,0,0,0,0,.49.56.56,0,0,1,.08-.25,2,2,0,0,0,0,.26c-.14.11,0,.11,0,.32a12.1,12.1,0,0,0,.12,3,.39.39,0,0,1-.16-.22,7.6,7.6,0,0,1,0,1.84c.12,0,.07.43.16.52a2.34,2.34,0,0,1-.16.47c.05.29.15-.16.2.19-.2.16,0,.71-.08,1.06-.1-.18,0-.52,0-.56-.09.18-.09,1.19,0,1,0-.08.12-.05.2-.26,0,.32-.16.29-.16.71a1.53,1.53,0,0,0,.12.45c-.09-.1-.09.5,0,.43s-.1-.33,0-.31.25,0,.25.36c-.1,0-.09-.21-.21-.14s0,.27,0,.53c-.08-.24-.15.12-.2.3s.24-.1.25.13c-.14,0-.16.27-.16.56l0,.74c.22.14.13.18.33.41-.13.09-.17-.22-.2-.06s0,.17,0,.23c-.18,0-.06-.16-.13-.17s-.09,0-.16.06c0,.3,0,.53.2.7.06-.15-.09-.29,0-.29s.14.55,0,.58c-.05-.14,0-.18,0-.23,0,.12-.15,0-.16.17.15,0,.14.57.24.3a2.07,2.07,0,0,0,0,1.05c.12-.07,0-.15.08-.23a1,1,0,0,1,0,.41c-.19-.1-.27.25-.12.29,0-.16.16-.3.2-.17a.9.9,0,0,0-.12.76c-.08,0-.17,0-.21.11.14,0,.12.19.21.24-.13,0-.09,0-.17-.06.08.2,0,.36,0,.59.08,0,.08-.08.13-.12a1.75,1.75,0,0,1,.12.47s-.2-.15-.17.06c.21-.08.18.18.33.17,0-.18,0-.12,0-.23-.09,0-.15,0-.16-.12s0-.41.12-.41c0,.3.3.15.32.18-.13,0,0,.11,0,.17s-.19.1-.08.12.1,0,.16-.06a.26.26,0,0,0,.08.35c-.1,0-.19,0-.2.12a2.31,2.31,0,0,0,.2.24c-.05,0-.08,0-.12,0,0-.15-.1-.32-.24-.35-.06.28,0,.43.24.47-.1.14.09.13,0,.35-.05,0-.05.08-.12.06,0-.19.08-.18,0-.29s-.08.15-.16.17-.07-.07-.08,0c.17,0,.12.33.2.47a.16.16,0,0,1,.16-.11c0,.12-.22.22-.12.29.08-.15,0,.1,0,.18.15-.23.4-.12.53-.06-.13,0-.08.31-.16.41h-.08c-.06-.18.12-.33,0-.41s0,.11,0,.11,0-.11-.05-.11c0,.51.06.73-.08,1,.18,0-.06.36.08.47.05,0,0-.21.13-.17a.49.49,0,0,1,0,.35c-.06-.13-.12.06-.17-.12a.56.56,0,0,0,0,.29c.17-.14.26,0,.37-.29,0,.18-.07.17,0,.35-.13-.19-.13.41-.29.18,0,.06-.15.27,0,.35-.06-.14.14-.17.13-.06s-.06.16-.17.12-.07,0-.08-.12,0-.22,0-.23c0,.28-.09.22-.2.12,0,.25.27.23.36.41-.09,0-.08.1-.2,0,0,.28.14.28.16.47-.09,0-.21.28-.12.36.23-.1.08-.58.2-.71.05.26.19-.09.41.18,0,.3-.32,0-.16.35,0-.14.12,0,0,.06.25,0,.45-.49.6-.06-.06,0-.35,0-.28.29.1-.16.06,0,0,.12s.15,0,.16.06-.09.16-.16.17c.13.13-.07.25-.08.36.18-.22.19-.09.28-.3,0,.07.05,0,.08,0a1.56,1.56,0,0,1-.08.65c.44.07-.19.6,0,.64s0-.09,0-.11.13-.08.17.11c-.09,0,0,.22-.13.24a.28.28,0,0,0-.28.11s0,0,0,.12.17-.22.2-.06-.19.22-.08.3c.1-.22-.05.33,0,.11a.54.54,0,0,1,.08-.17c0,.11.07,0,.09.06s0,.23,0,.41-.46.26-.29.53c0-.11,0-.14.12-.12v.35c.16.09,0-.25.13-.23s.11.07.08.23c-.07,0-.14,0-.13.12s.21-.2.25-.06c-.19,0,0,.34-.12.35s-.07-.07-.08-.12.08,0,.08-.06-.15.18-.21.3.19.08.21.23-.18,0-.17.24.25.12.29.29l0,.88c-.16,0,0,.05,0,.18-.11-.05-.08.11-.16.11a1,1,0,0,0,.12.53c.07,0,0-.28.08-.29v.23c.09.08.09,0,.16.12,0-.09-.05-.3,0-.29h.08c-.11.42.18.82-.12,1.17.12.05.16.29.16.58-.11,0-.08-.13-.16,0,.12.6-.12.56-.08,1.21.12.17.07.4.12.82l-.16.06c0,.29.1.14.12.29s-.11.32-.16.5c.13,0,.12-.19.2-.26,0,.54.09,0,.12-.13a2.89,2.89,0,0,0,0,.9c-.09.07-.09.3-.16.42-.12-.06.09-.53-.08-.38a7,7,0,0,0,0,2.53c0,.14-.11.14-.12.27s0,.84.16.8c0-.51,0-.19.08-.41-.06,0,0-.14-.08-.18.17-.12.19-.42.32-.27.07-.19,0-.53.17-.62.16.62-.49,1.05-.21,1.31.12-.23,0-.31.17-.56v1.05h.08c-.12.09-.13.15,0,.16s.12-.15.24-.16.22,0,0,.16c.28,0,.33,0,.44,0-.08,0-.12-.05,0-.12a36.5,36.5,0,0,1,3.74-.08c.11-.11-.22-.19,0-.24.09,0,.1.08.08.16,1.58,0,2.38-.11,3.9-.2a.41.41,0,0,0,.11.12c.18-.23.38-.07.65-.12,0-.15-.07-.2-.12-.29s.08-.05.18,0a.52.52,0,0,0,.23.33c.11-.18.4-.07.53-.21s-.08-.2.12,0c.11-.15,0-.23.11-.36-.23.06-.12-.11-.23-.12a.36.36,0,0,1-.24.08s0,0-.05-.08.11-.21-.06-.33a.23.23,0,0,0,.23-.12c-.09,0-.21,0-.23,0s.3-.08.35-.2c0,.1-.1.16.12.16,0-.13,0-.25.23-.16,0,.07-.16,0-.17.08.29.08.26-.21.41-.28s.05.15.17.16a.75.75,0,0,0,.3-.2c.06.07.06.19.29.16-.13-.12-.28-.3-.06-.45-.34.22-.58.33-.47,0-.07-.1-.22.09-.29,0a1,1,0,0,1,.7,0c.06-.19.32,0,.41-.16-.2-.09-.61.08-.47-.16l-.47.08c-.05,0-.14-.22-.17-.12s.16.07.11.2h-.17a.12.12,0,0,0,0-.2,11.38,11.38,0,0,0-1.17,0h.11c-.17.07,0,.18-.11.24h-.12c.13-.23-.29-.38.06-.53-.18,0-.12.11-.3.08.06-.07,0-.2.12-.24.22.25.82.1,1.17,0-.21,0-.31.05-.41,0,.13-.08,0-.13-.06-.2-.45.06-.65.17-1,0,0,.07,0,.1-.12.12s-.28,0-.29-.08c.23-.05-.11-.28.23-.28.12,0,.13.06.06.12.23,0,.32-.1.41,0,0-.05,0-.12.06-.12s.14.24.23.12c-.13-.14.34,0,.24-.16.19,0,.18.07.29,0s-.05,0-.06.08c.19,0,.77-.17.47,0,.48-.09,1,.08,1.29-.16.25,0,0,0,.24.12,0-.24.54,0,.64-.21.07.1.22.12.3.21-.11,0-.25,0-.3.08s.22-.05.24,0-.16,0-.18.08.65.1.59-.12c-.14,0-.22,0-.24-.08a.32.32,0,0,0,.18-.12c-.15-.06-.24.11-.29,0,.12-.07.37,0,.41-.17v.13c1.06-.07,1.9-.18,2.6-.17-.08-.09-.17-.19,0-.2s0,.11.07.2,0-.19.21-.08c-.07-.1-.14-.19,0-.2.1.15.12.12.16.24l1-.12c0-.07-.17-.2-.14-.24.17.17.1-.05.27.08,0,.06-.18,0-.08.12l.34.05c0-.13,0-.26-.08-.31.09.08,0,.16,0,.24l-.05,0c-.09-.06-.22-.12-.17-.15h0s.18.06.07-.14-.08,0-.12,0c-.06-.17,0-.19.08-.24s0,.16.08.23a.29.29,0,0,0,0-.35s0,.09-.08,0,0-.31-.13-.4.06.13,0,.18-.08-.12-.16-.13c0,.16.12.12.16.25-.06-.05,0,.05,0,.11a1.22,1.22,0,0,0,0,.34,4.26,4.26,0,0,0-.77.13s.07,0,0,0-.07-.05-.11,0,0-.06-.06-.12-.34.16-.53.08c0,0,.11.11.07.12-.25,0-.31-.12-.52-.32-.07.07.17.12.09.16s-.22-.07-.3-.16c0,.17-.18,0-.28-.09,0,.13.15.17,0,.21s-.11-.11-.15-.21a1.37,1.37,0,0,0-.2.13,1.49,1.49,0,0,1,.29.12c-.19.12-.46-.13-.58-.29-.07.06,0,.08-.05.13s-.1-.05-.25-.05c0,.14.15.09.18.21-.23-.08-.21.07-.25.12a1.17,1.17,0,0,0-.38,0,.8.8,0,0,1-.49-.12.33.33,0,0,0,.3-.08c.18.19.23.06.44.08,0-.14-.19-.06-.22-.17,0,0,0,.09,0,.09-.24-.07-.24-.29-.18-.53-.17.15-.28-.1-.41.08.16,0,.32,0,.29.12-.33-.08-.67.15-1.06-.12-.65.37-1.4-.06-1.93.2-.5,0-.59-.36-.35-.6.27.08.24-.08.52,0-.16.11.15.07.18.16-.17-.05-.25.17-.12.2s.22-.07.24-.16c-.14-.09.06-.17-.12-.24.12-.09.5,0,.53-.17-.63,0-.79.19-1.53-.08.18,0,.22,0,.35,0s0,.08.06.08c.09-.21-.26-.11-.29-.24s.08-.08.18-.08a1.41,1.41,0,0,0,1.11-.08c.27.27.81-.13,1.11,0,.06,0,.06-.15.12-.2-.12-.05-.36-.09-.47-.25s-.11.11-.29.08a.2.2,0,0,0-.06-.12,4.78,4.78,0,0,1-1,0,.55.55,0,0,1-.17.17c0-.06-.07-.07,0-.13-.3,0-.26.17-.3.21s0-.23-.23-.21c0,.18-.14.34-.41.41,0,0-.07-.06-.06-.12.21.12.25-.13.24-.29a.51.51,0,0,1-.3,0c-.05.08.18.14,0,.17s-.16-.29-.35-.13c.06,0,.14.07.06.09l-.45-.13a.1.1,0,0,1-.18,0c0,.18-.12.26-.1.41-.07,0-.21,0-.16.12s.24.09.21-.2c.06,0,.12-.07.14,0s-.1.13,0,.16,0-.18.1-.16,0,.08.06.2a2.75,2.75,0,0,1,1.17,0c-.23.08-.34.25-.53.36.07-.08-.09-.19-.11-.08.14.08-.06,0-.18,0s.23.13.06.17-.27-.22-.23-.21-.22.1-.25,0c-.06.1-.06.19-.18.12,0,.13,0,.15,0,.25-.12-.06-.06.19-.17.16a.9.9,0,0,0,.09-.49c-.05,0-.06.13-.1.17s-.17-.08-.23,0,0,.07,0,.17c-.24,0-.26.25-.48.24l0-.12c-.25.08-.56.07-.65.24,0-.05,0,0-.08,0l.07-.12c-.16,0-.38.16-.39,0,0,0-.07.11-.11.12s-.21,0-.19-.12a.5.5,0,0,1-.47.12c-.13.1-.05.17-.18.2s0-.14-.14-.16-.16.11-.21.15l0,0a0,0,0,0,0,0,0c.19-.12,0,.07-.08.08.43-.1.5.07.94-.16-.05.06-.1.07-.16.12.21,0,.43-.06.42,0,.13-.09.28-.05.41-.12,0,.23.35,0,.45,0s-.08.07-.12.12c.15,0,.22.15.37,0,0,.07.13.13,0,.17s0,0,0,0,.43-.2.39,0a.62.62,0,0,0-.54.08l.07-.21c-.23,0-.28.11-.37,0,0,.13,0,.16-.15.25a1.3,1.3,0,0,0,.4.12s0,.08-.06.08c-.19-.07-.33.09-.47-.08-.09.2-.34.06-.46.2.16,0-.1.11-.1.16,0,.33,1.09-.11,1.08.16-.44.11-.57-.14-1,.17.09,0,0,.13.15.16s0-.12.12-.16.44.16.76,0c0,.33.25-.13.47.16.25-.23.4.07.57-.16.12,0,.15.1.26.12s0-.12.05-.12.14,0,.16.08,0,.12-.06.28c.14.07.25-.11.41,0a.4.4,0,0,1-.41.16c0-.23-.34.1-.34-.2.06.13-.15.25,0,.28v-.08a2.49,2.49,0,0,1,.54.08c-.06.15-.29.18-.24.29-.12-.29-.53,0-.67-.2.08-.06.14-.33,0-.33a.08.08,0,0,1-.1,0c.22.11,0,.36-.15.57-.34,0,0-.17-.11-.24a.06.06,0,0,1-.06,0s0-.05-.06,0,.07.26-.14.16c0,.22.25.07.35.16-.09.08-.3.06-.42.12s0-.21-.17-.2.07.18,0,.32c.06-.06.27,0,.29,0-.25.06,0,0,0,.16s0,.16-.15.17a.11.11,0,0,1-.1-.08c0-.06.11,0,.13-.09s0-.15-.2-.12c0,.17-.27.16-.07.25-.1.06-.29,0-.2-.13-.31,0-.09.17-.25.21-.14-.28-.09-.3-.23,0a.1.1,0,0,1-.09-.08c0-.06.12,0,.15-.09s-.06,0,0-.08c-.2.08-.54.13-.49-.08.13.12.16-.23.41-.16.09-.2-.21-.33-.44-.24.31,0-.06.12-.16.2.08,0,.21,0,.21,0-.16.06-.12.32-.38.28,0-.14.21-.15.26-.28a.52.52,0,0,0-.44.08c.07-.19-.18,0-.24-.16a5.48,5.48,0,0,0-.44.4c.15,0,.18-.08.29-.08a.15.15,0,0,0,0,.13,2.66,2.66,0,0,1-1.15.08s-.08.11-.15.12-.08-.06-.38,0a1.28,1.28,0,0,1,.64-.41c0-.14-.68,0-.74,0,.18,0,.29,0,.28.08-.3,0-.25.16-.14.17-.19.05-.37.12-.57.16s0-.06.09-.16c-.28,0-.18.07-.32.2a1,1,0,0,0-.34,0,.08.08,0,0,1,0-.08l.28-.28c-.13-.2-.21-.09-.4-.31.12-.14.15-.05.24-.09,0-.47-.22.17-.2-.2.07-.08.09,0,.16-.07s0-.11,0-.22c.2-.23.36-.68.52-.54l.29-.39c-.26.28-.13-.54-.37-.48,0,.12-.11.15-.08.29.07,0,.14-.11.12,0-.1,0-.14.17-.2.08s0-.23.08-.41.14,0,.28-.12-.06-.07,0-.23c-.1,0-.32.27-.36.16a1.27,1.27,0,0,0,.41-.52,4.45,4.45,0,0,1,.08-1.42c-.15.34.24.35.08.68,0-.13-.07-.23-.08-.07.11,0-.06.2,0,.33s.2-.05.32-.1c-.16-.15.11-.68-.12-.79,0,.08,0,.19,0,.22s0-.21-.08-.35c.07,0,.32-.24.32,0-.19.27,0,.66.12.61,0,.13-.16.15-.16.28s.05.3,0,.49c.12,0,.2-.36.28-.26s-.09.07-.08.15.07,0,.08,0,0,.06-.08.09-.13,0-.24.1c-.06-.1,0-.25,0-.34-.07.09-.22.11-.2.27s.19-.15.16,0,0,.34-.2.39c0,.17.16,0,.12.3-.14,0-.17.17-.24.28,0-.1-.06-.12-.09,0,.14.1.25,0,.41,0,.06-.25-.18.12-.12-.13.08.06.13-.1.2-.19.22.15-.37,1,0,1,.05-.17-.16,0,0-.17a.83.83,0,0,0,.08-.12c0,.28.34-.23.2.08.11,0,.2-.32.25-.22-.15.06,0,.19-.13.26,0-.1-.12.18-.24.22.08-.17.11-.32-.08-.14.09.18-.1.25,0,.61l.2-.2c0-.18.06-.24.08-.32a1.15,1.15,0,0,1,.49-.32c-.09.17,0,.06,0,.14h0c.19,0-.16.18-.14.28.22-.15,0,.09.15,0s.15-.2.25-.16c-.05.05-.11.05-.16.12h.19c.17-.17.08-.21.07-.28,0,.1-.27.11-.17,0a.3.3,0,0,1,.16-.08c.06,0,.16,0,.15.08-.21.19.1.2-.09.32.22,0,.12-.12.27-.16a.42.42,0,0,0,.43-.08c.27-.09.24.05,0,.12.3,0,.54-.14.7,0,.08-.09-.14-.13.07-.2s.08.09.2,0a.63.63,0,0,0-.33,0c.14-.19-.22-.06,0-.25-.12-.06-.13.18-.25.12a.67.67,0,0,0,.11-.28c-.13,0-.24,0-.22-.08a.22.22,0,0,0,.21-.12c-.21.06,0-.13.07-.24-.19.19-.23,0-.53.2,0,0,.15,0,.12,0-.2,0-.06.1-.17.2,0-.06-.1,0-.19.08s.32-.15.29,0c-.06,0-.1.07-.15.08s-.17,0-.28,0,.31-.25.09-.24c-.1.18-.29.26-.16.32-.42.06-.07,0-.27-.08a1,1,0,0,1-.42.18.58.58,0,0,1,0-.27c.11,0,.25-.36.49-.58-.08.32.32-.31.16,0,.36-.44.11-.46.08-.69-.13.07-.13.15-.2.23,0-.19-.08.1-.08,0s0-.1.08-.14c.52-.5.29.07.44.1,0-.19.18-.34.16-.44s0,.15.17.06c-.1-.1.06-.14.2-.32s-.15.07-.12,0c.2-.17.12-.05.24-.11s0,0,0-.13-.11.12-.12.09c.21-.33-.08-.36.12-.71.09,0,.21-.1.28-.07s-.36.52-.08.35c0-.05-.05-.05,0-.15-.06.15.21-.13.2-.06s-.09.07-.08.1a2,2,0,0,0,.29-.17c-.1,0,.34-.26.36-.29s-.05.17,0,.12c.1-.23,0-.2-.08-.29l.16-.08s-.14,0,0-.11a.19.19,0,0,1-.12,0c.21-.16-.15-.31.2-.37v-.07c-.07,0-.17.1-.2.06s.18-.11.12-.19c-.25.06-.07-.11,0-.12a.34.34,0,0,1-.16-.06.14.14,0,0,0,.09-.08c0-.06,0,0,.07-.22-.15-.06-.08.21-.16.17s0-.08,0-.19l0-.21c.07,0,0,.16.08.17,0-.18.12.15.12-.06-.12,0-.23-.24-.12-.35s0,.16.08.18c0-.28-.15-.28,0-.53-.09-.16-.22.11-.24-.12.1-.07,0-.46.08-.53,0,.22.06.23,0,.42.08,0,.11.11.16.17,0-.15.16-.08.16-.23-.27,0-.14-.37-.2-.53,0,0,0,.11,0,.12s-.1-.35,0-.36.13.2.16,0c-.19,0,0-.31,0-.35-.1,0-.16,0-.16-.29.19,0,.12-.07.16-.12s.07.07.08.12-.17,0-.16.18c.18-.1.3-.27.28-.65-.05-.14-.12.11-.16-.06.15-.13.16-.54,0-.41,0-.22.17-.15.12-.41-.13,0-.08.15-.16.18,0-.26,0-.53-.08-.59s0-.32.12-.29-.07.13,0,.17c.12-.12.07-.31,0-.53.12.06.07-.13.08-.23.09.13.12,0,.25,0s0-.2-.08-.23c0,.25-.21,0-.21-.12s.08,0,.21-.06-.11-.12-.13-.23,0-.2,0-.24.07.1.13.12c0-.21.06-.23,0-.41s-.11.08-.13,0a.68.68,0,0,1,.13-.35c-.1-.17-.28.27-.37.11s.22-.25.08-.47h.16c0-.26,0-.49.17-.35a2.8,2.8,0,0,1,.08-1.52h-.2c0-.1-.06-.15,0-.18.08.16.23.16.24-.12s-.12.11-.16,0c.21-.42,0-1,.12-1.59-.08,0-.14.18-.16,0a1.08,1.08,0,0,0,.16-.47.17.17,0,0,1-.2-.11q0-.19.12-.18a.17.17,0,0,0,.08.18s0-.07.08-.06c-.05-.16-.08-.45.12-.41,0-.33-.06-.12-.12-.24.18-.19.09-.47,0-.82-.06,0-.15,0-.16-.06s-.06-.15,0-.29.15.06.12.29c.21-.09,0-.43,0-.58,0-.39.27-.76.08-1.12,0,0-.13.18-.12.06a1.1,1.1,0,0,0,.12-.94,1.16,1.16,0,0,0,0-.88h.12a1.14,1.14,0,0,0-.12-.52c.13-.18.06-.37,0-.59h.16V116l0-.06a.36.36,0,0,1,0-.14s.19,0,.2,0-.21-.14,0-.07c-.07,0-.13,0-.16-.07s.09-.09.12-.16a.92.92,0,0,1-.16-.12.93.93,0,0,1,.16.11c.06,0-.12-.24,0-.18-.06-.08-.16-.13-.2-.19a1.55,1.55,0,0,1,.24.22c.08,0-.14-.15-.16-.18v0h0c.23.25.23.16.09,0,.09.1,0,0-.08,0s.06,0,.17.12c-.08-.12,0-.13.13,0-.06-.08-.25-.27-.16-.24a2,2,0,0,0,.16.2c.07,0,0-.06.15.09a1.65,1.65,0,0,0-.18-.29H153c.15.23.2.26.25.24a.4.4,0,0,1-.06-.16s.18.22.11.16c.1.1.17,0,.16-.12.06.24.07.07.12.17a.79.79,0,0,1,0-.17s0,.12,0,.12c0-.2,0,0,.13,0s0-.2.18-.24.05.21.24.2-.18-.13,0-.16h.11a.19.19,0,0,1-.06.2,7.15,7.15,0,0,1,1.12-.12c.09-.14-.2,0-.18-.12a5.06,5.06,0,0,0,2.35-.16l.7.12c.05-.38,1.06-.1,1.29-.36-.2-.07-.44.07-.64,0,.22,0,.31-.07.23-.25.21.15.2-.27.47-.08,0-.07-.09-.1,0-.12s.24,0,.29.08c-.24,0,0,.06,0,.12a.41.41,0,0,1-.29,0c0,.1,0,.2.06.25a1.42,1.42,0,0,0,.59-.08v-.21c.34,0,.31-.18.58-.2-.05-.19.08-.27.3-.28.07-.22-.06-.33.17-.41-.12,0-.05-.15-.17-.16s-.2-.08-.18,0,.14.07.06.08-.33,0-.35-.08c.48-.16.31-.53.82-.65,0,.07.17.07.23.13s-.07.26.06.28l.18-.24c0,.09.31,0,.35.08,0-.12.2-.1.35-.12-.16-.2.29-.17.29-.37a.7.7,0,0,1-.47-.08.74.74,0,0,1-.29.32c-.07,0-.08-.05-.18,0s.09.11,0,.13c-.09-.14-.23-.14,0,0-.5,0-.33-.28-.59-.45.2.07.6,0,.47-.16a1,1,0,0,0,.7-.08c.12,0,.12.11.24.12.29-.11.43-.32.7-.45,0-.16,0-.14,0-.32-.24,0-.26-.2-.47-.24a1,1,0,0,1-.53.08c.18-.39.56-.68.59-1-.18-.06-.31,0-.53,0-.17-.19,0-.35,0-.57C162.51,109.69,162.67,109.85,162.75,109.74ZM152,131.18c-.08,0-.08-.15-.08-.29C152.07,130.88,152,131,152,131.18Zm-1.49,5.24c-.13.15-.07-.14-.17.06,0,0,0,0,0-.06s0,0,0-.06S150.47,136.34,150.49,136.42Zm-.61.2c.1,0,.29-.05.32-.11s-.07.15-.08.2S149.9,136.76,149.88,136.62Zm2.54,1.41c.1.05-.36,0-.06.08,0,.06-.11,0-.18,0,.12-.14,0-.26.2-.24,0-.06-.06-.08-.12-.08.13-.1.19.1.2-.16h.1C152.58,137.83,152.23,138,152.42,138Zm.68,3.85c0-.11,0-.18.23-.17C153.35,141.82,153.3,141.89,153.1,141.88ZM163,108.49a.56.56,0,0,1-.47.08A.64.64,0,0,1,163,108.49Zm-.7-1.82c-.13-.1-.55.11-.71,0,.26,0,.92-.24.94.12a1.18,1.18,0,0,1-.53,0C162.13,106.69,162.29,106.7,162.34,106.67Zm.23,1.37c-.07.18-.32-.1-.47.08,0-.12-.06-.15-.06-.24A1.11,1.11,0,0,0,162.57,108Zm0,2.43c-.06,0,0,0-.06-.08a.22.22,0,0,0-.23.12c-.19-.08.13-.14.17-.2S162.59,110.38,162.57,110.47Zm-.29-2.23c0,.08-.23,0-.18.17-.11,0,0-.16-.23-.13s.41,0,0-.12C162,108.05,162.14,108.25,162.28,108.24Zm-.65-2.06a1.4,1.4,0,0,1-.41.16c0,.09.17,0,.18.12.17,0-.06-.08,0-.16s.16.06.17,0c.17,0,0,.13,0,.2s-.3,0-.29,0c-.24-.2-.1-.08-.35-.12,0-.15.11-.28-.12-.32.14,0,.17-.15.41-.12,0-.06-.09-.1-.12-.16s-.14.08-.29.08c0-.13-.06-.15-.06-.25.16-.09.21.13.47.08-.06.18,0,.25.29.21a2.36,2.36,0,0,1-.23.2C161.31,106.27,161.5,106.2,161.63,106.18Zm-.58.49c.08-.18.36,0,.46,0C161.38,106.84,161.25,106.62,161.05,106.67Zm-.06,5.42c.21,0,0,.1.06.24-.1,0-.16-.23-.3,0-.11,0-.35.06-.29-.08C160.83,112.26,160.83,112.15,161,112.09Zm0-5.47a.92.92,0,0,1-.24.13c-.18,0-.24-.11-.35-.17C160.58,106.45,160.77,106.65,161,106.62Zm-.12-1.17c.09.14-.2,0-.18.12a.17.17,0,0,1-.11-.2A.27.27,0,0,0,160.87,105.45Zm-.24,1.7a.06.06,0,0,0,0-.08c0-.1.26,0,.17-.12C161,107,160.87,107.2,160.63,107.15Zm.06,4.13c-.16.21-.28.48-.41.61-.19-.26.42-.42.12-.61C160.45,111.16,160.55,111.33,160.69,111.28Zm-.23.77c-.09.13-.34-.09-.35.08C159.89,112,160.36,111.93,160.46,112.05Zm-.12,1.66c.11,0,0,.07,0,.12s-.25,0-.23-.12S160.3,113.83,160.34,113.71Zm-3.28-8.7a.61.61,0,0,0-.18.24c-.13,0-.12-.1-.12-.2A.45.45,0,0,1,157.06,105Zm-.59.24c0,.11-.27,0-.23.08-.09-.07-.11-.28-.06-.32S156.17,105.23,156.47,105.25Zm-1.17,1.94c-.13-.06-.38,0-.35-.2C155.1,107,155.28,107.06,155.3,107.19Zm-.59-.12c.15.1-.2-.07-.17.08-.11,0-.14-.07-.12-.16s.16.06.17,0S154.63,107.07,154.71,107.07Zm0-1.17c-.19,0-.12-.11-.23-.12C154.55,105.67,154.79,105.77,154.71,105.9Zm-.17,2.34a.64.64,0,0,1-.36,0c.07-.09.4.11.24-.12C154.52,108.09,154.55,108.15,154.54,108.24Zm-.12-3.27c-.06.1-.23-.06-.41,0A.33.33,0,0,1,154.42,105Zm-.24.08c0,.11-.16.16-.35.16,0,.2.17,0,.3.12-.08.17-.2,0-.36,0,0-.1,0-.19.06-.24s.17,0,.18,0S154.07,105,154.18,105.05Zm-.11.64c-.12,0-.36,0-.3-.2H154A.2.2,0,0,1,154.07,105.69Zm-.41-.68a.23.23,0,0,1,.05-.21C154,104.79,154,105.06,153.66,105Zm-.47.64c.22,0,.22.11.21.21C153.11,105.86,153.09,105.69,153.19,105.65Zm-2.46-.6a3.8,3.8,0,0,1-1.23-.17c0-.1.53.1.51-.08s.18,0,0,0C150.05,105,150.47,105,150.73,105.05Zm2.61,10c0,.14,0,.06,0,0S153.33,115.11,153.34,115.08Zm-4.53-10.28s-.1.09-.28.08-.11-.14-.39-.12C148.21,104.59,148.6,104.77,148.81,104.8Zm-6.38,5.86c.14,0,.24.34.16.5C142.58,110.91,142.42,111,142.43,110.66Zm.53,2.82c.08-.35.13.24.2.25C143.08,114.08,143,113.5,143,113.48Zm-.08,1.74c-.08,0-.07-.74.08-.51-.05.13-.05.38,0,.42C143,115.45,142.88,114.86,142.88,115.22Zm-.16,0-.13.31c0,.27.16.17.21.32C142.55,116.39,142.5,114.86,142.72,115.21Zm.12,2.6c0,.17,0,.41-.12.47.08.15.15.37.32.23,0,.26-.12.13,0,.36-.14,0-.06-.35-.28-.24-.11-.26.08-.59-.13-.7C142.64,117.83,142.77,117.86,142.84,117.81Zm.77.94c.16,0,0,.32.08.47C143.54,119.13,143.68,119,143.61,118.75Zm-.73,1.23c0-.15.07.08.16,0,.05.19-.13,0-.08.23C142.81,120.21,143,120,142.88,120Zm.4.06c.06,0,0,.15,0,.23s-.26-.29-.24.06C142.87,120.19,143.19,120.1,143.28,120Zm-.08.35c.13,0,.12.1.24.06C143.39,120.55,143.18,120.65,143.2,120.39Zm.41,3.34c0-.08.06,0,.16-.06,0,.1,0,.23,0,.24C143.75,124.07,143.68,123.75,143.61,123.73Zm.32.47c.12,0-.05.15,0,.3-.12,0-.15.06-.24,0s.06-.1,0-.29C143.83,124.43,143.89,124.48,143.93,124.2Zm.12,1c-.12-.34.17.09.2-.18C144.43,125.3,144.06,125.11,144.05,125.2Zm-.32.12a1.49,1.49,0,0,1-.08.41c-.06,0-.07-.11-.12-.12S143.59,125.31,143.73,125.32Zm.28,0c-.13.09.09.4.08.11,0,0,0,.12.08.12-.12,0-.12.25-.28.24,0-.15.08-.31-.08-.3A.23.23,0,0,1,144,125.32Zm-.24.41c.11,0,0,.27.08.23-.07,0-.28,0-.28-.17C143.69,125.76,143.73,125.92,143.77,125.73Zm.61.06c0,.2-.06.19-.09.35-.2-.09-.17.18-.36.11V126C144.15,126.33,144.19,125.85,144.38,125.79Zm-.13,1h.13a1.62,1.62,0,0,1-.09.35C144.21,127.05,144.33,126.93,144.25,126.78ZM152,128c.12.12-.07.28-.16.29S152,128.09,152,128Zm-.32,1.52c.06,0,.09.43,0,.35S151.66,129.62,151.66,129.48Zm-6.84,2.05c0,.19-.11.08-.2.06S144.77,131.45,144.82,131.53Zm6,.06c.09,0,0,.36-.08.29S150.79,131.7,150.81,131.59Zm.44.12a.21.21,0,0,1,.21.06c-.12.14,0,.28-.08.47,0-.15-.15-.28-.08,0C151.08,132.16,151.4,131.89,151.25,131.71Zm-6.43.29c0-.11-.16-.05-.12-.23.09,0,.12.1.24.06,0,.18-.13.08-.12.23C144.77,132.05,144.8,132,144.82,132Zm3,.35c.2,0-.07.25.08.3C147.76,132.87,147.75,132.46,147.82,132.35Zm3,.06c.16,0,.16.28,0,.24Zm-.77.06a.18.18,0,0,0,.16.06c-.15.08,0,.54-.24.53C150.06,133,150.05,132.71,150,132.47Zm-5.34.18s0,.07,0,.11.18.06.12.3A.4.4,0,0,1,144.7,132.65Zm6.72,0c-.06.13-.09.11,0,.29-.11,0-.11-.12-.13-.23A.18.18,0,0,1,151.42,132.65Zm-2.39.23c0-.08.1,0,.16-.06s.13.28,0,.41c-.14-.07,0-.19-.08-.35Zm1.29,0h.09c0,.05,0,.06,0,.06a.43.43,0,0,0,0,.29C150.29,133.15,150.37,133.1,150.32,132.88Zm.33.06h.12c0,.06-.05.05-.08.06a.29.29,0,0,0,.08.23C150.66,133.36,150.58,133.13,150.65,132.94Zm.52,0c.07.1.17.15.17.35-.06,0-.1-.23-.13-.06A.24.24,0,0,1,151.17,132.94Zm.49.12c.13.1-.11.15,0,.35-.06-.07-.18,0-.16-.24C151.56,133.18,151.65,133.19,151.66,133.06Zm-3.36.41c-.08,0-.17,0-.16-.18S148.31,133.23,148.3,133.47Zm1.21-.06c.09-.16.16.21.21.29s-.11-.07-.16-.06,0,0,0-.11S149.56,133.42,149.51,133.41Zm.81,0c.11,0,.08.25.17.29C150.42,133.85,150.28,133.61,150.32,133.41Zm-2.18.23c.06,0,.1.09.16.12C148.28,134,148.09,133.87,148.14,133.64Zm1.74.18c.14.22.2,0,.32.06a.34.34,0,0,1-.4.08C149.81,133.91,149.87,133.91,149.88,133.82Zm1.05.06c0-.06,0,0,0,0s0,.06,0,.07a1.08,1.08,0,0,1,.29-.05c0,.1,0,.09.16.06,0,0-.1,0-.08.07a.39.39,0,0,0-.17,0V134a1.27,1.27,0,0,1-.36,0s.06-.07,0-.08S150.93,133.94,150.93,133.88Zm-1.21.16c.21,0,.12.37.12.5-.15,0,0-.2-.16-.2C149.76,134.22,149.72,134.23,149.72,134Zm.93,0c.17,0,.31.08.32.22C150.8,134.16,150.77,134.21,150.65,134Zm-1.3.1c.18,0,.19.13.25.22S149.41,134.21,149.35,134.13Zm2.23-.12s0,.11,0,.14S151.53,134,151.58,134Zm-6.35.42c.07.15,0,.15,0,.41-.12.07-.09-.15-.17-.15,0,.46.07.28.13.64-.09,0-.06-.21-.17-.14v-.66C145.13,134.74,145.07,134.34,145.23,134.43Zm4.69-.29c.08.07.12,0,.24,0C150.09,134.22,149.93,134.39,149.92,134.14Zm-1.46.24c.13.09,0,.2.08.33s-.06-.07-.12-.08S148.5,134.51,148.46,134.38Zm-.6.16c0-.13.18.1.24.14-.16.08.05.31,0,.43C147.93,135,148.05,134.56,147.86,134.54Zm2.79-.16c-.08,0,0,.11-.16.11s0,0-.17,0c0-.09-.08-.05-.12-.08s0-.12.12-.11c-.14.17.28,0,.37.1S150.65,134.39,150.65,134.38Zm-2.92.24c.08,0,0,.18.13.15s-.11.06-.17.08A.63.63,0,0,1,147.73,134.62Zm.77.25c.09,0,.11,0,.17,0s-.26.07-.21.29C148.29,135.15,148.49,135,148.5,134.87Zm2.31-.22c0-.05.12-.15,0-.1,0,0,.1-.05.16-.06s0-.06,0-.09c.15,0-.09.28.08.21,0,0-.05.06,0,.11s0,0,0-.07S150.9,134.61,150.81,134.65Zm-2.83.7c0-.14.19-.15.28-.33,0,.17,0,.36-.12.39C148.2,135.15,148.12,135.31,148,135.35Zm2.59-.67c0-.05.05,0,.12,0C150.55,135,150.56,134.92,150.57,134.68Zm-5.43,1.56c.14,0,0,.23,0,.41a.5.5,0,0,1-.08-.31C145.11,136.34,145.14,136.3,145.14,136.24Zm.05,2.26c.05.07.08-.19.24-.13,0,.09-.22.38-.08.44,0,.21-.16.27-.25.39-.06-.3.23-.12.17-.42s-.07.15-.17.09a9.24,9.24,0,0,1,0-1.13c.08-.17.05,0,.17-.07,0-.22-.2,0-.17-.34.12.07.12-.41,0-.25,0-.14.05-.19,0-.34s.16,0,.21,0c0,.29-.1.27-.08.52s.13,0,.16.09-.08.1-.12.13.16,0,.12.35c-.13.08-.16-.19-.25,0S145.34,138.14,145.19,138.5Zm3.35-2.81c.1,0,0,.37.13.34-.09.19-.13.12,0,.26a.34.34,0,0,1-.16.12C148.51,136.28,148.49,135.94,148.54,135.69Zm2.27-.8c.05,0,.15,0,.2,0s-.16.14,0,.11-.1.07-.16.1c.1-.07-.05-.11-.08,0S150.83,134.94,150.81,134.89Zm-.28.25c.05-.11.14,0,.12.06l-.12.06C150.47,135.21,150.63,135.1,150.53,135.14Zm.16.07c.08,0,.05.06.16,0-.1.09-.09.2-.2.3C150.58,135.43,150.71,135.33,150.69,135.21Zm-.65.33c.05,0,.19-.07.24,0s-.14,0-.24.15Zm1.5-.59c.15,0,0,.24.16.18,0,0-.08.07-.08.05s0,0,0,0c-.17.18-.24.05-.41.21,0-.1.19-.11.29-.2l.08-.07C151.48,135.14,151.5,135,151.54,135ZM149,136.33c.11-.06.13,0,.12.11S149,136.46,149,136.33Zm1.13-.36c0,.11-.27.37-.24.18S150,136,150.12,136Zm-1.09.7c.13-.07.18,0,.32-.12C149.29,136.68,149,136.83,149,136.67Zm1.38-.5c.07-.11,0-.21.08-.38s-.09.24,0,.36c-.14.15-.2,0-.21.14l-.12.06s.05-.1,0-.07.1-.1.16-.14S150.35,136.2,150.41,136.17Zm-.21.28s-.19.1-.16,0S150.21,136.34,150.2,136.45Zm-5.1,3,.13-.08a.23.23,0,0,1-.09.22c0,.09.13,0,.21,0-.09.29,0,.74-.25.91a3.55,3.55,0,0,0,.09-.47c-.16.33-.25.26-.29.71-.17,0,0-.45-.08-.62.1.15.08.11.24,0A2,2,0,0,0,145.1,139.45Zm2.19-1.37c.12,0,0,.19,0,.31s0,0-.08,0,.06.08.12,0c-.07.12-.13.34-.2.27a1.34,1.34,0,0,0,0-.46C147.23,138.19,147.28,138.16,147.29,138.08Zm1.25-.78c.06,0,.16-.07.13.11s-.14,0-.17.12S148.55,137.36,148.54,137.3Zm-1.09,1c.12-.09.08.14.24-.06-.07.23-.14.18-.28.27A.65.65,0,0,0,147.45,138.33Zm-.08.18a.77.77,0,0,0,0,.27l-.16.13A.62.62,0,0,1,147.37,138.51Zm1.25-.78c-.07.05-.08.12-.16.17s.12.07,0,.2,0-.21,0-.32.17,0,.2-.15c0,.16.18.13.21.31C148.69,138,148.67,137.84,148.62,137.73Zm.81-.5c.09-.08,0,.12,0,.16l-.16.14c0-.07.06-.13.12-.18Zm.08.37s0-.06,0-.17a3.27,3.27,0,0,1,.41-.38,1.17,1.17,0,0,1-.08.36c-.09.06-.1,0-.16,0s-.06.2-.17.3S149.47,137.63,149.51,137.6Zm-.16,0a1.75,1.75,0,0,1-.12.32l-.12-.15C149.21,137.59,149.2,137.8,149.35,137.62ZM146,141c0,.16-.11.19-.12.34s.23-.46.25,0c-.13,0-.12.13-.29.28C145.87,141.31,145.87,141.06,146,141Zm1,.19c0-.1.35-.17.18-.21a.61.61,0,0,1,.24,0s0,0,0,0C147.25,141,147.22,141.17,147,141.15Zm.07.16c-.26.14,0,.1-.14.24C146.6,141.61,146.81,141.28,147.06,141.31Zm.32.12c-.12,0,.24-.2.38-.2C147.72,141.38,147.51,141.36,147.38,141.43Zm.73-.28c.07,0,.12.07,0,.08s.1,0,.18,0-.22.1-.38.12S147.89,141.23,148.11,141.15Zm-.35.36s.44,0,.28.12a.83.83,0,0,1-.33,0C147.75,141.61,147.86,141.52,147.76,141.51Zm2.52-3c0-.05,0-.16,0-.21s.16,0,.21-.12c.08.07-.07.13,0,.2h.3c0,.07-.14.11-.08.13C150.57,138.57,150.5,138.43,150.28,138.52Zm-2,2.87a1.24,1.24,0,0,1,.41-.08c0,.08.24.16,0,.28C148.17,141.61,148.6,141.41,148.29,141.39Zm.36-.32c.14-.08.08.09.35,0-.08.16-.4.11-.51.24C148.3,141.15,148.82,141.12,148.65,141.07Zm.18-.17c.36-.09-.07-.26.39-.28-.26.1,0,.18.11,0,.07.08-.29.29-.48.32C148.89,140.94,148.88,140.91,148.83,140.9Zm1.27.33c.3,0,.7,0,.61.24,0-.11-.39,0-.36-.16-.13.12-.09.1-.28.12S150.17,141.33,150.1,141.23Zm-.48.24c.11-.06.13-.1.08-.16-.16.1-.52.05-.62.2-.21,0,0-.19-.14-.24.27-.14.76-.08.93-.29.12,0,.06.16.27.17C150,141.26,149.92,141.46,149.62,141.47Zm.44-1.29c.13-.1,0-.08.17-.21s-.07.23,0,.29C150.17,140.35,150.19,140.15,150.06,140.18Zm1.18-2c0-.1.43-.14.33,0C151.46,138.15,151.36,138.31,151.24,138.23Zm-.72,2a.57.57,0,0,1,.51,0C150.85,140.31,150.77,140.2,150.52,140.22Zm.63.64h-.34c.05-.11-.08-.08.07-.16s0,.05,0,.08.16-.05.28,0,0-.07,0-.08C151.4,140.54,151.19,140.78,151.15,140.86Zm0,.57a2,2,0,0,1-.06-.24c.23.15.24.05.64,0,0,.12-.22.14-.31.08,0,.12-.12.15-.15.24S151.31,141.28,151.16,141.43Zm1.41-3.93c0-.14.19-.21.25-.28s0,.1,0,.16A.29.29,0,0,0,152.57,137.5Zm-.92,3.24c.13-.08,0-.05,0-.16H152c-.38.15.24.1,0,.24A.32.32,0,0,0,151.65,140.74Zm.43.49c-.27.06,0,.2-.33.2,0-.13.16-.17.14-.32.26,0,.22-.1.44-.08-.23.08.17.36-.29.36C151.94,141.31,152.06,141.34,152.08,141.23Zm.7-3c0,.12.12-.1.22-.08-.08.16.19,0,.11.16-.14-.07-.32,0-.24.17a.43.43,0,0,1-.26-.25c.17.06.14-.13.27-.12A.13.13,0,0,1,152.78,138.27Zm.07,2.39c-.07,0,0,.12-.16.2-.16-.11-.21,0-.41,0a.14.14,0,0,0-.12-.08c.15-.14.6-.07.64-.28l.64.08c0,.06-.39.06-.07.08C153.27,140.86,152.88,140.83,152.85,140.66Zm0-2.83c0-.11.2-.1.24,0S152.89,137.8,152.82,137.83Zm-.48,4c0-.1.26-.08.46-.08C152.77,141.9,152.52,141.87,152.34,141.83Zm.09-.6c0-.09.07-.11.1-.16s.1.07.2.08-.11-.08,0-.17.3-.07.41,0c-.11.16-.11.05,0,.21C152.82,141.25,152.71,141.17,152.43,141.23Zm1-1.18c.16,0,.12-.08.24-.08s-.21,0-.29,0,.3-.07.35,0c-.11.16,0,.18.23.12,0,.13-.18.12-.12.29-.07-.07-.33-.23-.35,0-.21-.28-.22.16-.36-.12a.14.14,0,0,0-.14.12c-.1,0-.2-.08-.16-.21.1.09.32,0,.19-.08C153.06,140,153.32,140,153.45,140.05Zm-.49-.4c0-.07.13,0,.11,0s.06-.13.23-.08a.23.23,0,0,1-.07.2h-.17C153,139.79,153.06,139.66,153,139.65Zm.35-1.78a.25.25,0,0,0,.05-.2c.08,0,.1,0,.15,0s-.15,0-.08.2A.19.19,0,0,0,153.31,137.87Zm-.15,3.07c0-.07.12-.09.27-.08,0,.08.08.09.07.17C153.28,141.06,153.29,141,153.16,140.94Zm.22-2.87a.2.2,0,0,1,.25-.07c.13,0,.24.09.23.15-.26,0-.31,0-.36-.12A.21.21,0,0,1,153.38,138.07Zm0,3.16c-.21,0,.07-.09,0-.16.18,0,.34,0,.33.12s-.11,0-.2,0A.17.17,0,0,0,153.35,141.23Zm.06-1.62c.16,0,.17.12.05.2S153.33,139.66,153.41,139.61Zm.11-2.39c.19,0,0-.21,0-.36a1.66,1.66,0,0,0,.54.12c.07,0,.08-.12,0-.12s.17,0,.18-.08.24.29.23,0c.24.05,0,.08,0,.2s.16-.06.23,0c0-.07,0-.08-.11-.08s.19-.06.29-.08c0,.24-.36.26-.64.32a.13.13,0,0,1,.05.12c.08.06.23.06.3.12a.27.27,0,0,1-.41-.28.47.47,0,0,1,.23,0s-.1-.06-.12-.12c-.05.15-.39.11-.58.16,0,0,.13,0,.12.12s0-.07.05-.12.16,0,.24,0c-.11-.1-.2.26,0,.12a.31.31,0,0,1-.32.06A.46.46,0,0,1,153.52,137.22Zm0,.61a.21.21,0,0,0,0-.12c.08,0,.13.08.14.16S153.57,137.84,153.51,137.83Zm.06-1.74s0-.07,0-.08.1,0,.08.08.06,0,.12,0-.17-.12-.22-.16.22.05.39,0c-.1.23.21.11.24.16S153.59,136.11,153.57,136.09Zm.18,4.77c0-.16.27-.11.29-.24l.41,0c0,.15-.17,0-.35,0s.12.08.17.12C154.1,140.9,153.91,140.82,153.75,140.86Zm-.06.17c-.27-.12,0-.36-.12-.53.06,0,0,.05.06.08s.12-.05.23,0-.07.07,0,.08C153.58,140.69,153.78,140.88,153.69,141Zm-.11-2.72c0-.13.3-.07.23.08C153.72,138.37,153.65,138.33,153.58,138.31Zm.23,1.18c0-.11.08-.14.23-.12S154,139.5,153.81,139.49Zm.23,1.45c.26.11.28-.14.59-.12,0,.07,0,.11.11.12-.13.07-.11.09-.06.21-.14,0-.33.13-.41,0s-.07.12,0,.12c-.19.13-.38-.09-.41-.2C154.15,141.08,154.06,141.14,154,140.94Zm-.18-1.25c.06-.11.41-.15.47-.12A.58.58,0,0,1,153.86,139.69Zm.06-1.66c.23-.18.3.06.41.2C154.14,138.2,154.14,138.05,153.92,138Zm.3,2.06c-.15-.13.23-.17.41-.12-.09.1-.13.08-.06.21C154.44,140.18,154.29,140,154.22,140.09Zm.29,1.26c0,.08.26,0,.29.08s-.23,0-.47,0a.61.61,0,0,0,.24-.24C154.71,141.23,154.58,141.36,154.51,141.35Zm0-.93a.43.43,0,0,1,.29.2A.2.2,0,0,1,154.51,140.42Zm.23-.73v-.12c.19.05.36-.13.47,0S155,139.68,154.74,139.69Zm.06,1.58c.12,0,0-.24.18-.2C155,141.18,155,141.29,154.8,141.27Zm.41,0c-.05.11.08.1.06.2C155.06,141.49,154.92,141.25,155.21,141.27Zm-.12-1.3c.3,0,.26-.17.53-.24.09.12-.23.26-.35.36S155.21,140,155.09,140Zm.88-2s.08,0,.12,0-.12-.08-.23-.08.12-.08.23-.08-.29,0-.23-.16c-.06.07-.28.23-.18.28-.25.13-.14-.34-.47-.28,0-.09,0-.11.06-.17s.27.2.29,0c.22.11.36,0,.53.12s0-.07.06-.12c.2.18.86-.13,1,.12,0-.16.29,0,.29-.16.31.14.57-.06,1,0,0,0-.06,0-.06.08s-.06,0-.06,0c-.16-.19-.33.07-.53.09a.89.89,0,0,0-.82,0c.13,0,.49,0,.53.2-.11,0-.12-.05-.24,0,0,.06.19,0,.12.16-.28,0-.2-.21-.41-.24-.05.1-.17.15-.17.28-.15,0-.29-.15-.06-.12,0-.07-.33-.07-.24,0-.1-.11-.07-.09-.23-.12S156.15,138,156,138Zm-.29,0c0,.08.16,0,.12.16s-.16,0-.24,0,.09-.13.18-.16S155.74,138,155.68,138Zm-.12-2.1c.14-.25.29.13.36.2C155.6,136.16,155.86,135.83,155.56,135.89Zm.06,4.12c.11,0,.12,0,.06,0s.23-.06.29,0a.36.36,0,0,1-.29.09C155.69,140.1,155.61,140.09,155.62,140Zm.94-3.88c0-.12.34-.31.35-.08C156.68,136,156.79,136.18,156.56,136.13Zm4.11,1.94c0-.13.12-.06.21,0S160.72,138.05,160.67,138.07Z"/><path class="cls-6" d="M155.74,140.66v-.16c.14,0,.13-.07.29,0s.09.32.24.4c0,0-.34-.05-.41-.12s.2-.05.11-.2S156,140.72,155.74,140.66Z"/><path class="cls-6" d="M162.57,105.61s0,0-.06,0-.29,0-.29-.2h.41C162.55,105.51,162.34,105.57,162.57,105.61Z"/><path class="cls-6" d="M142.11,111.83c0,.06,0,.24-.12.18v-.56C142.1,111.43,142.24,112.26,142.11,111.83Z"/><path class="cls-6" d="M142.39,120c.06.09.17.43,0,.59C142.46,120.66,142.31,120.14,142.39,120Z"/><path class="cls-6" d="M142.76,122.09c.17.09,0,.19,0,.29s0-.48-.13-.58c.12-.18.08.35.13.47S142.75,122.16,142.76,122.09Z"/><path class="cls-6" d="M142.84,125.61c0-.14.12.13.12.23s.08-.08.08-.17a1,1,0,0,1,0,.64c-.07-.13-.05-.4-.2-.41S142.94,125.65,142.84,125.61Z"/><path class="cls-6" d="M152.59,126.61c.11-.17-.09.37,0,.35C152.46,127.16,152.5,126.62,152.59,126.61Z"/><path class="cls-6" d="M152.63,127.84c.16,0,0,.26.08.41,0,.25-.11-.21-.12,0a9,9,0,0,1,0-1.17c.15.08,0,.24.12.35C152.72,127.58,152.71,127.76,152.63,127.84Z"/><path class="cls-6" d="M143.81,129.77a.15.15,0,0,0-.08.12,2.82,2.82,0,0,1,0-.7c.14.07,0,.51.16.58S143.81,129.81,143.81,129.77Z"/><path class="cls-6" d="M143.93,129.77c.18.07,0,.54.08.88-.11,0-.08-.11-.16-.11s0,.18.12.17c-.09.21,0,.37-.12.59-.22-.18.11-.47,0-.65-.07,0-.08,0-.08.12-.08-.08,0-.42.12-.53a.33.33,0,0,0-.08-.23c0-.09.13,0,.08-.24,0,0,0,.06.08.06S144,129.78,143.93,129.77Z"/><path class="cls-6" d="M144.13,131.77c.1-.12,0,.34,0,.41C143.94,132,144.18,132,144.13,131.77Z"/><path class="cls-6" d="M151.05,135.89c-.12.07.13-.12,0-.13s-.08.09-.16.14,0,0,0-.05,0-.08,0,0,.15-.12.2-.17S151.19,135.78,151.05,135.89Z"/><path class="cls-6" d="M151.21,135.6c-.05.2.26.12,0,.36.05-.18-.11,0-.2,0C151.14,135.82,151.24,135.67,151.21,135.6Z"/><path class="cls-6" d="M151.25,136c.14-.05,0,.27.16.08h.13c-.12.15-.37.27-.22.28-.09.08-.15,0-.22,0s0,0,0,0,0,0,0,0a.21.21,0,0,0,.09,0s0-.05,0,0-.08,0-.05-.1c-.08.17-.25.32-.28.27A1.31,1.31,0,0,0,151.25,136Z"/><path class="cls-6" d="M153.16,134.33h0s-.1.13-.05.11,0,0,.12-.16,0,0-.07.16c0,0,.12-.19-.12.08,0,0,0-.06,0-.11Z"/><path class="cls-6" d="M149.87,137.91c-.16,0-.06-.14-.05-.23a.52.52,0,0,0,.06-.13s0,0,0,0a.36.36,0,0,0,.32-.08C150.15,137.69,150.08,137.7,149.87,137.91Z"/><path class="cls-6" d="M149.48,138s0,.07-.09.12c.17,0,.3-.12.37,0-.17.18-.15-.05-.28.12,0,0-.12,0-.13-.08a.2.2,0,0,1,.12-.12Z"/><path class="cls-6" d="M152.21,135.76c-.07.06-.1,0-.19.13,0-.07,0-.14-.21,0,0,0,.12-.17.11-.21s.16-.08.15-.12,0,.06.06,0c-.22.26,0,.06,0,.16.09-.1.24-.19.14,0,0,0,.11-.13.15-.16s.14,0,.19.08-.17.09-.13.16,0-.05-.09,0-.14,0-.24.17.2-.06,0,.16c0,0,.1-.09.15-.16,0,.23.36-.1.36.08,0,0,.06-.1.09-.16s.06,0,0,.16c.17-.17.09.12.29,0,0-.12.08-.24.12-.37s0,.11.05.08c-.09.07-.09.14-.09.29.06-.05.08-.2.16-.16-.08.11,0,.1-.05.24-.15-.13-.57.22-.6,0-.2.17-.54.23-.51,0-.08,0-.06.06-.13.16,0-.17-.28,0-.25-.08-.13.12-.22.09-.26.12s.26-.12.39-.28c0,.13.15,0,.25,0,.14-.2,0,0,0-.12S152.09,136,152.21,135.76Z"/><path class="cls-6" d="M148.84,139.12a.85.85,0,0,1,.23-.2c.17,0,0,.11.14.12C149.05,139.15,148.93,139.17,148.84,139.12Z"/><path class="cls-6" d="M148.76,139.77l.06-.08H149s-.09,0-.12.08a.37.37,0,0,1,.25,0c-.09.13-.31.29-.09.2.12.15-.39.22-.36.08s.13,0,.21,0S148.93,139.8,148.76,139.77Z"/><path class="cls-6" d="M149.23,139.33c-.08,0,.24-.15.31-.21s-.17,0,0-.16c.11,0,.17-.06.28,0-.05.17-.25.32-.15.41-.06,0-.14.06-.2.12s.07-.16-.14-.16C149.27,139.28,149.25,139.3,149.23,139.33Z"/><path class="cls-6" d="M151.84,136.82c-.1,0,0,0-.1.12,0-.11-.35.07-.5,0s.12-.17.16-.24.16,0,.27,0l-.08.12a.42.42,0,0,1,.27-.12s0,0,0-.13,0,.23,0,.25S151.83,136.84,151.84,136.82Z"/><path class="cls-6" d="M152.5,135.52s-.23.08-.06-.12c0,0,.1,0,0,.08.07-.06.15-.15.2-.16s0-.07,0-.12.09-.09.12-.08C152.69,135.3,152.58,135.37,152.5,135.52Z"/><path class="cls-6" d="M151.22,137.67c.05,0,.14,0,.28,0-.25.08-.06.11.07,0,.4.05-.2.17-.38.2C151.16,137.8,151.28,137.67,151.22,137.67Z"/><path class="cls-6" d="M149.23,141.39c-.33-.09.52-.28.61-.2C149.65,141.26,149.35,141.25,149.23,141.39Z"/><path class="cls-6" d="M153.32,134.55s0,0,0,0-.05,0-.06,0,0-.08.05-.08,0,0-.11.12c0-.05.11-.18.16-.28,0,.11,0,0,0,.12A1.19,1.19,0,0,1,153.32,134.55Z"/><path class="cls-6" d="M152.14,136.74c.08-.12.15,0,0,.08h.06C152.15,136.93,152.15,136.77,152.14,136.74Z"/><path class="cls-6" d="M152.86,135.56c0-.1,0,0,.09,0s0,.11,0,.12-.06,0-.14.12S152.94,135.56,152.86,135.56Z"/><path class="cls-6" d="M152.42,136.86c-.1,0,.07-.2,0-.16.28-.15.3,0,.56-.09C152.75,136.94,152.62,136.62,152.42,136.86Z"/><path class="cls-6" d="M151.83,138.92c.06-.12.3,0,.38-.12S152,138.93,151.83,138.92Z"/><path class="cls-6" d="M153,135.8s0,0,0,0,.09-.18.12-.21S153,135.77,153,135.8Z"/><path class="cls-6" d="M153.69,142.68s.06,0,.06,0,.06-.09.17-.08,0,.06,0,.17h-.17A.07.07,0,0,0,153.69,142.68Z"/><path class="cls-6" d="M155.68,141.55c-.27,0,.35-.17.06-.36a.93.93,0,0,1,.35.48c-.19,0-.25.07-.47,0,.06-.07.22-.06.24-.16a.18.18,0,0,0-.12-.08C155.68,141.47,155.69,141.52,155.68,141.55Z"/><path class="cls-6" d="M155.56,135.24c.27,0,.07-.23.36-.16,0,0-.08,0-.12,0s.33,0,.29.16a.48.48,0,0,0-.29,0c-.05.17.2.18.12.32a.44.44,0,0,0-.18,0C155.91,135.34,155.56,135.41,155.56,135.24Z"/><path class="cls-6" d="M156.15,141.63a.77.77,0,0,1,.12-.24c.22.1.3,0,.64,0,0,.09,0,.13-.17.12s0,0,.06,0A3.55,3.55,0,0,0,156.15,141.63Z"/><path class="cls-6" d="M156.68,136.7v-.13c.13.08.24-.1.53,0,0,.05-.11,0-.18,0s0,0,.06,0A1.85,1.85,0,0,1,156.68,136.7Z"/><path class="cls-6" d="M157,141.31c-.05,0-.06,0-.12,0s.06-.07.06-.12.05,0,.06.08.07-.11.23-.08v.12C157.12,141.26,157.08,141.19,157,141.31Z"/><path class="cls-6" d="M156.91,140.14c.2,0,.61-.23.71,0C157.32,140.21,157.24,140.09,156.91,140.14Z"/><path class="cls-6" d="M157.21,140.78c.1-.13.23.16.23,0,.07.06.33,0,.18.12a4.46,4.46,0,0,1,.52-.12C158.17,140.87,157.37,141.05,157.21,140.78Z"/><path class="cls-6" d="M157.44,136.05c.05,0,.06,0,.06,0s.33,0,.23-.12c.07,0,0,.08.12.08s0-.09,0-.16c.21,0,.06.17.18.2s.15.06.41,0C158.26,136.21,157.54,136.31,157.44,136.05Z"/><path class="cls-6" d="M157.62,135.24c.15,0,.34,0,.35-.08s.12.06.06.12a1.2,1.2,0,0,1,.5-.1c.1,0,.09,0,.11,0l.06,0a.1.1,0,0,1,0,0s0,0-.12,0a3.49,3.49,0,0,1-.56,0c0,.05,0,.07.06.08S157.63,135.35,157.62,135.24Z"/><path class="cls-6" d="M158.89,139.65c-.14-.05.05-.15-.06-.16.12,0,.45-.11.44.08.08,0,0-.13.21-.08C159.47,139.66,159.06,139.57,158.89,139.65Z"/><path class="cls-6" d="M158.88,136.65c.09,0,.06.25.17.25C159,137.05,158.86,136.85,158.88,136.65Z"/><path class="cls-6" d="M158.91,136.13c0,.12-.11,0-.1-.16s0,0,.05.08,0,0,0,0S158.84,136.12,158.91,136.13Z"/><path class="cls-6" d="M159,135.32c0,.06-.09-.2-.14-.41s.16,0,.18-.08C159.09,135.07,158.89,135,159,135.32Z"/><path class="cls-6" d="M159.14,135.56c-.06-.1.08,0,.11.08s-.09-.08,0,0S159.17,135.56,159.14,135.56Z"/><path class="cls-6" d="M159.38,135.4c-.19-.33-.15,0-.33-.12s.12,0,.07-.12,0,.1-.06,0,.3.08.33-.08t.12.12c0-.15.13-.06.21-.08s-.16.27-.43,0A.74.74,0,0,0,159.38,135.4Z"/><path class="cls-6" d="M159.76,135.85s0-.06-.08-.13,0,.09,0,.13-.06-.09-.08-.09-.17.12-.22,0,0,.17-.09.13.05,0-.06-.25c.08,0,.17.07.26.12s-.06-.11-.08-.08.07-.08.11,0c-.07-.2.11,0,.14-.12.13.17,0,.13.12.24C159.75,135.75,159.71,135.75,159.76,135.85Z"/><path class="cls-6" d="M161.71,137.14a.28.28,0,0,0,0,.12c-.19-.23-.24,0-.47-.24,0,0,0,0,0,0,.19.14-.07.1.18.28-.22-.09-.24-.21-.45-.4.12,0,.49.12.4,0s-.5-.17-.35,0c-.17-.06-.16-.14-.26-.29.11.1.44.08.32-.08a1.39,1.39,0,0,1,.39.45l.18,0c0-.23,0-.49,0-.74,0-.07-.14-.3.08-.15.15.48-.09.61.11,1.1,0,0,0,.05,0,.09S161.81,137.23,161.71,137.14Z"/><path class="cls-6" d="M159.37,134.75s0,0,0,0c.19.19.1.09.07,0s0-.06,0-.06l.14.17C159.62,135,159.56,135,159.37,134.75Z"/><path class="cls-6" d="M159.82,135c.13.08-.08,0,.09.12,0,0,0,0,0,0a.1.1,0,0,1-.07,0c-.08-.1-.08-.12-.05-.11S159.85,135.07,159.82,135Z"/><path class="cls-6" d="M159.66,134.94s0-.08,0-.1.15.14.12.08-.06,0-.12-.12.07,0,.08,0,0-.05-.08-.13c.09.08.09.1.08.12a.83.83,0,0,1,.21.16s-.2-.15,0,0C159.66,134.84,159.87,135.14,159.66,134.94Z"/><path class="cls-6" d="M160,135s0,0,0-.07.08,0,.08,0-.08-.07-.08-.09-.2-.13-.21-.08-.11-.08-.12-.07c-.17-.13.05,0-.08-.11.12.08.44.29.45.15.22.16.14.2.28.38C160.23,135.13,160.25,135.07,160,135Z"/><path class="cls-6" d="M165.65,138.19l-.12-.07v-.2c.07,0,.07.1.12.13v-.13C165.77,138,165.61,138,165.65,138.19Z"/><path class="cls-6" d="M159.82,134.56c-.15-.1.13,0-.12-.13.08,0,0,0,0-.06C159.91,134.45,159.86,134.54,159.82,134.56Z"/><path class="cls-6" d="M160.27,134.71s-.07-.06-.16-.08.07,0,.16,0S160.16,134.64,160.27,134.71Z"/><path class="cls-6" d="M159.91,133.85c.08-.09,0-.15,0-.3s-.11,0-.17-.05a1.72,1.72,0,0,0,0-.65s0,.07,0,.12,0-.19.17-.12c0,.47-.11,1.25.16,1.13,0,0,0,.07,0,.09a1.57,1.57,0,0,0-.24,0s0,.05.12.06,0,0,0,0v0c-.3-.1-.1-.14-.25-.28,0-.08.07-.09.08-.18A.19.19,0,0,1,159.91,133.85Z"/><path class="cls-6" d="M161.44,134.18c.35-.1,0-.21.29-.33,0-.17-.08-.25-.08-.41,0,0-.11.26-.05.23-.06.12-.16-.15-.08-.29-.13,0,0,.15-.16.17,0,.13,0,.19.12.18-.14.17-.3-.15-.36-.29s.08-.12.08-.24-.16-1.24,0-1.35c0-.2-.2-.29,0-.35,0-.12-.11-.11-.16-.17s.06-.38.08-.59c-.23-.41.23-1.08-.08-1.58a.5.5,0,0,0,0-.53c.13-.24.17.34.24.17.12,0-.09.16.08.12-.25.48,0,1.32-.2,1.59.24.33.09.72.08,1.17s.27.7,0,.82c.14.09.1.16.16.41.09,0,.08-.08.08-.18.05.15.17.2.17.41.15-.16-.09-.61-.13-.88,0,.16.22.18.17-.11.05,0,.11,0,.12-.06.1.1.08.38.12.58-.07,0-.09-.1-.08-.23-.17.14.17.33,0,.47,0,.16.09-.18.16,0a1.36,1.36,0,0,0-.17.6c0,.11,0,.22,0,.35a2.51,2.51,0,0,0,0,.27c-.18,0-.21.05-.24.13S161.52,134.2,161.44,134.18Z"/><path class="cls-6" d="M162.7,134.3c-.28-.14-.09-.32-.25-.69.31-.17-.12-1.3.17-1.64v1.39l0,.57A2.35,2.35,0,0,0,162.7,134.3Z"/><path class="cls-6" d="M160.88,132.85a4.65,4.65,0,0,0,0,.73,1.92,1.92,0,0,1,0,.34.18.18,0,0,1-.1.09.09.09,0,0,0,0-.09c0-.06,0-.17-.13-.13.08-.19-.08-.36.09-.41,0-.22-.13-.33-.29-.35.06-.21,0-.27,0-.47.3.1,0-.57.21-.76a.12.12,0,0,0,.12,0,7.15,7.15,0,0,0,0,.77c0,.1-.23,0-.08.11-.07.23-.07-.12-.13-.11S160.77,133,160.88,132.85Z"/><path class="cls-6" d="M161.16,134h-.08a.1.1,0,0,1,0-.07h.16v-.08C161.33,134,161.12,133.93,161.16,134Z"/><path class="cls-6" d="M167.31,132.91c-.21.1-.05-.31-.2-.29C167.15,132.52,167.33,132.72,167.31,132.91Z"/><path class="cls-6" d="M159.86,132.79c-.17-.25,0-.55-.08-.88C160,132.13,159.86,132.43,159.86,132.79Z"/><path class="cls-6" d="M167.84,130.56a.55.55,0,0,1,0-.41c.12.07.1,0,.2.06S167.87,130.4,167.84,130.56Z"/><path class="cls-6" d="M159.74,128.34c0,.14.07.18.08.29.08-.24.21,0,.25.17-.06-.16-.17.11-.21-.05-.13.11-.11.4-.08.52-.2.06-.13-.83,0-1.17.06,0,.12,0,.12-.06.15.12.06.28.09.35s-.15,0-.09-.17C159.82,128.26,159.82,128.35,159.74,128.34Z"/><path class="cls-6" d="M161.2,127.69c0,.09.06.19.16.18-.11,0-.11.22-.24.23s0-.47.12-.53c-.06-.06-.1-.17-.2-.17a6.16,6.16,0,0,0,0-1.59c.08-.16.07-.24.16-.29-.09.12.11.43-.08.47A5.44,5.44,0,0,1,161.2,127.69Z"/><path class="cls-6" d="M159.74,128c-.21-.07-.07-.4,0-.64.05,0,.07,0,.08.06a.35.35,0,0,0,.08-.3c-.15-.08,0,.27-.16.18,0-.2.07-.37.21-.41.1.16-.09.47.12.53-.08,0-.31.28-.29.06C159.64,127.55,159.73,127.87,159.74,128Z"/><path class="cls-6" d="M162.17,125.64c0-.36.13,0,.12.06a1.88,1.88,0,0,0,0,.52c0,.43,0,1,.08,1.12a15.63,15.63,0,0,0,.09-2,9.89,9.89,0,0,0-.09-1.82c-.08.22,0,.7-.2.82,0,0,.12,0,.12.06v.23c-.09-.07-.07,0-.2-.06C162.27,124.78,162.08,125.3,162.17,125.64Zm.2-.88c0,.18-.1.21-.16.12S162.3,124.65,162.37,124.76Z"/><path class="cls-6" d="M163.51,125.64v.29a.75.75,0,0,1-.12-.58C163.54,125.4,163.35,125.67,163.51,125.64Z"/><path class="cls-6" d="M159.34,125.64c.1,0,0,.2,0,.23s0-.27-.12-.29C159.29,125.3,159.31,125.86,159.34,125.64Z"/><path class="cls-6" d="M161.89,125.58c-.15.17-.3-.18-.2-.59a.16.16,0,0,0,.12.06c.07-.07,0-.3.08-.41s-.09-.18-.2-.12c-.05-.23.06-.26.12-.35s-.14.13-.12-.06.13-.12.2-.17c0,.39.21.78,0,1.17,0,.09.05,0,.12,0s-.18.2-.08.24-.07-.09-.16,0v.11C161.81,125.54,161.83,125.44,161.89,125.58Z"/><path class="cls-6" d="M161.28,124.47c-.05,0-.14.07,0,.17-.14.21,0,.48-.08.76a8.81,8.81,0,0,1-.08-1.93c.26,0-.05.54.16.64C161.2,124.09,161.15,124.37,161.28,124.47Z"/><path class="cls-6" d="M160,124.58c0,.07,0,0,0,0s-.09.07-.17.06.12-.18.12-.35C160,124.36,159.85,124.52,160,124.58Z"/><path class="cls-6" d="M162.78,123.64s0,.12.08.12c-.05.21-.2-.27-.16.12-.18,0-.11-.21,0-.29S162.76,123.81,162.78,123.64Z"/><path class="cls-6" d="M162,123.82c-.14,0,0-.22-.12-.35-.07.09,0,.32-.12.41-.13-.19.05-.54,0-.7.17.12.23,0,.36.23C162,123.56,161.9,123.63,162,123.82Z"/><path class="cls-6" d="M167.27,122.18c.11,0,.08-.1.16,0s-.06.18-.16.17,0-.1,0-.29S167.27,122.1,167.27,122.18Z"/><path class="cls-6" d="M167.68,120.77c-.12-.25.09-.69-.05-1C167.89,119.69,167.69,120.55,167.68,120.77Z"/><path class="cls-6" d="M161,120.71s0,0,0-.06c0-.22-.1-.4,0-.64.16-.06.14.32.08.41s.14.12.24.12C161.35,120.9,161.17,120.46,161,120.71Z"/><path class="cls-6" d="M167.43,119.77c-.09.34-.35-.23-.08-.23,0,.13-.08.08-.08.18S167.38,119.63,167.43,119.77Z"/><path class="cls-6" d="M167.31,119.42c-.19-.09-.11-.44-.24-.7.19,0,0-.24.08-.29.15.2,0,.48.16.7C167.12,119.14,167.38,119.23,167.31,119.42Z"/><path class="cls-6" d="M167,112.56a2.8,2.8,0,0,1-.08-1.11A4.94,4.94,0,0,1,167,112.56Z"/><path class="cls-6" d="M166.5,111.57c0,.05,0,.1.08.11a.16.16,0,0,1-.16.12c-.06-.24.09-.19.08-.35C166.55,111.46,166.54,111.56,166.5,111.57Z"/><path class="cls-6" d="M164,105.78c0,.11-.17.1-.24.16.27,0,0,.45,0,.48.06.24.25.62-.35.57.28-.21-.06-.42-.12-.73,0-.08.12-.1.12-.12,0-.34-.42-.74-.41-.89s.12-.11-.06-.28c.27,0,.31.14.65.08,0,.11-.22,0-.24.12s.32.2.18.32c0,.09.15-.06.23,0C163.65,105.7,164,105.64,164,105.78Z"/><path class="cls-6" d="M143.24,123.62c.1,0,0,.26.12.17a.9.9,0,0,0-.08.59c.05,0,0-.11,0-.18.08.28-.12.58,0,.76-.1-.27-.37-.57-.36-.82.12.06.17.23.24.36s0-.12.08-.12c0-.18-.1-.2-.12-.35S143.16,123.76,143.24,123.62Z"/><path class="cls-6" d="M143.85,126.55c.16.16,0,.37.16.64-.18.1,0,.34-.12.53-.24-.23-.06-.7-.24-1,0-.19.07,0,.2,0Z"/><path class="cls-6" d="M152.81,142.52a17.66,17.66,0,0,1-2.42,0,.83.83,0,0,1,.36-.08c-.1-.07-.27,0-.38-.08.54-.11,1,0,1.58-.12.12.08,0,0,0,.16C152.17,142.39,152.78,142.37,152.81,142.52Z"/><path class="cls-6" d="M157.62,141.43c.21.11.12,0,.41,0,0,0-.07,0-.12,0s.18,0,.23-.08c.13.06,0,.1.06.2h.12c.07,0,.05-.07.06-.12.33,0,0,.16,0,.28-.15-.13-.4.08-.59,0S157.75,141.56,157.62,141.43Z"/><path class="cls-6" d="M158.55,135.85c.1-.1.14,0,.21,0s0,0-.11.09.09,0,.1.08-.05,0-.1.08,0,.08.07.08,0,.08-.17.08-.05-.16,0-.22.05-.05.05-.08S158.65,135.87,158.55,135.85Z"/><path class="cls-6" d="M158.26,142.48c0-.06.06-.07.06-.12a1.27,1.27,0,0,0,.35,0l.46,0a1.1,1.1,0,0,1,.72.1C159.35,142.45,158.45,142.67,158.26,142.48Z"/><path class="cls-6" d="M158.61,141.63a.17.17,0,0,0,.08-.2,5,5,0,0,1,1.51,0c-.07,0-.46.1-.5,0a.16.16,0,0,0-.12.16C159.32,141.42,159.11,141.78,158.61,141.63Z"/><path class="cls-6" d="M159.63,135.52c0-.06,0-.13-.08-.12s0-.07.07,0,0,0,0,0c.26.3.2,0,.22,0,.11.11,0,.08.06.12s.18.05,0-.12c0,0,.11.08,0,0a1.56,1.56,0,0,0,.35.24s0-.07,0-.17a.77.77,0,0,1,.15.28h0a.58.58,0,0,0-.15-.12c.07.14-.13.13-.22.08.1.12.11.24-.07,0,0,.06,0,.07,0,.12s-.1-.12-.12-.08S159.66,135.47,159.63,135.52Z"/><path class="cls-6" d="M166.3,142.28a3.35,3.35,0,0,1,.63-.05c0-.27,0-.52,0-.87.09.27.15.11.28.25a2.51,2.51,0,0,1,.08.49c-.05.07-.19-.13-.24-.06s0,.21,0,.3A1.24,1.24,0,0,1,166.3,142.28Z"/><path class="cls-6" d="M162,123.18c-.1-.17-.07-.43-.28-.53-.08-.69.27-1.07,0-1.53.14.19.09-.24.2-.29s-.08,0-.08-.12,0-.41.24-.35a.9.9,0,0,0,.08.53c-.06.11-.17.14-.2.29s.19.55,0,.71c0,.08.05,0,.12,0C161.86,122.3,162.09,122.69,162,123.18Z"/><text class="cls-7" transform="translate(147.19 119.26)"> <tspan x="0" y="14.4"> </tspan></text></g></g></svg>