<svg xmlns="http://www.w3.org/2000/svg" viewBox="0 0 506.94 632.18"><title>Logo icon</title><g id="Layer_2" data-name="Layer 2"><g id="Layer_1-2" data-name="Layer 1"><path d="M345,158.94a5,5,0,0,0-.71-2.87,5.79,5.79,0,0,0-3.55-2.49,6.48,6.48,0,0,0-4.51.53,5.57,5.57,0,0,0-2.84,3.24,4.89,4.89,0,0,0,.51,4.06,5.2,5.2,0,0,0,1.75,1.71l-9.34,4.17c-.37-.47-.72-.94-1.05-1.44A13,13,0,0,1,323.91,155a14,14,0,0,1,2.76-4.91,15.93,15.93,0,0,1,4.77-3.73,17.51,17.51,0,0,1,12-1.41v0a15.14,15.14,0,0,1,9.44,6.65,13.42,13.42,0,0,1,1.39,3.11Z"/><path d="M288.32,122.42l33.88,17.71,8,4.17.22-8.37,1-35.59,1-35.59.08-2.85-2.71-1.42L295.81,42.76,261.94,25.05l-8-4.16-.23,8.36-1,35.59-1,35.6-.08,2.85,2.71,1.42ZM263.61,64.91l.74-27.22,25.91,13.55,31.15,16.29-.88,32.74-.74,27.23L293.88,114l-31.16-16.3Z"/><path d="M356.09,56.2l0,2.85-.59,35.59-.57,35.59-.14,8.33,8.12-4.13,34.64-17.57,34.64-17.58,2.76-1.41L435,95l.58-35.59.58-35.59.14-8.33-8.13,4.12L393.5,37.21,358.86,54.79Zm10.18,38.38.53-32.73,31.87-16.18,26.52-13.45-.45,27.26-.53,32.74L392.34,108.4l-26.52,13.45Z"/><path d="M229.58,200.42l2.7,1.44,2.75-1.43,34.45-17.87,34.45-17.88,8.08-4.19-7.88-4.22-33.67-18-33.67-18-2.7-1.44-2.75,1.43-34.45,17.88L162.44,156l-8.08,4.19,7.88,4.21,33.67,18Zm-27.44-53.89,31.7-16.45,31,16.57,25.8,13.8-26.38,13.69-31.69,16.44-31-16.57-25.79-13.79Z"/><polygon points="341.42 50.97 349.94 38.25 358.46 25.52 350.49 12.76 342.52 0 334 12.73 325.48 25.45 333.45 38.21 341.42 50.97"/><polygon points="204.11 104.73 220.47 104.69 236.82 104.65 228.99 91.82 221.16 78.99 204.81 79.03 188.45 79.07 196.28 91.9 204.11 104.73"/><path d="M506.13,105.65q-.86-14-2.8-27.73s0-.1,0-.19A235.44,235.44,0,0,0,485.82,4.58c-.28-.66-.52-1.33-.85-1.95A147.07,147.07,0,0,1,472,63a123.48,123.48,0,0,1-5.85,11.46,191.9,191.9,0,0,1-11.12,18c-.58.76-1.1,1.48-1.67,2.19a186.09,186.09,0,0,1-17.69,19.79c-1.71,1.71-3.47,3.32-5.23,4.94a252.1,252.1,0,0,1-34.58,25.92A419.53,419.53,0,0,1,357,166.57c-23.11,11.23-47,20.79-71.29,29.68q-8.62,3.13-17.27,6.18v0c-.18.05-.37.14-.61.19a4,4,0,0,1-.62.24c-4.38,1.57-8.8,3.09-13.17,4.61l-.67.29c-.29.09-.52.19-.81.28-3.42,1.19-6.8,2.38-10.27,3.57a5.07,5.07,0,0,1-.72.24l-.71.28-13.17,4.57a4,4,0,0,1-.62.24,4.43,4.43,0,0,1-.67.23c-6,2.09-12.08,4.24-18.07,6.37-9.89,3.57-19.79,7.14-29.58,10.85-19,7.08-37.72,14.65-55.79,23.45-4.9,2.37-9.75,4.8-14.55,7.37-1.76,1.19-3.52,2.33-5.28,3.57a238.67,238.67,0,0,0-77,87.36q-4.41,8.56-8.13,17.55v.05a238.12,238.12,0,0,0-16,122.47,230.21,230.21,0,0,0,5.23,27.06A239.72,239.72,0,0,0,21,562.51,236.79,236.79,0,0,0,69,632.18c0-.71,0-1.42,0-2.14V630A381.51,381.51,0,0,1,82.52,528.5c1.33-5,2.75-9.89,4.32-14.74A385.82,385.82,0,0,1,320.41,269c8.51-3.19,17.22-6,26-8.57,2.9-.85,5.8-1.66,8.7-2.37,7.23-1.95,14.51-3.67,21.92-5.19-6,2.33-12,4.85-17.93,7.47-7.56,3.38-14.93,7-22.21,10.84A385.34,385.34,0,0,0,143.63,514.76c-.67,2.52-1.28,5-1.9,7.56-1.19,4.95-2.28,9.94-3.24,14.93-.33,1.57-.61,3.19-.9,4.76.43,2,2.85,2.33,8.32,1.14a364.58,364.58,0,0,0,105.82-39.9c16.65-9.47,32.44-19.45,47.56-30,1.76-1.24,3.52-2.47,5.28-3.76.43-.24.91-.48,1.34-.67,0,0,0,0,.09,0s.1-.1.14-.1a0,0,0,0,1,.05-.05l67.44-46.75a385.89,385.89,0,0,0,68.87-78A382.83,382.83,0,0,0,489,247q3.08-9.55,5.57-19.31a384.18,384.18,0,0,0,12.36-97Q506.94,118,506.13,105.65Z"/></g></g></svg>