<svg xmlns="http://www.w3.org/2000/svg" viewBox="0 0 122.44 140.43"><defs><style>.cls-1{fill:#ec1d24;}</style></defs><title>Pin</title><g id="Layer_2" data-name="Layer 2"><g id="Delete"><path class="cls-1" d="M56.23,140.43l-5-.28a167,167,0,0,1-17.72-1.84,106.74,106.74,0,0,1-18.68-4.47,37.59,37.59,0,0,1-10.19-5,17.77,17.77,0,0,1-3.33-3.21c-1.83-2.32-1.49-4.94-.58-7.5,1.16-3.24,3.58-5.41,6.44-7.13a39.53,39.53,0,0,1,13-4.67c3.58-.71,7.2-1.14,10.81-1.67a1,1,0,0,1,.73.25c2.2,2.64,4.37,5.3,6.55,8a1,1,0,0,1,.11.25c-1.83.11-3.63.2-5.43.33-5.71.42-11.42.94-16.91,2.74a21.23,21.23,0,0,0-4.32,2,6.32,6.32,0,0,0-2,2.08,2.45,2.45,0,0,0,.79,3.73,22.27,22.27,0,0,0,4.24,2.16,65.55,65.55,0,0,0,13.12,3.17,218.85,218.85,0,0,0,40.68,2.34c6.35-.18,12.68-.59,19-1.36,6.7-.81,13.39-1.77,19.8-4a22.73,22.73,0,0,0,4.54-2.22c1.66-1.06,1.9-2.6.69-4.18a8.81,8.81,0,0,0-2.44-2.15,26.39,26.39,0,0,0-8.78-2.89,117.28,117.28,0,0,0-16.72-1.72l-.59,0,.55-.71c1.93-2.34,3.87-4.66,5.76-7a1.62,1.62,0,0,1,1.67-.71,82.58,82.58,0,0,1,16.18,3.18,27.68,27.68,0,0,1,9.79,5,11.75,11.75,0,0,1,4.45,8.57,6.57,6.57,0,0,1-1.67,4.73,19.42,19.42,0,0,1-6.33,4.71,68.75,68.75,0,0,1-16.19,5.56,139.08,139.08,0,0,1-21,3.19c-3.45.27-6.91.41-10.36.62-.21,0-.42.06-.63.09Z"/><path class="cls-1" d="M61.26,128.24C60.11,127,59,125.8,58,124.61A342.29,342.29,0,0,1,28.06,86.24,128.13,128.13,0,0,1,15.64,63.4a46.3,46.3,0,0,1-3.16-11.56,35.87,35.87,0,0,1,.09-8.22A47.48,47.48,0,0,1,21.07,21,47.92,47.92,0,0,1,52.61.79a48.88,48.88,0,0,1,56.28,36.8,42.21,42.21,0,0,1,1.19,13.71,40.81,40.81,0,0,1-2.64,10.59,114.91,114.91,0,0,1-11,21.18,308.88,308.88,0,0,1-26.29,35c-2.81,3.28-5.71,6.49-8.57,9.73Zm0-12.19.36-.43A280,280,0,0,0,87.92,81.28,108.18,108.18,0,0,0,98.26,61.54a38,38,0,0,0,2.67-10.79A40.41,40.41,0,0,0,99.77,38c-3.16-12.6-10.64-21.52-22.87-26.1A44.89,44.89,0,0,0,48.14,11,35.15,35.15,0,0,0,27.36,26.65a41.41,41.41,0,0,0-5.9,21.47,35.16,35.16,0,0,0,2.62,13,104.4,104.4,0,0,0,9.73,18.92A265.63,265.63,0,0,0,56.3,110.34C57.9,112.23,59.54,114.09,61.24,116.05Z"/><path class="cls-1" d="M61.28,24.42A24.43,24.43,0,1,1,36.76,48.75,24.49,24.49,0,0,1,61.28,24.42Zm0,39.67A15.24,15.24,0,1,0,45.93,48.91,15.24,15.24,0,0,0,61.26,64.09Z"/></g></g></svg>