<svg xmlns="http://www.w3.org/2000/svg" viewBox="0 0 490.79 88.04"><defs><style>.cls-1{fill:#ee4d2b;}</style></defs><g id="Layer_2" data-name="Layer 2"><g id="Delete"><path class="cls-1" d="M147.34,88a26.06,26.06,0,0,1-.48-3.47q0-28,0-56c0-1.12.49-3.11,1-3.21a13.55,13.55,0,0,1,5.81.23c.57.16.59,2.26.94,3.78C160.59,25.33,167.06,24,174,26a20.2,20.2,0,0,1,10.84,7.89,20.76,20.76,0,0,1-1,25c-6.71,8.24-15.61,9.31-29.6,3.34,0,5,.06,9.75,0,14.53-.05,3.74-.26,7.47-.39,11.2Zm20.52-28.91A13.5,13.5,0,0,0,181.29,45.8a13.69,13.69,0,0,0-13.67-13.47,13.49,13.49,0,0,0-13.33,13.41A13.26,13.26,0,0,0,167.86,59.13Z"/><path class="cls-1" d="M490.79,66.6H480.64c-.17-1-.31-1.81-.51-3a21.2,21.2,0,0,1-18.81,2.68,20.4,20.4,0,0,1-10.72-8c-5.89-8.41-5.58-21.27.79-29.41A19.48,19.48,0,0,1,465,21.16,20.65,20.65,0,0,1,480.4,25V1.21h10.39ZM457.68,44.44c0,7.11,4.7,12.14,11.32,12.21s11.47-5.24,11.39-12.47-5-12.58-11.48-12.48S457.64,37.25,457.68,44.44Z"/><path class="cls-1" d="M295,66.54V1.24h44.18V12.62c-1,.06-2.06.15-3.11.15-8.82,0-17.63.09-26.45,0-2.38,0-3.08.73-3,3,.16,4.22,0,8.45,0,13h32.12c0,3.77.11,7.27-.12,10.75,0,.5-1.76,1.23-2.72,1.24-8.51.1-17,.05-25.55.07-1.16,0-2.32.13-3.75.21V66.54Z"/><path class="cls-1" d="M344.26,44.62c0-13.24,10.06-23.46,22.9-23.33s22.71,10.44,22.63,23.65a22.91,22.91,0,0,1-23.11,22.88C354.25,67.76,344.22,57.37,344.26,44.62Zm11,0c-.05,7,5.22,12.66,11.8,12.58,6.32-.07,11.66-5.6,11.74-12.14.09-7.38-4.91-12.88-11.74-12.91S355.28,37.28,355.24,44.59Z"/><path class="cls-1" d="M417.92,67.82a22.76,22.76,0,0,1-22.55-23c0-13.33,9.89-23.52,22.73-23.48s22.84,10.37,22.83,23.51A23,23,0,0,1,417.92,67.82ZM418,32.13c-7,.06-11.7,5.32-11.61,12.91A12,12,0,0,0,418,57.17c6.5,0,12-5.76,11.91-12.57C429.8,37.44,424.68,32.08,418,32.13Z"/><path class="cls-1" d="M23.16,67.13c-8.06-.56-15.27-2.8-21.7-7.57-3.25-2.41-.18-3.84.63-5.58.93-2,2.28-1.67,3.83-.55,5.7,4.14,12,6.59,19.15,5.64a20,20,0,0,0,7-2.25c6.44-3.6,7-11.19,1.11-15.59-2.72-2-6-3.3-9.2-4.62-3.55-1.48-7.29-2.5-10.86-3.94C4.88,29.34.73,22.81,1.65,15,2.47,8,8.94,1.79,17,.53A33.72,33.72,0,0,1,39.5,5c1.52.88,2.5,1.91,1,3.42-1.33,1.35-1.4,5-4.88,2.89-4.58-2.79-9.56-4.46-15-3.89a17.67,17.67,0,0,0-7.2,2.34c-5.56,3.41-5.8,10.35-.39,14,3,2,6.57,3.07,9.89,4.56,4.68,2.1,9.55,3.83,14,6.36,5.67,3.25,8.56,8.45,7.85,15.11C44,57,40.16,62.3,33.19,64.81,30,66,26.51,66.38,23.16,67.13Z"/><path class="cls-1" d="M59.24,27.77c4.28-.88,8.35-2.38,12.44-2.43a19,19,0,0,1,19,19c.06,6.31-.11,12.63.08,18.93.08,2.65-.75,3.61-3.36,3.29a34.09,34.09,0,0,0-4.08,0c-.07-1.39-.17-2.43-.18-3.47,0-5.72,0-11.44,0-17.16,0-8.34-4.57-13.36-12.11-13.34S59.15,37.48,59.13,45.69c0,5.92-.14,11.84.06,17.75.1,2.92-1.34,3.25-3.64,3.1-2-.12-4.09.52-4.07-2.92q.2-30.32,0-60.65c0-3.41,2-2.87,4-2.95,2.22-.09,3.76.06,3.68,3.05-.19,7.49-.07,15,0,22.49C59.14,26.49,59.23,27.43,59.24,27.77Z"/><path class="cls-1" d="M250.6,48.69C253,60,265.27,62.35,278.47,54.32a28.82,28.82,0,0,1,2.87,4.28,3.07,3.07,0,0,1-.62,2.79c-6.81,6-21.63,7.81-30.56.34A20.82,20.82,0,0,1,246.25,34a20.13,20.13,0,0,1,22.45-8,20.81,20.81,0,0,1,14.2,18.88c.06,2.75-1,3.66-3.66,3.63-8.32-.08-16.63,0-24.94,0C253.14,48.5,252,48.61,250.6,48.69Zm.64-7.44c7.35,0,14.44,0,21.54,0a14.22,14.22,0,0,0,1.68-.2c-1-4.83-6.33-8.66-11.74-8.63S252.24,36.1,251.24,41.25Z"/><path class="cls-1" d="M203.5,48.65c2.69,11.38,14.65,13.7,27.93,5.68a28.22,28.22,0,0,1,2.87,4.27,3,3,0,0,1-.59,2.76c-6.74,6-21.18,7.76-30.11.75a20.66,20.66,0,0,1-5.11-26.84,19.87,19.87,0,0,1,21.75-9.62,20.58,20.58,0,0,1,15.61,19c.09,3.29-.39,3.85-3.67,3.86-8.41,0-16.83,0-25.24,0C205.88,48.5,204.83,48.59,203.5,48.65Zm24.13-7.55a12.7,12.7,0,0,0-13-8.64c-5.48.6-9.77,4.16-10.25,8.64Z"/><path class="cls-1" d="M118.9,25.24C130.57,25.32,140,34.64,140,46s-9.72,20.69-21.54,20.63a20.88,20.88,0,0,1-21-21.09C97.57,34.16,107.1,25.15,118.9,25.24Zm-.23,34a13.63,13.63,0,0,0,13.8-13.35c0-7.2-6.32-13.41-13.8-13.47A13.61,13.61,0,0,0,105,45.89,13.33,13.33,0,0,0,118.67,59.23Z"/></g></g></svg>