<svg xmlns="http://www.w3.org/2000/svg" viewBox="0 0 780.5 781.5"><defs><style>.cls-1{fill:none;stroke:#000;stroke-miterlimit:10;stroke-width:4px;}</style></defs><title>Asset 1</title><g id="Layer_2" data-name="Layer 2"><g id="Assets"><ellipse class="cls-1" cx="390.25" cy="390.75" rx="388.25" ry="388.75"/><path d="M472,254.13a4.33,4.33,0,0,0-.62-2.51,5.09,5.09,0,0,0-3.11-2.18,5.75,5.75,0,0,0-3.95.46,4.89,4.89,0,0,0-2.48,2.84,4.29,4.29,0,0,0,.44,3.56,4.67,4.67,0,0,0,1.53,1.5l-8.18,3.64a13.06,13.06,0,0,1-.91-1.26,11.32,11.32,0,0,1-1.17-9.47,12.5,12.5,0,0,1,2.41-4.3,13.84,13.84,0,0,1,4.19-3.26,15.26,15.26,0,0,1,10.52-1.24v0a13.29,13.29,0,0,1,8.27,5.82,11.84,11.84,0,0,1,1.22,2.73Z"/><path d="M422.37,222.15,452,237.67l7,3.64.2-7.32.85-31.17.84-31.17.07-2.5-2.38-1.24L428.92,152.4l-29.66-15.52-7-3.64-.2,7.32-.85,31.17-.84,31.17-.07,2.5,2.38,1.24Zm-21.65-50.36.65-23.84,22.69,11.87,27.28,14.27-.77,28.67-.65,23.84-22.69-11.87-27.29-14.27Z"/><path d="M481.71,164.16l0,2.49-.51,31.17-.5,31.17-.12,7.29,7.11-3.61L518,217.28l30.34-15.39,2.42-1.23,0-2.5.51-31.17.51-31.17.12-7.29-7.12,3.61-30.33,15.39-30.33,15.4Zm8.91,33.62.47-28.67L519,154.94l23.22-11.78L541.83,167l-.47,28.67-27.91,14.16-23.22,11.79Z"/><path d="M370.92,290.46l2.36,1.27,2.42-1.26,30.17-15.65L436,259.16l7.07-3.67-6.9-3.69L406.73,236l-29.49-15.77L374.88,219l-2.42,1.25-30.17,15.65-30.17,15.66-7.07,3.67,6.9,3.69,29.48,15.78Zm-24-47.19,27.76-14.41,27.13,14.51,22.58,12.09-23.09,12-27.76,14.41-27.13-14.51L323.8,255.25Z"/><polygon points="468.86 159.59 476.32 148.44 483.79 137.29 476.81 126.12 469.83 114.95 462.37 126.09 454.9 137.24 461.88 148.41 468.86 159.59"/><polygon points="348.62 206.66 362.94 206.63 377.26 206.59 370.4 195.36 363.55 184.12 349.23 184.15 334.9 184.19 341.76 195.43 348.62 206.66"/><path d="M613.11,207.46q-.75-12.24-2.46-24.28s0-.08,0-.16A206.13,206.13,0,0,0,595.33,119c-.25-.59-.46-1.17-.75-1.71a128.85,128.85,0,0,1-11.38,52.9,111.28,111.28,0,0,1-5.12,10,169.15,169.15,0,0,1-9.74,15.75c-.5.66-1,1.29-1.46,1.91a161.69,161.69,0,0,1-15.5,17.33c-1.5,1.5-3,2.91-4.58,4.33a220.2,220.2,0,0,1-30.28,22.7,371.12,371.12,0,0,1-34,18.62,671.68,671.68,0,0,1-62.44,26c-5,1.83-10.08,3.62-15.12,5.41v0a4.34,4.34,0,0,1-.54.17,2.74,2.74,0,0,1-.54.21c-3.83,1.37-7.7,2.71-11.54,4-.2.08-.37.17-.58.25l-.71.25c-3,1-5.95,2.08-9,3.12a3.11,3.11,0,0,1-.63.21l-.62.25-11.54,4a3,3,0,0,1-.54.21,5.12,5.12,0,0,1-.58.21c-5.29,1.83-10.58,3.7-15.83,5.58-8.66,3.12-17.33,6.24-25.91,9.49-16.62,6.21-33,12.83-48.85,20.54-4.29,2.08-8.54,4.2-12.75,6.45-1.54,1-3.08,2-4.62,3.13a209,209,0,0,0-67.39,76.51q-3.87,7.5-7.12,15.37v0a208.49,208.49,0,0,0-14,107.25,199.69,199.69,0,0,0,4.58,23.7,208.13,208.13,0,0,0,54,95.33c0-.62,0-1.25,0-1.87v-.09a334.22,334.22,0,0,1,11.91-88.83c1.17-4.38,2.42-8.67,3.79-12.92A337.91,337.91,0,0,1,450.47,350.53c7.45-2.79,15.07-5.29,22.78-7.49,2.54-.75,5.08-1.46,7.62-2.09,6.33-1.7,12.7-3.2,19.2-4.54-5.29,2-10.54,4.25-15.7,6.54-6.62,3-13.08,6.13-19.45,9.5A337.42,337.42,0,0,0,295.65,565.74c-.58,2.21-1.12,4.41-1.66,6.62-1,4.33-2,8.71-2.84,13.08-.29,1.37-.54,2.79-.79,4.16.38,1.71,2.5,2,7.29,1a319,319,0,0,0,92.67-34.94c14.58-8.29,28.41-17,41.65-26.28,1.54-1.09,3.09-2.17,4.63-3.29.37-.21.79-.42,1.16-.59,0,0,0,0,.09,0s.08-.08.12-.08a0,0,0,0,1,0,0l59.06-40.94A337.54,337.54,0,0,0,598.12,331.21q2.68-8.37,4.87-16.91a336.3,336.3,0,0,0,10.83-85C613.82,222,613.57,214.71,613.11,207.46Z"/></g></g></svg>