<svg xmlns="http://www.w3.org/2000/svg" viewBox="0 0 3789.7 1051.48"><defs><style>.cls-1{font-size:628.96px;font-family:HelveticaNeue-Bold, Helvetica Neue;font-weight:700;letter-spacing:0.1em;}.cls-2{font-size:314.48px;font-family:HelveticaNeue-Light, Helvetica Neue;font-weight:300;letter-spacing:0.1em;}.cls-3{letter-spacing:0.08em;}</style></defs><title>Asset 25</title><g id="Layer_2" data-name="Layer 2"><g id="Delete"><path d="M517.69,238.5a7.36,7.36,0,0,0-1.08-4.29,8.6,8.6,0,0,0-5.31-3.74,9.77,9.77,0,0,0-6.77.78,8.34,8.34,0,0,0-4.26,4.87,7.33,7.33,0,0,0,.75,6.09,8.1,8.1,0,0,0,2.63,2.58l-14,6.24c-.55-.7-1.07-1.4-1.56-2.16a19.39,19.39,0,0,1-2-16.23,21.43,21.43,0,0,1,4.14-7.37,23.68,23.68,0,0,1,7.17-5.59,26.12,26.12,0,0,1,18-2.11v0a22.76,22.76,0,0,1,14.17,10,20.21,20.21,0,0,1,2.09,4.67C527,234.34,522.34,236.42,517.69,238.5Z"/><path d="M432.67,183.71l50.82,26.58,11.95,6.25.34-12.56,1.45-53.41,1.45-53.41.11-4.27-4.07-2.13L443.9,64.17,393.07,37.59l-11.95-6.24-.34,12.55-1.45,53.41-1.45,53.41-.11,4.28,4.07,2.13Zm-37.09-86.3,1.1-40.85,38.88,20.33,46.76,24.45L481,150.47l-1.11,40.86L441,171l-46.76-24.45Z"/><path d="M534.36,84.33l-.07,4.27L533.42,142l-.87,53.41-.21,12.5,12.19-6.19,52-26.37,52-26.38,4.15-2.11.07-4.28.87-53.41.87-53.41.21-12.49-12.19,6.18-52,26.38-52,26.38Zm15.27,57.61.8-49.13,47.82-24.28L638,48.34l-.66,40.92-.81,49.13-47.82,24.27L549,182.85Z"/><path d="M344.51,300.75l4.05,2.17,4.13-2.14L404.39,274l51.7-26.83,12.12-6.29-11.82-6.33-50.52-27-50.53-27-4-2.16-4.13,2.14-51.7,26.83-51.7,26.83-12.12,6.29,11.82,6.32,50.52,27Zm-41.18-80.87L350.9,195.2l46.48,24.87,38.71,20.7-39.57,20.54L349,286l-46.49-24.87-38.7-20.71Z"/><polygon points="512.34 76.49 525.13 57.4 537.91 38.3 525.96 19.15 514 0 501.21 19.1 488.42 38.2 500.38 57.34 512.34 76.49"/><polygon points="306.29 157.16 330.83 157.1 355.37 157.04 343.63 137.79 331.88 118.53 307.34 118.59 282.8 118.65 294.54 137.91 306.29 157.16"/><path d="M759.51,158.54c-.85-14-2.28-27.84-4.21-41.61.07-.07,0-.15,0-.29A353.52,353.52,0,0,0,729,6.88c-.43-1-.79-2-1.29-2.93a220.82,220.82,0,0,1-19.48,90.64c-2.64,5.85-5.57,11.63-8.78,17.2.14.07-10.28,18.34-16.7,27-.86,1.14-1.64,2.21-2.5,3.28a278.28,278.28,0,0,1-26.55,29.69c-2.57,2.57-5.21,5-7.85,7.42A378.48,378.48,0,0,1,594,218.06,635.23,635.23,0,0,1,535.77,250c-34.68,16.84-70.58,31.19-107,44.53-8.64,3.14-17.27,6.21-25.91,9.28v.07c-.29.08-.57.22-.93.29a4.78,4.78,0,0,1-.93.35c-6.56,2.36-13.2,4.65-19.76,6.93-.36.14-.65.28-1,.43s-.79.28-1.22.43c-5.14,1.78-10.2,3.56-15.41,5.35a6.67,6.67,0,0,1-1.07.35l-1.07.43c-6.57,2.29-13.21,4.57-19.77,6.85a4.68,4.68,0,0,1-.93.36,5,5,0,0,1-1,.36c-9.06,3.14-18.13,6.35-27.12,9.56-14.85,5.35-29.69,10.71-44.39,16.28-28.48,10.63-56.6,22-83.72,35.18-7.35,3.57-14.63,7.21-21.84,11.06-2.64,1.79-5.28,3.5-7.92,5.36A358,358,0,0,0,39.32,534.51q-6.63,12.84-12.2,26.34v.07a357.15,357.15,0,0,0-24,183.77A340.83,340.83,0,0,0,11,785.3a356.38,356.38,0,0,0,92.5,163.37c-.08-1.07-.08-2.14-.08-3.22v-.14a572.7,572.7,0,0,1,20.42-152.23c2-7.49,4.14-14.84,6.49-22.12a579,579,0,0,1,350.5-367.27c12.77-4.78,25.83-9.06,39-12.85,4.36-1.28,8.71-2.5,13.07-3.57,10.84-2.92,21.76-5.49,32.9-7.77-9.07,3.49-18.06,7.28-26.91,11.2-11.35,5.07-22.41,10.49-33.33,16.27a578.21,578.21,0,0,0-290,365.49c-1,3.78-1.92,7.56-2.85,11.34-1.78,7.43-3.43,14.92-4.85,22.41-.5,2.36-.93,4.79-1.36,7.14.64,2.93,4.28,3.5,12.49,1.71,56.67-12,109.77-31.9,158.8-59.87,25-14.21,48.67-29.2,71.37-45,2.64-1.86,5.28-3.71,7.92-5.64.64-.36,1.36-.71,2-1,.07,0,.07-.07.14-.07s.14-.14.21-.14.08-.07.08-.07l101.2-70.16A579.11,579.11,0,0,0,664,516a574.3,574.3,0,0,0,69.8-145.39c3.07-9.56,5.85-19.19,8.35-29A576.29,576.29,0,0,0,760.73,196C760.73,183.44,760.3,171,759.51,158.54Z"/><text class="cls-1" transform="translate(904.09 617.94)">Khaoxin</text><text class="cls-2" transform="translate(2067.5 945.5)">web o<tspan class="cls-3" x="996.26" y="0">r</tspan><tspan x="1121.11" y="0">der</tspan></text></g></g></svg>