<svg xmlns="http://www.w3.org/2000/svg" viewBox="0 0 453.37 120.88"><defs><style>.cls-1,.cls-2,.cls-3{fill:#fff;}.cls-2{font-size:72px;font-family:HelveticaNeue-Bold, Helvetica Neue;font-weight:700;letter-spacing:0.1em;}.cls-3{font-size:36px;font-family:HelveticaNeue-Light, Helvetica Neue;font-weight:300;letter-spacing:0.1em;}.cls-4{letter-spacing:0.08em;}.cls-5{letter-spacing:0.1em;}</style></defs><g id="Layer_2" data-name="Layer 2"><g id="Delete"><path class="cls-1" d="M66,30.39a1,1,0,0,0-.13-.55,1.09,1.09,0,0,0-.68-.47,1.23,1.23,0,0,0-.86.1,1,1,0,0,0-.55.62.92.92,0,0,0,.1.77,1,1,0,0,0,.33.33l-1.78.8a2.83,2.83,0,0,1-.2-.28,2.5,2.5,0,0,1-.26-2.07,2.94,2.94,0,0,1,.53-.94,3.09,3.09,0,0,1,.91-.71,3.37,3.37,0,0,1,2.3-.27h0A3,3,0,0,1,67.48,29a2.79,2.79,0,0,1,.26.59Z"/><path class="cls-1" d="M55.13,23.41l6.48,3.38,1.52.8,0-1.6.19-6.8.18-6.81,0-.54L63,11.56,56.56,8.18,50.08,4.79,48.56,4l0,1.6-.19,6.81-.18,6.8,0,.55.52.27Zm-4.73-11,.14-5.2,5,2.59,6,3.11-.17,6.26-.15,5.21-5-2.59-6-3.12Z"/><path class="cls-1" d="M68.09,10.74v.55L68,18.09l-.11,6.81,0,1.59,1.55-.79L76,22.34,82.63,19l.53-.27v-.54l.11-6.81.11-6.8,0-1.59-1.55.78L75.24,7.11l-6.62,3.37ZM70,18.09l.1-6.26,6.1-3.1L81.3,6.16l-.09,5.21-.1,6.26L75,20.73,70,23.3Z"/><path class="cls-1" d="M43.9,38.32l.51.28.53-.28,6.59-3.41,6.58-3.42,1.55-.8-1.51-.81-6.44-3.44L45.28,23l-.52-.27-.53.27-6.58,3.42-6.59,3.42-1.55.8,1.51.8,6.44,3.45ZM38.65,28l6.06-3.15L50.63,28l4.94,2.64-5,2.62-6.06,3.14-5.92-3.17-4.93-2.64Z"/><polygon class="cls-1" points="65.28 9.75 66.91 7.31 68.54 4.88 67.02 2.44 65.49 0 63.86 2.43 62.23 4.87 63.76 7.31 65.28 9.75"/><polygon class="cls-1" points="39.03 20.02 42.15 20.02 45.28 20.01 43.78 17.56 42.29 15.1 39.16 15.11 36.03 15.12 37.53 17.57 39.03 20.02"/><path class="cls-1" d="M96.78,20.2c-.11-1.78-.3-3.55-.54-5.3,0,0,0,0,0,0a44.86,44.86,0,0,0-3.35-14c0-.13-.1-.26-.16-.38a28.18,28.18,0,0,1-2.48,11.55c-.34.75-.71,1.48-1.12,2.19A36.4,36.4,0,0,1,87,17.68l-.32.42a34.9,34.9,0,0,1-3.38,3.78c-.33.33-.67.64-1,.95a48.25,48.25,0,0,1-6.61,5,81.52,81.52,0,0,1-7.42,4.07,146.51,146.51,0,0,1-13.63,5.67l-3.31,1.19h0l-.11,0-.12,0-2.52.88-.13,0-.15.06-2,.68-.13.05-.14,0-2.52.87-.12.05-.12,0-3.46,1.22q-2.84,1-5.66,2.08c-3.63,1.35-7.21,2.8-10.66,4.48q-1.41.67-2.79,1.41c-.33.23-.67.44-1,.68A45.66,45.66,0,0,0,5,68.11c-.56,1.09-1.08,2.21-1.55,3.35h0A45.21,45.21,0,0,0,0,88.88a46,46,0,0,0,.4,6,43.73,43.73,0,0,0,1,5.17,45.5,45.5,0,0,0,11.79,20.82c0-.14,0-.28,0-.41v0a73.07,73.07,0,0,1,2.6-19.4c.25-1,.53-1.89.82-2.82A73.79,73.79,0,0,1,61.26,51.44c1.63-.61,3.3-1.16,5-1.64.55-.16,1.11-.32,1.66-.45,1.39-.38,2.78-.7,4.19-1-1.15.45-2.3.93-3.42,1.43-1.45.65-2.86,1.34-4.25,2.08a73.66,73.66,0,0,0-37,46.56l-.36,1.45c-.23.95-.44,1.9-.62,2.86-.06.3-.12.61-.17.91s.54.44,1.59.21a69.25,69.25,0,0,0,20.23-7.63c3.19-1.81,6.21-3.72,9.1-5.73l1-.72.25-.13h0l0,0a0,0,0,0,1,0,0l12.89-8.94A73.43,73.43,0,0,0,84.61,65.74,73.09,73.09,0,0,0,93.5,47.22c.39-1.22.75-2.45,1.07-3.69A73.7,73.7,0,0,0,96.93,25Q96.93,22.57,96.78,20.2Z"/><text class="cls-2" transform="translate(123.04 71)">Khaoxin</text><text class="cls-3" transform="translate(256.22 108.5)">web o<tspan class="cls-4" x="114.05" y="0">r</tspan><tspan class="cls-5" x="128.34" y="0">der</tspan></text></g></g></svg>