<svg id="Layer_1" data-name="Layer 1" xmlns="http://www.w3.org/2000/svg" xmlns:xlink="http://www.w3.org/1999/xlink" viewBox="0 0 1301.43 1301.43"><defs><style>.cls-1{fill-rule:evenodd;fill:url(#linear-gradient);}.cls-2{fill:#fff;}</style><linearGradient id="linear-gradient" x1="-66726.44" y1="75884.47" x2="-66726.44" y2="68983.24" gradientTransform="matrix(0.2, 0, 0, -0.2, 14043.37, 15638.19)" gradientUnits="userSpaceOnUse"><stop offset="0" stop-color="#00b2ff"/><stop offset="1" stop-color="#006aff"/></linearGradient></defs><title>facebook</title><path class="cls-1" d="M809,599.29c359.38,0,650.71,291.33,650.71,650.71S1168.38,1900.71,809,1900.71,158.29,1609.38,158.29,1250,449.62,599.29,809,599.29Z" transform="translate(-158.29 -599.29)"/><path class="cls-2" d="M893.55,1895.25V1392.63h141.7l18.78-176.9H893.55l.24-88.55c0-46.14,4.38-70.85,70.65-70.85H1053V879.4H911.31c-170.25,0-230.16,85.81-230.16,230.14v106.2H575v176.92H681.15v495.46a656.21,656.21,0,0,0,212.4,7.13Z" transform="translate(-158.29 -599.29)"/></svg>